M48
;DRILL file {KiCad 5.0.2-bee76a0~70~ubuntu16.04.1} date Thu 03 Sep 2020 02:59:54 PM CEST
;FORMAT={-:-/ absolute / inch / decimal}
FMAT,2
INCH,TZ
T1C0.0157
T2C0.0276
T3C0.0280
T4C0.0394
T5C0.0417
T6C0.1260
%
G90
G05
T1
X4.025Y-3.625
X4.025Y-3.8
X4.025Y-3.975
X4.15Y-3.075
X4.2Y-3.85
X4.2491Y-2.9759
X4.25Y-3.975
X4.2991Y-3.1773
X4.3491Y-3.0773
X4.375Y-2.225
X4.3991Y-2.6273
X4.425Y-2.275
X4.425Y-2.4
X4.475Y-2.125
X4.4991Y-3.0773
X4.6Y-3.25
X4.6Y-3.35
X4.625Y-3.8941
X4.6881Y-2.55
X4.6991Y-2.7773
X4.6991Y-3.2523
X4.7Y-3.35
X4.725Y-2.6
X4.7491Y-2.7273
X4.7491Y-3.0773
X4.775Y-3.15
X4.775Y-3.15
X4.775Y-3.875
X4.7991Y-2.8273
X4.7991Y-3.425
X4.8491Y-2.7773
X4.9614Y-3.7048
X5.025Y-3.7048
X5.45Y-3.13
X5.45Y-3.425
X5.4506Y-2.4756
X5.475Y-2.875
X5.475Y-3.165
X5.475Y-3.35
X5.5Y-3.8624
X5.525Y-2.3508
X5.525Y-3.095
X5.525Y-3.35
X5.55Y-2.8
X5.575Y-2.425
X5.575Y-2.475
X5.575Y-3.425
X5.625Y-2.425
X5.625Y-2.475
X5.625Y-2.875
X5.625Y-3.06
X5.7Y-2.55
X5.7Y-2.8
X5.725Y-3.425
X5.725Y-3.675
X5.8Y-3.06
X5.8Y-3.35
X5.8Y-3.75
X5.8Y-3.8
X5.85Y-2.2876
X5.85Y-2.8
X5.85Y-3.75
X5.85Y-3.8
X5.875Y-3.13
X5.875Y-3.425
X5.9Y-2.875
X5.9Y-3.095
X5.9Y-3.8742
X5.95Y-2.875
X5.95Y-3.165
X5.95Y-3.35
X5.95Y-3.65
X5.9744Y-3.7494
X5.975Y-2.8
X6.Y-3.13
X6.Y-3.425
X6.0006Y-2.4756
X6.025Y-2.575
X6.025Y-2.875
X6.025Y-3.165
X6.025Y-3.35
X6.05Y-3.8624
X6.075Y-2.3508
X6.075Y-3.095
X6.075Y-3.35
X6.075Y-4.1
X6.075Y-4.175
X6.1Y-2.8
X6.125Y-2.425
X6.125Y-2.475
X6.125Y-3.425
X6.175Y-2.425
X6.175Y-2.475
X6.175Y-2.875
X6.175Y-3.06
X6.25Y-2.55
X6.25Y-2.8
X6.275Y-3.425
X6.275Y-3.675
X6.35Y-3.06
X6.35Y-3.35
X6.35Y-3.75
X6.35Y-3.8
X6.4Y-2.2876
X6.4Y-2.8
X6.4Y-3.75
X6.4Y-3.8
X6.425Y-3.13
X6.425Y-3.425
X6.45Y-2.875
X6.45Y-3.095
X6.45Y-3.8742
X6.5Y-2.875
X6.5Y-3.165
X6.5Y-3.35
X6.5Y-3.65
X6.5244Y-3.7494
X6.525Y-2.8
X6.55Y-3.13
X6.55Y-3.425
X6.5506Y-2.4756
X6.575Y-2.575
X6.575Y-2.875
X6.575Y-3.165
X6.575Y-3.35
X6.6Y-3.8624
X6.625Y-2.3508
X6.625Y-3.095
X6.625Y-3.35
X6.65Y-2.8
X6.675Y-2.425
X6.675Y-2.475
X6.675Y-3.425
X6.725Y-2.425
X6.725Y-2.475
X6.725Y-2.875
X6.725Y-3.06
X6.8Y-2.55
X6.8Y-2.8
X6.825Y-3.425
X6.825Y-3.675
X6.9Y-3.06
X6.9Y-3.35
X6.9Y-3.75
X6.9Y-3.8
X6.95Y-2.2876
X6.95Y-2.8
X6.95Y-3.75
X6.95Y-3.8
X6.975Y-3.13
X6.975Y-3.425
X7.Y-2.875
X7.Y-3.095
X7.Y-3.8742
X7.05Y-2.875
X7.05Y-3.165
X7.05Y-3.35
X7.05Y-3.65
X7.0744Y-3.7494
X7.075Y-2.8
X7.1Y-3.13
X7.1Y-3.425
X7.1006Y-2.4756
X7.1126Y-2.275
X7.125Y-2.575
X7.125Y-2.875
X7.125Y-3.165
X7.125Y-3.35
X7.15Y-3.8624
X7.175Y-2.3508
X7.175Y-3.095
X7.175Y-3.35
X7.1874Y-2.275
X7.2Y-2.8
X7.225Y-2.425
X7.225Y-2.475
X7.225Y-3.425
X7.275Y-2.425
X7.275Y-2.475
X7.275Y-2.875
X7.275Y-3.06
X7.35Y-2.55
X7.35Y-2.8
X7.375Y-3.425
X7.375Y-3.675
X7.45Y-3.06
X7.45Y-3.35
X7.45Y-3.75
X7.45Y-3.8
X7.5Y-2.2876
X7.5Y-2.8
X7.525Y-3.13
X7.525Y-3.425
X7.5376Y-3.95
X7.55Y-2.875
X7.55Y-3.095
X7.55Y-3.8742
X7.6Y-2.875
X7.6Y-3.165
X7.6Y-3.35
X7.6124Y-3.95
X7.6244Y-3.7494
X7.625Y-2.8
X7.65Y-3.13
X7.65Y-3.425
X7.65Y-3.7
X7.6506Y-2.4756
X7.6626Y-2.275
X7.675Y-2.575
X7.675Y-2.875
X7.675Y-3.165
X7.675Y-3.35
X7.7Y-3.8624
X7.725Y-2.3508
X7.725Y-3.095
X7.725Y-3.35
X7.7374Y-2.275
X7.75Y-2.8
X7.775Y-2.425
X7.775Y-3.425
X7.825Y-2.425
X7.825Y-2.875
X7.825Y-3.06
X7.9Y-2.55
X7.9Y-2.8
X7.925Y-3.425
X7.925Y-3.675
X8.Y-3.06
X8.Y-3.35
X8.Y-3.75
X8.Y-3.8
X8.05Y-2.8
X8.05Y-3.75
X8.05Y-3.8
X8.075Y-3.13
X8.075Y-3.425
X8.0876Y-3.95
X8.1Y-2.875
X8.1Y-3.095
X8.1Y-3.8742
X8.125Y-2.275
X8.125Y-2.3626
X8.15Y-2.875
X8.15Y-3.165
X8.15Y-3.35
X8.15Y-3.65
X8.175Y-2.275
X8.175Y-2.8
X8.225Y-3.875
X8.225Y-3.925
X8.25Y-2.35
X8.2715Y-2.5
X8.5Y-4.225
X8.7Y-4.225
X8.9Y-4.025
X8.9Y-4.225
T2
X5.1469Y-2.6935
X5.1469Y-2.7565
X5.2492Y-2.662
X5.2492Y-2.725
X5.2492Y-2.788
T3
X4.275Y-2.2
X4.275Y-2.3
X4.275Y-2.4
X4.275Y-2.5
X4.275Y-2.6
X4.275Y-2.7
X4.275Y-2.8
X4.275Y-2.9
X4.575Y-2.2
X4.575Y-2.3
X4.575Y-2.4
X4.575Y-2.5
X4.575Y-2.6
X4.575Y-2.7
X4.575Y-2.8
X4.575Y-2.9
T4
X4.35Y-3.75
X4.35Y-3.85
X4.275Y-3.5773
X4.375Y-3.5773
X4.475Y-3.5773
X4.575Y-3.5773
X4.675Y-3.5773
X4.775Y-3.5773
X4.875Y-3.5773
X8.85Y-2.35
X8.85Y-2.45
X8.85Y-2.55
X8.85Y-2.65
X8.85Y-2.75
X8.85Y-2.85
X8.85Y-2.95
X8.85Y-3.05
X8.85Y-3.15
X8.85Y-3.25
X8.85Y-3.35
X8.85Y-3.45
X8.95Y-2.35
X8.95Y-2.45
X8.95Y-2.55
X8.95Y-2.65
X8.95Y-2.75
X8.95Y-2.85
X8.95Y-2.95
X8.95Y-3.05
X8.95Y-3.15
X8.95Y-3.25
X8.95Y-3.35
X8.95Y-3.45
X4.975Y-2.125
X5.075Y-2.125
X5.175Y-2.125
X5.275Y-2.125
X5.375Y-2.125
X4.075Y-4.125
X4.075Y-4.225
X4.175Y-4.125
X4.175Y-4.225
X4.275Y-4.125
X4.275Y-4.225
X4.375Y-4.125
X4.375Y-4.225
X4.475Y-4.125
X4.475Y-4.225
X4.575Y-4.125
X4.575Y-4.225
X4.675Y-4.125
X4.675Y-4.225
X4.775Y-4.125
X4.775Y-4.225
X4.875Y-4.125
X4.875Y-4.225
X4.975Y-4.125
X4.975Y-4.225
X5.075Y-4.125
X5.075Y-4.225
X5.175Y-4.125
X5.175Y-4.225
X5.275Y-4.125
X5.275Y-4.225
X5.375Y-4.125
X5.375Y-4.225
X5.475Y-4.125
X5.475Y-4.225
X5.575Y-4.125
X5.575Y-4.225
X5.675Y-4.125
X5.675Y-4.225
X5.775Y-4.125
X5.775Y-4.225
X5.875Y-4.125
X5.875Y-4.225
X5.975Y-4.125
X5.975Y-4.225
X8.425Y-2.95
X8.425Y-3.05
X8.425Y-3.15
X8.425Y-3.25
X8.425Y-3.35
X8.425Y-3.45
X8.425Y-3.55
X8.425Y-3.65
X8.425Y-3.75
X8.425Y-3.85
X8.425Y-3.95
X8.425Y-4.05
X8.525Y-2.95
X8.525Y-3.05
X8.525Y-3.15
X8.525Y-3.25
X8.525Y-3.35
X8.525Y-3.45
X8.525Y-3.55
X8.525Y-3.65
X8.525Y-3.75
X8.525Y-3.85
X8.525Y-3.95
X8.525Y-4.05
T5
X3.925Y-3.65
X3.925Y-3.75
X3.925Y-3.85
X3.9289Y-3.95
T6
X3.88Y-4.175
X3.88Y-2.25
X9.15Y-2.25
X9.15Y-4.175
T0
M30
