G04 #@! TF.GenerationSoftware,KiCad,Pcbnew,5.0.2-bee76a0~70~ubuntu16.04.1*
G04 #@! TF.CreationDate,2020-09-03T14:52:49+02:00*
G04 #@! TF.ProjectId,ArgonCubeSlowControl,4172676f-6e43-4756-9265-536c6f77436f,rev?*
G04 #@! TF.SameCoordinates,Original*
G04 #@! TF.FileFunction,Paste,Top*
G04 #@! TF.FilePolarity,Positive*
%FSLAX46Y46*%
G04 Gerber Fmt 4.6, Leading zero omitted, Abs format (unit mm)*
G04 Created by KiCad (PCBNEW 5.0.2-bee76a0~70~ubuntu16.04.1) date Thu 03 Sep 2020 02:52:49 PM CEST*
%MOMM*%
%LPD*%
G01*
G04 APERTURE LIST*
%ADD10C,0.100000*%
%ADD11C,0.150000*%
%ADD12C,0.300000*%
%ADD13C,0.400000*%
%ADD14C,0.590000*%
%ADD15R,0.400000X0.700000*%
%ADD16R,0.400000X0.250000*%
%ADD17R,0.600000X1.900000*%
%ADD18R,1.000000X1.400000*%
%ADD19R,0.800000X1.350000*%
%ADD20R,1.500000X1.240000*%
%ADD21R,0.400000X1.200000*%
%ADD22R,0.900000X0.800000*%
%ADD23C,0.875000*%
%ADD24R,1.240000X1.500000*%
%ADD25C,0.975000*%
%ADD26R,1.200000X0.550000*%
%ADD27R,0.350000X0.950000*%
%ADD28R,0.950000X0.350000*%
G04 APERTURE END LIST*
D10*
D11*
X177002200Y-166007200D02*
X177002200Y-198007200D01*
X285002200Y-198007200D01*
X285002200Y-166007200D01*
X177002200Y-166007200D01*
D10*
D11*
X10000000Y-10000000D02*
X10000000Y-200007200D01*
X287002200Y-200007200D01*
X287002200Y-10000000D01*
X10000000Y-10000000D01*
D10*
D11*
X12000000Y-12000000D02*
X12000000Y-198007200D01*
X285002200Y-198007200D01*
X285002200Y-12000000D01*
X12000000Y-12000000D01*
D10*
D11*
X60000000Y-12000000D02*
X60000000Y-10000000D01*
D10*
D11*
X110000000Y-12000000D02*
X110000000Y-10000000D01*
D10*
D11*
X160000000Y-12000000D02*
X160000000Y-10000000D01*
D10*
D11*
X210000000Y-12000000D02*
X210000000Y-10000000D01*
D10*
D11*
X260000000Y-12000000D02*
X260000000Y-10000000D01*
D10*
D11*
X36065476Y-11588095D02*
X35322619Y-11588095D01*
X35694047Y-11588095D02*
X35694047Y-10288095D01*
X35570238Y-10473809D01*
X35446428Y-10597619D01*
X35322619Y-10659523D01*
D10*
D11*
X85322619Y-10411904D02*
X85384523Y-10350000D01*
X85508333Y-10288095D01*
X85817857Y-10288095D01*
X85941666Y-10350000D01*
X86003571Y-10411904D01*
X86065476Y-10535714D01*
X86065476Y-10659523D01*
X86003571Y-10845238D01*
X85260714Y-11588095D01*
X86065476Y-11588095D01*
D10*
D11*
X135260714Y-10288095D02*
X136065476Y-10288095D01*
X135632142Y-10783333D01*
X135817857Y-10783333D01*
X135941666Y-10845238D01*
X136003571Y-10907142D01*
X136065476Y-11030952D01*
X136065476Y-11340476D01*
X136003571Y-11464285D01*
X135941666Y-11526190D01*
X135817857Y-11588095D01*
X135446428Y-11588095D01*
X135322619Y-11526190D01*
X135260714Y-11464285D01*
D10*
D11*
X185941666Y-10721428D02*
X185941666Y-11588095D01*
X185632142Y-10226190D02*
X185322619Y-11154761D01*
X186127380Y-11154761D01*
D10*
D11*
X236003571Y-10288095D02*
X235384523Y-10288095D01*
X235322619Y-10907142D01*
X235384523Y-10845238D01*
X235508333Y-10783333D01*
X235817857Y-10783333D01*
X235941666Y-10845238D01*
X236003571Y-10907142D01*
X236065476Y-11030952D01*
X236065476Y-11340476D01*
X236003571Y-11464285D01*
X235941666Y-11526190D01*
X235817857Y-11588095D01*
X235508333Y-11588095D01*
X235384523Y-11526190D01*
X235322619Y-11464285D01*
D10*
D11*
X285941666Y-10288095D02*
X285694047Y-10288095D01*
X285570238Y-10350000D01*
X285508333Y-10411904D01*
X285384523Y-10597619D01*
X285322619Y-10845238D01*
X285322619Y-11340476D01*
X285384523Y-11464285D01*
X285446428Y-11526190D01*
X285570238Y-11588095D01*
X285817857Y-11588095D01*
X285941666Y-11526190D01*
X286003571Y-11464285D01*
X286065476Y-11340476D01*
X286065476Y-11030952D01*
X286003571Y-10907142D01*
X285941666Y-10845238D01*
X285817857Y-10783333D01*
X285570238Y-10783333D01*
X285446428Y-10845238D01*
X285384523Y-10907142D01*
X285322619Y-11030952D01*
D10*
D11*
X60000000Y-198007200D02*
X60000000Y-200007200D01*
D10*
D11*
X110000000Y-198007200D02*
X110000000Y-200007200D01*
D10*
D11*
X160000000Y-198007200D02*
X160000000Y-200007200D01*
D10*
D11*
X210000000Y-198007200D02*
X210000000Y-200007200D01*
D10*
D11*
X260000000Y-198007200D02*
X260000000Y-200007200D01*
D10*
D11*
X36065476Y-199595295D02*
X35322619Y-199595295D01*
X35694047Y-199595295D02*
X35694047Y-198295295D01*
X35570238Y-198481009D01*
X35446428Y-198604819D01*
X35322619Y-198666723D01*
D10*
D11*
X85322619Y-198419104D02*
X85384523Y-198357200D01*
X85508333Y-198295295D01*
X85817857Y-198295295D01*
X85941666Y-198357200D01*
X86003571Y-198419104D01*
X86065476Y-198542914D01*
X86065476Y-198666723D01*
X86003571Y-198852438D01*
X85260714Y-199595295D01*
X86065476Y-199595295D01*
D10*
D11*
X135260714Y-198295295D02*
X136065476Y-198295295D01*
X135632142Y-198790533D01*
X135817857Y-198790533D01*
X135941666Y-198852438D01*
X136003571Y-198914342D01*
X136065476Y-199038152D01*
X136065476Y-199347676D01*
X136003571Y-199471485D01*
X135941666Y-199533390D01*
X135817857Y-199595295D01*
X135446428Y-199595295D01*
X135322619Y-199533390D01*
X135260714Y-199471485D01*
D10*
D11*
X185941666Y-198728628D02*
X185941666Y-199595295D01*
X185632142Y-198233390D02*
X185322619Y-199161961D01*
X186127380Y-199161961D01*
D10*
D11*
X236003571Y-198295295D02*
X235384523Y-198295295D01*
X235322619Y-198914342D01*
X235384523Y-198852438D01*
X235508333Y-198790533D01*
X235817857Y-198790533D01*
X235941666Y-198852438D01*
X236003571Y-198914342D01*
X236065476Y-199038152D01*
X236065476Y-199347676D01*
X236003571Y-199471485D01*
X235941666Y-199533390D01*
X235817857Y-199595295D01*
X235508333Y-199595295D01*
X235384523Y-199533390D01*
X235322619Y-199471485D01*
D10*
D11*
X285941666Y-198295295D02*
X285694047Y-198295295D01*
X285570238Y-198357200D01*
X285508333Y-198419104D01*
X285384523Y-198604819D01*
X285322619Y-198852438D01*
X285322619Y-199347676D01*
X285384523Y-199471485D01*
X285446428Y-199533390D01*
X285570238Y-199595295D01*
X285817857Y-199595295D01*
X285941666Y-199533390D01*
X286003571Y-199471485D01*
X286065476Y-199347676D01*
X286065476Y-199038152D01*
X286003571Y-198914342D01*
X285941666Y-198852438D01*
X285817857Y-198790533D01*
X285570238Y-198790533D01*
X285446428Y-198852438D01*
X285384523Y-198914342D01*
X285322619Y-199038152D01*
D10*
D11*
X10000000Y-60000000D02*
X12000000Y-60000000D01*
D10*
D11*
X10000000Y-110000000D02*
X12000000Y-110000000D01*
D10*
D11*
X10000000Y-160000000D02*
X12000000Y-160000000D01*
D10*
D11*
X10690476Y-35216666D02*
X11309523Y-35216666D01*
X10566666Y-35588095D02*
X11000000Y-34288095D01*
X11433333Y-35588095D01*
D10*
D11*
X11092857Y-84907142D02*
X11278571Y-84969047D01*
X11340476Y-85030952D01*
X11402380Y-85154761D01*
X11402380Y-85340476D01*
X11340476Y-85464285D01*
X11278571Y-85526190D01*
X11154761Y-85588095D01*
X10659523Y-85588095D01*
X10659523Y-84288095D01*
X11092857Y-84288095D01*
X11216666Y-84350000D01*
X11278571Y-84411904D01*
X11340476Y-84535714D01*
X11340476Y-84659523D01*
X11278571Y-84783333D01*
X11216666Y-84845238D01*
X11092857Y-84907142D01*
X10659523Y-84907142D01*
D10*
D11*
X11402380Y-135464285D02*
X11340476Y-135526190D01*
X11154761Y-135588095D01*
X11030952Y-135588095D01*
X10845238Y-135526190D01*
X10721428Y-135402380D01*
X10659523Y-135278571D01*
X10597619Y-135030952D01*
X10597619Y-134845238D01*
X10659523Y-134597619D01*
X10721428Y-134473809D01*
X10845238Y-134350000D01*
X11030952Y-134288095D01*
X11154761Y-134288095D01*
X11340476Y-134350000D01*
X11402380Y-134411904D01*
D10*
D11*
X10659523Y-185588095D02*
X10659523Y-184288095D01*
X10969047Y-184288095D01*
X11154761Y-184350000D01*
X11278571Y-184473809D01*
X11340476Y-184597619D01*
X11402380Y-184845238D01*
X11402380Y-185030952D01*
X11340476Y-185278571D01*
X11278571Y-185402380D01*
X11154761Y-185526190D01*
X10969047Y-185588095D01*
X10659523Y-185588095D01*
D10*
D11*
X287002200Y-60000000D02*
X285002200Y-60000000D01*
D10*
D11*
X287002200Y-110000000D02*
X285002200Y-110000000D01*
D10*
D11*
X287002200Y-160000000D02*
X285002200Y-160000000D01*
D10*
D11*
X285692676Y-35216666D02*
X286311723Y-35216666D01*
X285568866Y-35588095D02*
X286002200Y-34288095D01*
X286435533Y-35588095D01*
D10*
D11*
X286095057Y-84907142D02*
X286280771Y-84969047D01*
X286342676Y-85030952D01*
X286404580Y-85154761D01*
X286404580Y-85340476D01*
X286342676Y-85464285D01*
X286280771Y-85526190D01*
X286156961Y-85588095D01*
X285661723Y-85588095D01*
X285661723Y-84288095D01*
X286095057Y-84288095D01*
X286218866Y-84350000D01*
X286280771Y-84411904D01*
X286342676Y-84535714D01*
X286342676Y-84659523D01*
X286280771Y-84783333D01*
X286218866Y-84845238D01*
X286095057Y-84907142D01*
X285661723Y-84907142D01*
D10*
D11*
X286404580Y-135464285D02*
X286342676Y-135526190D01*
X286156961Y-135588095D01*
X286033152Y-135588095D01*
X285847438Y-135526190D01*
X285723628Y-135402380D01*
X285661723Y-135278571D01*
X285599819Y-135030952D01*
X285599819Y-134845238D01*
X285661723Y-134597619D01*
X285723628Y-134473809D01*
X285847438Y-134350000D01*
X286033152Y-134288095D01*
X286156961Y-134288095D01*
X286342676Y-134350000D01*
X286404580Y-134411904D01*
D10*
D11*
X285661723Y-185588095D02*
X285661723Y-184288095D01*
X285971247Y-184288095D01*
X286156961Y-184350000D01*
X286280771Y-184473809D01*
X286342676Y-184597619D01*
X286404580Y-184845238D01*
X286404580Y-185030952D01*
X286342676Y-185278571D01*
X286280771Y-185402380D01*
X286156961Y-185526190D01*
X285971247Y-185588095D01*
X285661723Y-185588095D01*
D10*
D11*
X200434342Y-193785771D02*
X200434342Y-192285771D01*
X200791485Y-192285771D01*
X201005771Y-192357200D01*
X201148628Y-192500057D01*
X201220057Y-192642914D01*
X201291485Y-192928628D01*
X201291485Y-193142914D01*
X201220057Y-193428628D01*
X201148628Y-193571485D01*
X201005771Y-193714342D01*
X200791485Y-193785771D01*
X200434342Y-193785771D01*
X202577200Y-193785771D02*
X202577200Y-193000057D01*
X202505771Y-192857200D01*
X202362914Y-192785771D01*
X202077200Y-192785771D01*
X201934342Y-192857200D01*
X202577200Y-193714342D02*
X202434342Y-193785771D01*
X202077200Y-193785771D01*
X201934342Y-193714342D01*
X201862914Y-193571485D01*
X201862914Y-193428628D01*
X201934342Y-193285771D01*
X202077200Y-193214342D01*
X202434342Y-193214342D01*
X202577200Y-193142914D01*
X203077200Y-192785771D02*
X203648628Y-192785771D01*
X203291485Y-192285771D02*
X203291485Y-193571485D01*
X203362914Y-193714342D01*
X203505771Y-193785771D01*
X203648628Y-193785771D01*
X204720057Y-193714342D02*
X204577200Y-193785771D01*
X204291485Y-193785771D01*
X204148628Y-193714342D01*
X204077200Y-193571485D01*
X204077200Y-193000057D01*
X204148628Y-192857200D01*
X204291485Y-192785771D01*
X204577200Y-192785771D01*
X204720057Y-192857200D01*
X204791485Y-193000057D01*
X204791485Y-193142914D01*
X204077200Y-193285771D01*
X205434342Y-193642914D02*
X205505771Y-193714342D01*
X205434342Y-193785771D01*
X205362914Y-193714342D01*
X205434342Y-193642914D01*
X205434342Y-193785771D01*
X205434342Y-192857200D02*
X205505771Y-192928628D01*
X205434342Y-193000057D01*
X205362914Y-192928628D01*
X205434342Y-192857200D01*
X205434342Y-193000057D01*
D10*
D11*
X177002200Y-194507200D02*
X285002200Y-194507200D01*
D10*
D11*
X178434342Y-196585771D02*
X178434342Y-195085771D01*
X179291485Y-196585771D02*
X178648628Y-195728628D01*
X179291485Y-195085771D02*
X178434342Y-195942914D01*
X179934342Y-196585771D02*
X179934342Y-195585771D01*
X179934342Y-195085771D02*
X179862914Y-195157200D01*
X179934342Y-195228628D01*
X180005771Y-195157200D01*
X179934342Y-195085771D01*
X179934342Y-195228628D01*
X181505771Y-196442914D02*
X181434342Y-196514342D01*
X181220057Y-196585771D01*
X181077200Y-196585771D01*
X180862914Y-196514342D01*
X180720057Y-196371485D01*
X180648628Y-196228628D01*
X180577200Y-195942914D01*
X180577200Y-195728628D01*
X180648628Y-195442914D01*
X180720057Y-195300057D01*
X180862914Y-195157200D01*
X181077200Y-195085771D01*
X181220057Y-195085771D01*
X181434342Y-195157200D01*
X181505771Y-195228628D01*
X182791485Y-196585771D02*
X182791485Y-195800057D01*
X182720057Y-195657200D01*
X182577200Y-195585771D01*
X182291485Y-195585771D01*
X182148628Y-195657200D01*
X182791485Y-196514342D02*
X182648628Y-196585771D01*
X182291485Y-196585771D01*
X182148628Y-196514342D01*
X182077200Y-196371485D01*
X182077200Y-196228628D01*
X182148628Y-196085771D01*
X182291485Y-196014342D01*
X182648628Y-196014342D01*
X182791485Y-195942914D01*
X184148628Y-196585771D02*
X184148628Y-195085771D01*
X184148628Y-196514342D02*
X184005771Y-196585771D01*
X183720057Y-196585771D01*
X183577200Y-196514342D01*
X183505771Y-196442914D01*
X183434342Y-196300057D01*
X183434342Y-195871485D01*
X183505771Y-195728628D01*
X183577200Y-195657200D01*
X183720057Y-195585771D01*
X184005771Y-195585771D01*
X184148628Y-195657200D01*
X186005771Y-195800057D02*
X186505771Y-195800057D01*
X186720057Y-196585771D02*
X186005771Y-196585771D01*
X186005771Y-195085771D01*
X186720057Y-195085771D01*
X187362914Y-196442914D02*
X187434342Y-196514342D01*
X187362914Y-196585771D01*
X187291485Y-196514342D01*
X187362914Y-196442914D01*
X187362914Y-196585771D01*
X188077200Y-196585771D02*
X188077200Y-195085771D01*
X188434342Y-195085771D01*
X188648628Y-195157200D01*
X188791485Y-195300057D01*
X188862914Y-195442914D01*
X188934342Y-195728628D01*
X188934342Y-195942914D01*
X188862914Y-196228628D01*
X188791485Y-196371485D01*
X188648628Y-196514342D01*
X188434342Y-196585771D01*
X188077200Y-196585771D01*
X189577200Y-196442914D02*
X189648628Y-196514342D01*
X189577200Y-196585771D01*
X189505771Y-196514342D01*
X189577200Y-196442914D01*
X189577200Y-196585771D01*
X190220057Y-196157200D02*
X190934342Y-196157200D01*
X190077200Y-196585771D02*
X190577200Y-195085771D01*
X191077200Y-196585771D01*
X191577200Y-196442914D02*
X191648628Y-196514342D01*
X191577200Y-196585771D01*
X191505771Y-196514342D01*
X191577200Y-196442914D01*
X191577200Y-196585771D01*
X194577200Y-196585771D02*
X194577200Y-195085771D01*
X194720057Y-196014342D02*
X195148628Y-196585771D01*
X195148628Y-195585771D02*
X194577200Y-196157200D01*
X195791485Y-196585771D02*
X195791485Y-195585771D01*
X195791485Y-195085771D02*
X195720057Y-195157200D01*
X195791485Y-195228628D01*
X195862914Y-195157200D01*
X195791485Y-195085771D01*
X195791485Y-195228628D01*
X197148628Y-196514342D02*
X197005771Y-196585771D01*
X196720057Y-196585771D01*
X196577200Y-196514342D01*
X196505771Y-196442914D01*
X196434342Y-196300057D01*
X196434342Y-195871485D01*
X196505771Y-195728628D01*
X196577200Y-195657200D01*
X196720057Y-195585771D01*
X197005771Y-195585771D01*
X197148628Y-195657200D01*
X198434342Y-196585771D02*
X198434342Y-195800057D01*
X198362914Y-195657200D01*
X198220057Y-195585771D01*
X197934342Y-195585771D01*
X197791485Y-195657200D01*
X198434342Y-196514342D02*
X198291485Y-196585771D01*
X197934342Y-196585771D01*
X197791485Y-196514342D01*
X197720057Y-196371485D01*
X197720057Y-196228628D01*
X197791485Y-196085771D01*
X197934342Y-196014342D01*
X198291485Y-196014342D01*
X198434342Y-195942914D01*
X199791485Y-196585771D02*
X199791485Y-195085771D01*
X199791485Y-196514342D02*
X199648628Y-196585771D01*
X199362914Y-196585771D01*
X199220057Y-196514342D01*
X199148628Y-196442914D01*
X199077200Y-196300057D01*
X199077200Y-195871485D01*
X199148628Y-195728628D01*
X199220057Y-195657200D01*
X199362914Y-195585771D01*
X199648628Y-195585771D01*
X199791485Y-195657200D01*
X202362914Y-195085771D02*
X201648628Y-195085771D01*
X201577200Y-195800057D01*
X201648628Y-195728628D01*
X201791485Y-195657200D01*
X202148628Y-195657200D01*
X202291485Y-195728628D01*
X202362914Y-195800057D01*
X202434342Y-195942914D01*
X202434342Y-196300057D01*
X202362914Y-196442914D01*
X202291485Y-196514342D01*
X202148628Y-196585771D01*
X201791485Y-196585771D01*
X201648628Y-196514342D01*
X201577200Y-196442914D01*
X203077200Y-196442914D02*
X203148628Y-196514342D01*
X203077200Y-196585771D01*
X203005771Y-196514342D01*
X203077200Y-196442914D01*
X203077200Y-196585771D01*
X204077200Y-195085771D02*
X204220057Y-195085771D01*
X204362914Y-195157200D01*
X204434342Y-195228628D01*
X204505771Y-195371485D01*
X204577200Y-195657200D01*
X204577200Y-196014342D01*
X204505771Y-196300057D01*
X204434342Y-196442914D01*
X204362914Y-196514342D01*
X204220057Y-196585771D01*
X204077200Y-196585771D01*
X203934342Y-196514342D01*
X203862914Y-196442914D01*
X203791485Y-196300057D01*
X203720057Y-196014342D01*
X203720057Y-195657200D01*
X203791485Y-195371485D01*
X203862914Y-195228628D01*
X203934342Y-195157200D01*
X204077200Y-195085771D01*
X205220057Y-196442914D02*
X205291485Y-196514342D01*
X205220057Y-196585771D01*
X205148628Y-196514342D01*
X205220057Y-196442914D01*
X205220057Y-196585771D01*
X205862914Y-195228628D02*
X205934342Y-195157200D01*
X206077200Y-195085771D01*
X206434342Y-195085771D01*
X206577200Y-195157200D01*
X206648628Y-195228628D01*
X206720057Y-195371485D01*
X206720057Y-195514342D01*
X206648628Y-195728628D01*
X205791485Y-196585771D01*
X206720057Y-196585771D01*
X207362914Y-196014342D02*
X208505771Y-196014342D01*
X209220057Y-196585771D02*
X209220057Y-195085771D01*
X209220057Y-195657200D02*
X209362914Y-195585771D01*
X209648628Y-195585771D01*
X209791485Y-195657200D01*
X209862914Y-195728628D01*
X209934342Y-195871485D01*
X209934342Y-196300057D01*
X209862914Y-196442914D01*
X209791485Y-196514342D01*
X209648628Y-196585771D01*
X209362914Y-196585771D01*
X209220057Y-196514342D01*
X211148628Y-196514342D02*
X211005771Y-196585771D01*
X210720057Y-196585771D01*
X210577200Y-196514342D01*
X210505771Y-196371485D01*
X210505771Y-195800057D01*
X210577200Y-195657200D01*
X210720057Y-195585771D01*
X211005771Y-195585771D01*
X211148628Y-195657200D01*
X211220057Y-195800057D01*
X211220057Y-195942914D01*
X210505771Y-196085771D01*
X212434342Y-196514342D02*
X212291485Y-196585771D01*
X212005771Y-196585771D01*
X211862914Y-196514342D01*
X211791485Y-196371485D01*
X211791485Y-195800057D01*
X211862914Y-195657200D01*
X212005771Y-195585771D01*
X212291485Y-195585771D01*
X212434342Y-195657200D01*
X212505771Y-195800057D01*
X212505771Y-195942914D01*
X211791485Y-196085771D01*
X213005771Y-195085771D02*
X214005771Y-195085771D01*
X213362914Y-196585771D01*
X215220057Y-195085771D02*
X214934342Y-195085771D01*
X214791485Y-195157200D01*
X214720057Y-195228628D01*
X214577200Y-195442914D01*
X214505771Y-195728628D01*
X214505771Y-196300057D01*
X214577200Y-196442914D01*
X214648628Y-196514342D01*
X214791485Y-196585771D01*
X215077200Y-196585771D01*
X215220057Y-196514342D01*
X215291485Y-196442914D01*
X215362914Y-196300057D01*
X215362914Y-195942914D01*
X215291485Y-195800057D01*
X215220057Y-195728628D01*
X215077200Y-195657200D01*
X214791485Y-195657200D01*
X214648628Y-195728628D01*
X214577200Y-195800057D01*
X214505771Y-195942914D01*
X216648628Y-196585771D02*
X216648628Y-195800057D01*
X216577200Y-195657200D01*
X216434342Y-195585771D01*
X216148628Y-195585771D01*
X216005771Y-195657200D01*
X216648628Y-196514342D02*
X216505771Y-196585771D01*
X216148628Y-196585771D01*
X216005771Y-196514342D01*
X215934342Y-196371485D01*
X215934342Y-196228628D01*
X216005771Y-196085771D01*
X216148628Y-196014342D01*
X216505771Y-196014342D01*
X216648628Y-195942914D01*
X217648628Y-195085771D02*
X217791485Y-195085771D01*
X217934342Y-195157200D01*
X218005771Y-195228628D01*
X218077200Y-195371485D01*
X218148628Y-195657200D01*
X218148628Y-196014342D01*
X218077200Y-196300057D01*
X218005771Y-196442914D01*
X217934342Y-196514342D01*
X217791485Y-196585771D01*
X217648628Y-196585771D01*
X217505771Y-196514342D01*
X217434342Y-196442914D01*
X217362914Y-196300057D01*
X217291485Y-196014342D01*
X217291485Y-195657200D01*
X217362914Y-195371485D01*
X217434342Y-195228628D01*
X217505771Y-195157200D01*
X217648628Y-195085771D01*
X218434342Y-194677200D02*
X219862914Y-194677200D01*
X218648628Y-195085771D02*
X219648628Y-195085771D01*
X219005771Y-196585771D01*
X219862914Y-194677200D02*
X221291485Y-194677200D01*
X220505771Y-195085771D02*
X220648628Y-195085771D01*
X220791485Y-195157200D01*
X220862914Y-195228628D01*
X220934342Y-195371485D01*
X221005771Y-195657200D01*
X221005771Y-196014342D01*
X220934342Y-196300057D01*
X220862914Y-196442914D01*
X220791485Y-196514342D01*
X220648628Y-196585771D01*
X220505771Y-196585771D01*
X220362914Y-196514342D01*
X220291485Y-196442914D01*
X220220057Y-196300057D01*
X220148628Y-196014342D01*
X220148628Y-195657200D01*
X220220057Y-195371485D01*
X220291485Y-195228628D01*
X220362914Y-195157200D01*
X220505771Y-195085771D01*
X222291485Y-195585771D02*
X222291485Y-196585771D01*
X221648628Y-195585771D02*
X221648628Y-196371485D01*
X221720057Y-196514342D01*
X221862914Y-196585771D01*
X222077200Y-196585771D01*
X222220057Y-196514342D01*
X222291485Y-196442914D01*
X223005771Y-196585771D02*
X223005771Y-195085771D01*
X223005771Y-195657200D02*
X223148628Y-195585771D01*
X223434342Y-195585771D01*
X223577200Y-195657200D01*
X223648628Y-195728628D01*
X223720057Y-195871485D01*
X223720057Y-196300057D01*
X223648628Y-196442914D01*
X223577200Y-196514342D01*
X223434342Y-196585771D01*
X223148628Y-196585771D01*
X223005771Y-196514342D01*
X225005771Y-195585771D02*
X225005771Y-196585771D01*
X224362914Y-195585771D02*
X224362914Y-196371485D01*
X224434342Y-196514342D01*
X224577200Y-196585771D01*
X224791485Y-196585771D01*
X224934342Y-196514342D01*
X225005771Y-196442914D01*
X225720057Y-195585771D02*
X225720057Y-196585771D01*
X225720057Y-195728628D02*
X225791485Y-195657200D01*
X225934342Y-195585771D01*
X226148628Y-195585771D01*
X226291485Y-195657200D01*
X226362914Y-195800057D01*
X226362914Y-196585771D01*
X226862914Y-195585771D02*
X227434342Y-195585771D01*
X227077200Y-195085771D02*
X227077200Y-196371485D01*
X227148628Y-196514342D01*
X227291485Y-196585771D01*
X227434342Y-196585771D01*
X228577200Y-195585771D02*
X228577200Y-196585771D01*
X227934342Y-195585771D02*
X227934342Y-196371485D01*
X228005771Y-196514342D01*
X228148628Y-196585771D01*
X228362914Y-196585771D01*
X228505771Y-196514342D01*
X228577200Y-196442914D01*
X230077200Y-196585771D02*
X229220057Y-196585771D01*
X229648628Y-196585771D02*
X229648628Y-195085771D01*
X229505771Y-195300057D01*
X229362914Y-195442914D01*
X229220057Y-195514342D01*
X231362914Y-195085771D02*
X231077200Y-195085771D01*
X230934342Y-195157200D01*
X230862914Y-195228628D01*
X230720057Y-195442914D01*
X230648628Y-195728628D01*
X230648628Y-196300057D01*
X230720057Y-196442914D01*
X230791485Y-196514342D01*
X230934342Y-196585771D01*
X231220057Y-196585771D01*
X231362914Y-196514342D01*
X231434342Y-196442914D01*
X231505771Y-196300057D01*
X231505771Y-195942914D01*
X231434342Y-195800057D01*
X231362914Y-195728628D01*
X231220057Y-195657200D01*
X230934342Y-195657200D01*
X230791485Y-195728628D01*
X230720057Y-195800057D01*
X230648628Y-195942914D01*
X232148628Y-196442914D02*
X232220057Y-196514342D01*
X232148628Y-196585771D01*
X232077200Y-196514342D01*
X232148628Y-196442914D01*
X232148628Y-196585771D01*
X233148628Y-195085771D02*
X233291485Y-195085771D01*
X233434342Y-195157200D01*
X233505771Y-195228628D01*
X233577200Y-195371485D01*
X233648628Y-195657200D01*
X233648628Y-196014342D01*
X233577200Y-196300057D01*
X233505771Y-196442914D01*
X233434342Y-196514342D01*
X233291485Y-196585771D01*
X233148628Y-196585771D01*
X233005771Y-196514342D01*
X232934342Y-196442914D01*
X232862914Y-196300057D01*
X232791485Y-196014342D01*
X232791485Y-195657200D01*
X232862914Y-195371485D01*
X232934342Y-195228628D01*
X233005771Y-195157200D01*
X233148628Y-195085771D01*
X234934342Y-195585771D02*
X234934342Y-196585771D01*
X234577200Y-195014342D02*
X234220057Y-196085771D01*
X235148628Y-196085771D01*
X235720057Y-196442914D02*
X235791485Y-196514342D01*
X235720057Y-196585771D01*
X235648628Y-196514342D01*
X235720057Y-196442914D01*
X235720057Y-196585771D01*
X237220057Y-196585771D02*
X236362914Y-196585771D01*
X236791485Y-196585771D02*
X236791485Y-195085771D01*
X236648628Y-195300057D01*
X236505771Y-195442914D01*
X236362914Y-195514342D01*
D10*
D11*
X177002200Y-191507200D02*
X285002200Y-191507200D01*
D10*
D12*
X264411485Y-193785771D02*
X263911485Y-193071485D01*
X263554342Y-193785771D02*
X263554342Y-192285771D01*
X264125771Y-192285771D01*
X264268628Y-192357200D01*
X264340057Y-192428628D01*
X264411485Y-192571485D01*
X264411485Y-192785771D01*
X264340057Y-192928628D01*
X264268628Y-193000057D01*
X264125771Y-193071485D01*
X263554342Y-193071485D01*
X265625771Y-193714342D02*
X265482914Y-193785771D01*
X265197200Y-193785771D01*
X265054342Y-193714342D01*
X264982914Y-193571485D01*
X264982914Y-193000057D01*
X265054342Y-192857200D01*
X265197200Y-192785771D01*
X265482914Y-192785771D01*
X265625771Y-192857200D01*
X265697200Y-193000057D01*
X265697200Y-193142914D01*
X264982914Y-193285771D01*
X266197200Y-192785771D02*
X266554342Y-193785771D01*
X266911485Y-192785771D01*
X267482914Y-193642914D02*
X267554342Y-193714342D01*
X267482914Y-193785771D01*
X267411485Y-193714342D01*
X267482914Y-193642914D01*
X267482914Y-193785771D01*
X267482914Y-192857200D02*
X267554342Y-192928628D01*
X267482914Y-193000057D01*
X267411485Y-192928628D01*
X267482914Y-192857200D01*
X267482914Y-193000057D01*
D10*
D11*
X178362914Y-193714342D02*
X178577200Y-193785771D01*
X178934342Y-193785771D01*
X179077200Y-193714342D01*
X179148628Y-193642914D01*
X179220057Y-193500057D01*
X179220057Y-193357200D01*
X179148628Y-193214342D01*
X179077200Y-193142914D01*
X178934342Y-193071485D01*
X178648628Y-193000057D01*
X178505771Y-192928628D01*
X178434342Y-192857200D01*
X178362914Y-192714342D01*
X178362914Y-192571485D01*
X178434342Y-192428628D01*
X178505771Y-192357200D01*
X178648628Y-192285771D01*
X179005771Y-192285771D01*
X179220057Y-192357200D01*
X179862914Y-193785771D02*
X179862914Y-192785771D01*
X179862914Y-192285771D02*
X179791485Y-192357200D01*
X179862914Y-192428628D01*
X179934342Y-192357200D01*
X179862914Y-192285771D01*
X179862914Y-192428628D01*
X180434342Y-192785771D02*
X181220057Y-192785771D01*
X180434342Y-193785771D01*
X181220057Y-193785771D01*
X182362914Y-193714342D02*
X182220057Y-193785771D01*
X181934342Y-193785771D01*
X181791485Y-193714342D01*
X181720057Y-193571485D01*
X181720057Y-193000057D01*
X181791485Y-192857200D01*
X181934342Y-192785771D01*
X182220057Y-192785771D01*
X182362914Y-192857200D01*
X182434342Y-193000057D01*
X182434342Y-193142914D01*
X181720057Y-193285771D01*
X183077200Y-193642914D02*
X183148628Y-193714342D01*
X183077200Y-193785771D01*
X183005771Y-193714342D01*
X183077200Y-193642914D01*
X183077200Y-193785771D01*
X183077200Y-192857200D02*
X183148628Y-192928628D01*
X183077200Y-193000057D01*
X183005771Y-192928628D01*
X183077200Y-192857200D01*
X183077200Y-193000057D01*
X184862914Y-193357200D02*
X185577200Y-193357200D01*
X184720057Y-193785771D02*
X185220057Y-192285771D01*
X185720057Y-193785771D01*
X186862914Y-192785771D02*
X186862914Y-193785771D01*
X186505771Y-192214342D02*
X186148628Y-193285771D01*
X187077200Y-193285771D01*
D10*
D11*
X263434342Y-196585771D02*
X263434342Y-195085771D01*
X264791485Y-196585771D02*
X264791485Y-195085771D01*
X264791485Y-196514342D02*
X264648628Y-196585771D01*
X264362914Y-196585771D01*
X264220057Y-196514342D01*
X264148628Y-196442914D01*
X264077200Y-196300057D01*
X264077200Y-195871485D01*
X264148628Y-195728628D01*
X264220057Y-195657200D01*
X264362914Y-195585771D01*
X264648628Y-195585771D01*
X264791485Y-195657200D01*
X265505771Y-196442914D02*
X265577200Y-196514342D01*
X265505771Y-196585771D01*
X265434342Y-196514342D01*
X265505771Y-196442914D01*
X265505771Y-196585771D01*
X265505771Y-195657200D02*
X265577200Y-195728628D01*
X265505771Y-195800057D01*
X265434342Y-195728628D01*
X265505771Y-195657200D01*
X265505771Y-195800057D01*
X268148628Y-196585771D02*
X267291485Y-196585771D01*
X267720057Y-196585771D02*
X267720057Y-195085771D01*
X267577200Y-195300057D01*
X267434342Y-195442914D01*
X267291485Y-195514342D01*
X269862914Y-195014342D02*
X268577200Y-196942914D01*
X271148628Y-196585771D02*
X270291485Y-196585771D01*
X270720057Y-196585771D02*
X270720057Y-195085771D01*
X270577200Y-195300057D01*
X270434342Y-195442914D01*
X270291485Y-195514342D01*
D10*
D11*
X177002200Y-187507200D02*
X285002200Y-187507200D01*
D10*
D13*
X178714580Y-188211961D02*
X179857438Y-188211961D01*
X179036009Y-190211961D02*
X179286009Y-188211961D01*
X180274104Y-190211961D02*
X180440771Y-188878628D01*
X180524104Y-188211961D02*
X180416961Y-188307200D01*
X180500295Y-188402438D01*
X180607438Y-188307200D01*
X180524104Y-188211961D01*
X180500295Y-188402438D01*
X181107438Y-188878628D02*
X181869342Y-188878628D01*
X181476485Y-188211961D02*
X181262200Y-189926247D01*
X181333628Y-190116723D01*
X181512200Y-190211961D01*
X181702676Y-190211961D01*
X182655057Y-190211961D02*
X182476485Y-190116723D01*
X182405057Y-189926247D01*
X182619342Y-188211961D01*
X184190771Y-190116723D02*
X183988390Y-190211961D01*
X183607438Y-190211961D01*
X183428866Y-190116723D01*
X183357438Y-189926247D01*
X183452676Y-189164342D01*
X183571723Y-188973866D01*
X183774104Y-188878628D01*
X184155057Y-188878628D01*
X184333628Y-188973866D01*
X184405057Y-189164342D01*
X184381247Y-189354819D01*
X183405057Y-189545295D01*
X185155057Y-190021485D02*
X185238390Y-190116723D01*
X185131247Y-190211961D01*
X185047914Y-190116723D01*
X185155057Y-190021485D01*
X185131247Y-190211961D01*
X185286009Y-188973866D02*
X185369342Y-189069104D01*
X185262200Y-189164342D01*
X185178866Y-189069104D01*
X185286009Y-188973866D01*
X185262200Y-189164342D01*
D10*
D11*
X178934342Y-185600057D02*
X178434342Y-185600057D01*
X178434342Y-186385771D02*
X178434342Y-184885771D01*
X179148628Y-184885771D01*
X179720057Y-186385771D02*
X179720057Y-185385771D01*
X179720057Y-184885771D02*
X179648628Y-184957200D01*
X179720057Y-185028628D01*
X179791485Y-184957200D01*
X179720057Y-184885771D01*
X179720057Y-185028628D01*
X180648628Y-186385771D02*
X180505771Y-186314342D01*
X180434342Y-186171485D01*
X180434342Y-184885771D01*
X181791485Y-186314342D02*
X181648628Y-186385771D01*
X181362914Y-186385771D01*
X181220057Y-186314342D01*
X181148628Y-186171485D01*
X181148628Y-185600057D01*
X181220057Y-185457200D01*
X181362914Y-185385771D01*
X181648628Y-185385771D01*
X181791485Y-185457200D01*
X181862914Y-185600057D01*
X181862914Y-185742914D01*
X181148628Y-185885771D01*
X182505771Y-186242914D02*
X182577200Y-186314342D01*
X182505771Y-186385771D01*
X182434342Y-186314342D01*
X182505771Y-186242914D01*
X182505771Y-186385771D01*
X182505771Y-185457200D02*
X182577200Y-185528628D01*
X182505771Y-185600057D01*
X182434342Y-185528628D01*
X182505771Y-185457200D01*
X182505771Y-185600057D01*
X184291485Y-185957200D02*
X185005771Y-185957200D01*
X184148628Y-186385771D02*
X184648628Y-184885771D01*
X185148628Y-186385771D01*
X185648628Y-186385771D02*
X185648628Y-185385771D01*
X185648628Y-185671485D02*
X185720057Y-185528628D01*
X185791485Y-185457200D01*
X185934342Y-185385771D01*
X186077200Y-185385771D01*
X187220057Y-185385771D02*
X187220057Y-186600057D01*
X187148628Y-186742914D01*
X187077200Y-186814342D01*
X186934342Y-186885771D01*
X186720057Y-186885771D01*
X186577200Y-186814342D01*
X187220057Y-186314342D02*
X187077200Y-186385771D01*
X186791485Y-186385771D01*
X186648628Y-186314342D01*
X186577200Y-186242914D01*
X186505771Y-186100057D01*
X186505771Y-185671485D01*
X186577200Y-185528628D01*
X186648628Y-185457200D01*
X186791485Y-185385771D01*
X187077200Y-185385771D01*
X187220057Y-185457200D01*
X188148628Y-186385771D02*
X188005771Y-186314342D01*
X187934342Y-186242914D01*
X187862914Y-186100057D01*
X187862914Y-185671485D01*
X187934342Y-185528628D01*
X188005771Y-185457200D01*
X188148628Y-185385771D01*
X188362914Y-185385771D01*
X188505771Y-185457200D01*
X188577200Y-185528628D01*
X188648628Y-185671485D01*
X188648628Y-186100057D01*
X188577200Y-186242914D01*
X188505771Y-186314342D01*
X188362914Y-186385771D01*
X188148628Y-186385771D01*
X189291485Y-185385771D02*
X189291485Y-186385771D01*
X189291485Y-185528628D02*
X189362914Y-185457200D01*
X189505771Y-185385771D01*
X189720057Y-185385771D01*
X189862914Y-185457200D01*
X189934342Y-185600057D01*
X189934342Y-186385771D01*
X191505771Y-186242914D02*
X191434342Y-186314342D01*
X191220057Y-186385771D01*
X191077200Y-186385771D01*
X190862914Y-186314342D01*
X190720057Y-186171485D01*
X190648628Y-186028628D01*
X190577200Y-185742914D01*
X190577200Y-185528628D01*
X190648628Y-185242914D01*
X190720057Y-185100057D01*
X190862914Y-184957200D01*
X191077200Y-184885771D01*
X191220057Y-184885771D01*
X191434342Y-184957200D01*
X191505771Y-185028628D01*
X192791485Y-185385771D02*
X192791485Y-186385771D01*
X192148628Y-185385771D02*
X192148628Y-186171485D01*
X192220057Y-186314342D01*
X192362914Y-186385771D01*
X192577200Y-186385771D01*
X192720057Y-186314342D01*
X192791485Y-186242914D01*
X193505771Y-186385771D02*
X193505771Y-184885771D01*
X193505771Y-185457200D02*
X193648628Y-185385771D01*
X193934342Y-185385771D01*
X194077200Y-185457200D01*
X194148628Y-185528628D01*
X194220057Y-185671485D01*
X194220057Y-186100057D01*
X194148628Y-186242914D01*
X194077200Y-186314342D01*
X193934342Y-186385771D01*
X193648628Y-186385771D01*
X193505771Y-186314342D01*
X195434342Y-186314342D02*
X195291485Y-186385771D01*
X195005771Y-186385771D01*
X194862914Y-186314342D01*
X194791485Y-186171485D01*
X194791485Y-185600057D01*
X194862914Y-185457200D01*
X195005771Y-185385771D01*
X195291485Y-185385771D01*
X195434342Y-185457200D01*
X195505771Y-185600057D01*
X195505771Y-185742914D01*
X194791485Y-185885771D01*
X196077200Y-186314342D02*
X196291485Y-186385771D01*
X196648628Y-186385771D01*
X196791485Y-186314342D01*
X196862914Y-186242914D01*
X196934342Y-186100057D01*
X196934342Y-185957200D01*
X196862914Y-185814342D01*
X196791485Y-185742914D01*
X196648628Y-185671485D01*
X196362914Y-185600057D01*
X196220057Y-185528628D01*
X196148628Y-185457200D01*
X196077200Y-185314342D01*
X196077200Y-185171485D01*
X196148628Y-185028628D01*
X196220057Y-184957200D01*
X196362914Y-184885771D01*
X196720057Y-184885771D01*
X196934342Y-184957200D01*
X197791485Y-186385771D02*
X197648628Y-186314342D01*
X197577200Y-186171485D01*
X197577200Y-184885771D01*
X198577200Y-186385771D02*
X198434342Y-186314342D01*
X198362914Y-186242914D01*
X198291485Y-186100057D01*
X198291485Y-185671485D01*
X198362914Y-185528628D01*
X198434342Y-185457200D01*
X198577200Y-185385771D01*
X198791485Y-185385771D01*
X198934342Y-185457200D01*
X199005771Y-185528628D01*
X199077200Y-185671485D01*
X199077200Y-186100057D01*
X199005771Y-186242914D01*
X198934342Y-186314342D01*
X198791485Y-186385771D01*
X198577200Y-186385771D01*
X199577200Y-185385771D02*
X199862914Y-186385771D01*
X200148628Y-185671485D01*
X200434342Y-186385771D01*
X200720057Y-185385771D01*
X202148628Y-186242914D02*
X202077200Y-186314342D01*
X201862914Y-186385771D01*
X201720057Y-186385771D01*
X201505771Y-186314342D01*
X201362914Y-186171485D01*
X201291485Y-186028628D01*
X201220057Y-185742914D01*
X201220057Y-185528628D01*
X201291485Y-185242914D01*
X201362914Y-185100057D01*
X201505771Y-184957200D01*
X201720057Y-184885771D01*
X201862914Y-184885771D01*
X202077200Y-184957200D01*
X202148628Y-185028628D01*
X203005771Y-186385771D02*
X202862914Y-186314342D01*
X202791485Y-186242914D01*
X202720057Y-186100057D01*
X202720057Y-185671485D01*
X202791485Y-185528628D01*
X202862914Y-185457200D01*
X203005771Y-185385771D01*
X203220057Y-185385771D01*
X203362914Y-185457200D01*
X203434342Y-185528628D01*
X203505771Y-185671485D01*
X203505771Y-186100057D01*
X203434342Y-186242914D01*
X203362914Y-186314342D01*
X203220057Y-186385771D01*
X203005771Y-186385771D01*
X204148628Y-185385771D02*
X204148628Y-186385771D01*
X204148628Y-185528628D02*
X204220057Y-185457200D01*
X204362914Y-185385771D01*
X204577200Y-185385771D01*
X204720057Y-185457200D01*
X204791485Y-185600057D01*
X204791485Y-186385771D01*
X205291485Y-185385771D02*
X205862914Y-185385771D01*
X205505771Y-184885771D02*
X205505771Y-186171485D01*
X205577200Y-186314342D01*
X205720057Y-186385771D01*
X205862914Y-186385771D01*
X206362914Y-186385771D02*
X206362914Y-185385771D01*
X206362914Y-185671485D02*
X206434342Y-185528628D01*
X206505771Y-185457200D01*
X206648628Y-185385771D01*
X206791485Y-185385771D01*
X207505771Y-186385771D02*
X207362914Y-186314342D01*
X207291485Y-186242914D01*
X207220057Y-186100057D01*
X207220057Y-185671485D01*
X207291485Y-185528628D01*
X207362914Y-185457200D01*
X207505771Y-185385771D01*
X207720057Y-185385771D01*
X207862914Y-185457200D01*
X207934342Y-185528628D01*
X208005771Y-185671485D01*
X208005771Y-186100057D01*
X207934342Y-186242914D01*
X207862914Y-186314342D01*
X207720057Y-186385771D01*
X207505771Y-186385771D01*
X208862914Y-186385771D02*
X208720057Y-186314342D01*
X208648628Y-186171485D01*
X208648628Y-184885771D01*
X209434342Y-186242914D02*
X209505771Y-186314342D01*
X209434342Y-186385771D01*
X209362914Y-186314342D01*
X209434342Y-186242914D01*
X209434342Y-186385771D01*
X210148628Y-186385771D02*
X210148628Y-184885771D01*
X210291485Y-185814342D02*
X210720057Y-186385771D01*
X210720057Y-185385771D02*
X210148628Y-185957200D01*
X211362914Y-186385771D02*
X211362914Y-185385771D01*
X211362914Y-184885771D02*
X211291485Y-184957200D01*
X211362914Y-185028628D01*
X211434342Y-184957200D01*
X211362914Y-184885771D01*
X211362914Y-185028628D01*
X212720057Y-186314342D02*
X212577200Y-186385771D01*
X212291485Y-186385771D01*
X212148628Y-186314342D01*
X212077200Y-186242914D01*
X212005771Y-186100057D01*
X212005771Y-185671485D01*
X212077200Y-185528628D01*
X212148628Y-185457200D01*
X212291485Y-185385771D01*
X212577200Y-185385771D01*
X212720057Y-185457200D01*
X214005771Y-186385771D02*
X214005771Y-185600057D01*
X213934342Y-185457200D01*
X213791485Y-185385771D01*
X213505771Y-185385771D01*
X213362914Y-185457200D01*
X214005771Y-186314342D02*
X213862914Y-186385771D01*
X213505771Y-186385771D01*
X213362914Y-186314342D01*
X213291485Y-186171485D01*
X213291485Y-186028628D01*
X213362914Y-185885771D01*
X213505771Y-185814342D01*
X213862914Y-185814342D01*
X214005771Y-185742914D01*
X215362914Y-186385771D02*
X215362914Y-184885771D01*
X215362914Y-186314342D02*
X215220057Y-186385771D01*
X214934342Y-186385771D01*
X214791485Y-186314342D01*
X214720057Y-186242914D01*
X214648628Y-186100057D01*
X214648628Y-185671485D01*
X214720057Y-185528628D01*
X214791485Y-185457200D01*
X214934342Y-185385771D01*
X215220057Y-185385771D01*
X215362914Y-185457200D01*
X215720057Y-186528628D02*
X216862914Y-186528628D01*
X217220057Y-185385771D02*
X217220057Y-186885771D01*
X217220057Y-185457200D02*
X217362914Y-185385771D01*
X217648628Y-185385771D01*
X217791485Y-185457200D01*
X217862914Y-185528628D01*
X217934342Y-185671485D01*
X217934342Y-186100057D01*
X217862914Y-186242914D01*
X217791485Y-186314342D01*
X217648628Y-186385771D01*
X217362914Y-186385771D01*
X217220057Y-186314342D01*
X219220057Y-186314342D02*
X219077200Y-186385771D01*
X218791485Y-186385771D01*
X218648628Y-186314342D01*
X218577200Y-186242914D01*
X218505771Y-186100057D01*
X218505771Y-185671485D01*
X218577200Y-185528628D01*
X218648628Y-185457200D01*
X218791485Y-185385771D01*
X219077200Y-185385771D01*
X219220057Y-185457200D01*
X219862914Y-186385771D02*
X219862914Y-184885771D01*
X219862914Y-185457200D02*
X220005771Y-185385771D01*
X220291485Y-185385771D01*
X220434342Y-185457200D01*
X220505771Y-185528628D01*
X220577200Y-185671485D01*
X220577200Y-186100057D01*
X220505771Y-186242914D01*
X220434342Y-186314342D01*
X220291485Y-186385771D01*
X220005771Y-186385771D01*
X219862914Y-186314342D01*
D10*
D11*
X177002200Y-181507200D02*
X285002200Y-181507200D01*
D10*
D11*
X178362914Y-183614342D02*
X178577200Y-183685771D01*
X178934342Y-183685771D01*
X179077200Y-183614342D01*
X179148628Y-183542914D01*
X179220057Y-183400057D01*
X179220057Y-183257200D01*
X179148628Y-183114342D01*
X179077200Y-183042914D01*
X178934342Y-182971485D01*
X178648628Y-182900057D01*
X178505771Y-182828628D01*
X178434342Y-182757200D01*
X178362914Y-182614342D01*
X178362914Y-182471485D01*
X178434342Y-182328628D01*
X178505771Y-182257200D01*
X178648628Y-182185771D01*
X179005771Y-182185771D01*
X179220057Y-182257200D01*
X179862914Y-183685771D02*
X179862914Y-182185771D01*
X180505771Y-183685771D02*
X180505771Y-182900057D01*
X180434342Y-182757200D01*
X180291485Y-182685771D01*
X180077200Y-182685771D01*
X179934342Y-182757200D01*
X179862914Y-182828628D01*
X181791485Y-183614342D02*
X181648628Y-183685771D01*
X181362914Y-183685771D01*
X181220057Y-183614342D01*
X181148628Y-183471485D01*
X181148628Y-182900057D01*
X181220057Y-182757200D01*
X181362914Y-182685771D01*
X181648628Y-182685771D01*
X181791485Y-182757200D01*
X181862914Y-182900057D01*
X181862914Y-183042914D01*
X181148628Y-183185771D01*
X183077200Y-183614342D02*
X182934342Y-183685771D01*
X182648628Y-183685771D01*
X182505771Y-183614342D01*
X182434342Y-183471485D01*
X182434342Y-182900057D01*
X182505771Y-182757200D01*
X182648628Y-182685771D01*
X182934342Y-182685771D01*
X183077200Y-182757200D01*
X183148628Y-182900057D01*
X183148628Y-183042914D01*
X182434342Y-183185771D01*
X183577200Y-182685771D02*
X184148628Y-182685771D01*
X183791485Y-182185771D02*
X183791485Y-183471485D01*
X183862914Y-183614342D01*
X184005771Y-183685771D01*
X184148628Y-183685771D01*
X184648628Y-183542914D02*
X184720057Y-183614342D01*
X184648628Y-183685771D01*
X184577200Y-183614342D01*
X184648628Y-183542914D01*
X184648628Y-183685771D01*
X184648628Y-182757200D02*
X184720057Y-182828628D01*
X184648628Y-182900057D01*
X184577200Y-182828628D01*
X184648628Y-182757200D01*
X184648628Y-182900057D01*
D10*
D11*
X197002200Y-191507200D02*
X197002200Y-194507200D01*
D10*
D11*
X261002200Y-191507200D02*
X261002200Y-198007200D01*
D10*
G04 #@! TO.C,U6*
G36*
X143764000Y-62484000D02*
X142494000Y-62484000D01*
X142494000Y-63754000D01*
X143764000Y-63754000D01*
X143764000Y-62484000D01*
G37*
G36*
X141986000Y-62484000D02*
X140716000Y-62484000D01*
X140716000Y-63754000D01*
X141986000Y-63754000D01*
X141986000Y-62484000D01*
G37*
G36*
X141986000Y-60706000D02*
X140716000Y-60706000D01*
X140716000Y-61976000D01*
X141986000Y-61976000D01*
X141986000Y-60706000D01*
G37*
G36*
X143764000Y-60706000D02*
X142494000Y-60706000D01*
X142494000Y-61976000D01*
X143764000Y-61976000D01*
X143764000Y-60706000D01*
G37*
G04 #@! TO.C,U7*
G36*
X157734000Y-62484000D02*
X156464000Y-62484000D01*
X156464000Y-63754000D01*
X157734000Y-63754000D01*
X157734000Y-62484000D01*
G37*
G36*
X155956000Y-62484000D02*
X154686000Y-62484000D01*
X154686000Y-63754000D01*
X155956000Y-63754000D01*
X155956000Y-62484000D01*
G37*
G36*
X155956000Y-60706000D02*
X154686000Y-60706000D01*
X154686000Y-61976000D01*
X155956000Y-61976000D01*
X155956000Y-60706000D01*
G37*
G36*
X157734000Y-60706000D02*
X156464000Y-60706000D01*
X156464000Y-61976000D01*
X157734000Y-61976000D01*
X157734000Y-60706000D01*
G37*
G04 #@! TO.C,U8*
G36*
X171704000Y-62484000D02*
X170434000Y-62484000D01*
X170434000Y-63754000D01*
X171704000Y-63754000D01*
X171704000Y-62484000D01*
G37*
G36*
X169926000Y-62484000D02*
X168656000Y-62484000D01*
X168656000Y-63754000D01*
X169926000Y-63754000D01*
X169926000Y-62484000D01*
G37*
G36*
X169926000Y-60706000D02*
X168656000Y-60706000D01*
X168656000Y-61976000D01*
X169926000Y-61976000D01*
X169926000Y-60706000D01*
G37*
G36*
X171704000Y-60706000D02*
X170434000Y-60706000D01*
X170434000Y-61976000D01*
X171704000Y-61976000D01*
X171704000Y-60706000D01*
G37*
G04 #@! TO.C,U9*
G36*
X185674000Y-62484000D02*
X184404000Y-62484000D01*
X184404000Y-63754000D01*
X185674000Y-63754000D01*
X185674000Y-62484000D01*
G37*
G36*
X183896000Y-62484000D02*
X182626000Y-62484000D01*
X182626000Y-63754000D01*
X183896000Y-63754000D01*
X183896000Y-62484000D01*
G37*
G36*
X183896000Y-60706000D02*
X182626000Y-60706000D01*
X182626000Y-61976000D01*
X183896000Y-61976000D01*
X183896000Y-60706000D01*
G37*
G36*
X185674000Y-60706000D02*
X184404000Y-60706000D01*
X184404000Y-61976000D01*
X185674000Y-61976000D01*
X185674000Y-60706000D01*
G37*
G04 #@! TO.C,U10*
G36*
X199644000Y-62484000D02*
X198374000Y-62484000D01*
X198374000Y-63754000D01*
X199644000Y-63754000D01*
X199644000Y-62484000D01*
G37*
G36*
X197866000Y-62484000D02*
X196596000Y-62484000D01*
X196596000Y-63754000D01*
X197866000Y-63754000D01*
X197866000Y-62484000D01*
G37*
G36*
X197866000Y-60706000D02*
X196596000Y-60706000D01*
X196596000Y-61976000D01*
X197866000Y-61976000D01*
X197866000Y-60706000D01*
G37*
G36*
X199644000Y-60706000D02*
X198374000Y-60706000D01*
X198374000Y-61976000D01*
X199644000Y-61976000D01*
X199644000Y-60706000D01*
G37*
G04 #@! TO.C,U11*
G36*
X202311000Y-97409000D02*
X203581000Y-97409000D01*
X203581000Y-96139000D01*
X202311000Y-96139000D01*
X202311000Y-97409000D01*
G37*
G36*
X204089000Y-97409000D02*
X205359000Y-97409000D01*
X205359000Y-96139000D01*
X204089000Y-96139000D01*
X204089000Y-97409000D01*
G37*
G36*
X204089000Y-95631000D02*
X205359000Y-95631000D01*
X205359000Y-94361000D01*
X204089000Y-94361000D01*
X204089000Y-95631000D01*
G37*
G36*
X202311000Y-95631000D02*
X203581000Y-95631000D01*
X203581000Y-94361000D01*
X202311000Y-94361000D01*
X202311000Y-95631000D01*
G37*
G04 #@! TO.C,U12*
G36*
X188341000Y-95631000D02*
X189611000Y-95631000D01*
X189611000Y-94361000D01*
X188341000Y-94361000D01*
X188341000Y-95631000D01*
G37*
G36*
X190119000Y-95631000D02*
X191389000Y-95631000D01*
X191389000Y-94361000D01*
X190119000Y-94361000D01*
X190119000Y-95631000D01*
G37*
G36*
X190119000Y-97409000D02*
X191389000Y-97409000D01*
X191389000Y-96139000D01*
X190119000Y-96139000D01*
X190119000Y-97409000D01*
G37*
G36*
X188341000Y-97409000D02*
X189611000Y-97409000D01*
X189611000Y-96139000D01*
X188341000Y-96139000D01*
X188341000Y-97409000D01*
G37*
G04 #@! TO.C,U13*
G36*
X174371000Y-95631000D02*
X175641000Y-95631000D01*
X175641000Y-94361000D01*
X174371000Y-94361000D01*
X174371000Y-95631000D01*
G37*
G36*
X176149000Y-95631000D02*
X177419000Y-95631000D01*
X177419000Y-94361000D01*
X176149000Y-94361000D01*
X176149000Y-95631000D01*
G37*
G36*
X176149000Y-97409000D02*
X177419000Y-97409000D01*
X177419000Y-96139000D01*
X176149000Y-96139000D01*
X176149000Y-97409000D01*
G37*
G36*
X174371000Y-97409000D02*
X175641000Y-97409000D01*
X175641000Y-96139000D01*
X174371000Y-96139000D01*
X174371000Y-97409000D01*
G37*
G04 #@! TO.C,U14*
G36*
X160401000Y-95631000D02*
X161671000Y-95631000D01*
X161671000Y-94361000D01*
X160401000Y-94361000D01*
X160401000Y-95631000D01*
G37*
G36*
X162179000Y-95631000D02*
X163449000Y-95631000D01*
X163449000Y-94361000D01*
X162179000Y-94361000D01*
X162179000Y-95631000D01*
G37*
G36*
X162179000Y-97409000D02*
X163449000Y-97409000D01*
X163449000Y-96139000D01*
X162179000Y-96139000D01*
X162179000Y-97409000D01*
G37*
G36*
X160401000Y-97409000D02*
X161671000Y-97409000D01*
X161671000Y-96139000D01*
X160401000Y-96139000D01*
X160401000Y-97409000D01*
G37*
G04 #@! TO.C,U15*
G36*
X146431000Y-95631000D02*
X147701000Y-95631000D01*
X147701000Y-94361000D01*
X146431000Y-94361000D01*
X146431000Y-95631000D01*
G37*
G36*
X148209000Y-95631000D02*
X149479000Y-95631000D01*
X149479000Y-94361000D01*
X148209000Y-94361000D01*
X148209000Y-95631000D01*
G37*
G36*
X148209000Y-97409000D02*
X149479000Y-97409000D01*
X149479000Y-96139000D01*
X148209000Y-96139000D01*
X148209000Y-97409000D01*
G37*
G36*
X146431000Y-97409000D02*
X147701000Y-97409000D01*
X147701000Y-96139000D01*
X146431000Y-96139000D01*
X146431000Y-97409000D01*
G37*
G04 #@! TD*
G04 #@! TO.C,D31*
G36*
X115756958Y-94655710D02*
X115771276Y-94657834D01*
X115785317Y-94661351D01*
X115798946Y-94666228D01*
X115812031Y-94672417D01*
X115824447Y-94679858D01*
X115836073Y-94688481D01*
X115846798Y-94698202D01*
X115856519Y-94708927D01*
X115865142Y-94720553D01*
X115872583Y-94732969D01*
X115878772Y-94746054D01*
X115883649Y-94759683D01*
X115887166Y-94773724D01*
X115889290Y-94788042D01*
X115890000Y-94802500D01*
X115890000Y-95097500D01*
X115889290Y-95111958D01*
X115887166Y-95126276D01*
X115883649Y-95140317D01*
X115878772Y-95153946D01*
X115872583Y-95167031D01*
X115865142Y-95179447D01*
X115856519Y-95191073D01*
X115846798Y-95201798D01*
X115836073Y-95211519D01*
X115824447Y-95220142D01*
X115812031Y-95227583D01*
X115798946Y-95233772D01*
X115785317Y-95238649D01*
X115771276Y-95242166D01*
X115756958Y-95244290D01*
X115742500Y-95245000D01*
X115397500Y-95245000D01*
X115383042Y-95244290D01*
X115368724Y-95242166D01*
X115354683Y-95238649D01*
X115341054Y-95233772D01*
X115327969Y-95227583D01*
X115315553Y-95220142D01*
X115303927Y-95211519D01*
X115293202Y-95201798D01*
X115283481Y-95191073D01*
X115274858Y-95179447D01*
X115267417Y-95167031D01*
X115261228Y-95153946D01*
X115256351Y-95140317D01*
X115252834Y-95126276D01*
X115250710Y-95111958D01*
X115250000Y-95097500D01*
X115250000Y-94802500D01*
X115250710Y-94788042D01*
X115252834Y-94773724D01*
X115256351Y-94759683D01*
X115261228Y-94746054D01*
X115267417Y-94732969D01*
X115274858Y-94720553D01*
X115283481Y-94708927D01*
X115293202Y-94698202D01*
X115303927Y-94688481D01*
X115315553Y-94679858D01*
X115327969Y-94672417D01*
X115341054Y-94666228D01*
X115354683Y-94661351D01*
X115368724Y-94657834D01*
X115383042Y-94655710D01*
X115397500Y-94655000D01*
X115742500Y-94655000D01*
X115756958Y-94655710D01*
X115756958Y-94655710D01*
G37*
D14*
X115570000Y-94950000D03*
D10*
G36*
X115756958Y-93685710D02*
X115771276Y-93687834D01*
X115785317Y-93691351D01*
X115798946Y-93696228D01*
X115812031Y-93702417D01*
X115824447Y-93709858D01*
X115836073Y-93718481D01*
X115846798Y-93728202D01*
X115856519Y-93738927D01*
X115865142Y-93750553D01*
X115872583Y-93762969D01*
X115878772Y-93776054D01*
X115883649Y-93789683D01*
X115887166Y-93803724D01*
X115889290Y-93818042D01*
X115890000Y-93832500D01*
X115890000Y-94127500D01*
X115889290Y-94141958D01*
X115887166Y-94156276D01*
X115883649Y-94170317D01*
X115878772Y-94183946D01*
X115872583Y-94197031D01*
X115865142Y-94209447D01*
X115856519Y-94221073D01*
X115846798Y-94231798D01*
X115836073Y-94241519D01*
X115824447Y-94250142D01*
X115812031Y-94257583D01*
X115798946Y-94263772D01*
X115785317Y-94268649D01*
X115771276Y-94272166D01*
X115756958Y-94274290D01*
X115742500Y-94275000D01*
X115397500Y-94275000D01*
X115383042Y-94274290D01*
X115368724Y-94272166D01*
X115354683Y-94268649D01*
X115341054Y-94263772D01*
X115327969Y-94257583D01*
X115315553Y-94250142D01*
X115303927Y-94241519D01*
X115293202Y-94231798D01*
X115283481Y-94221073D01*
X115274858Y-94209447D01*
X115267417Y-94197031D01*
X115261228Y-94183946D01*
X115256351Y-94170317D01*
X115252834Y-94156276D01*
X115250710Y-94141958D01*
X115250000Y-94127500D01*
X115250000Y-93832500D01*
X115250710Y-93818042D01*
X115252834Y-93803724D01*
X115256351Y-93789683D01*
X115261228Y-93776054D01*
X115267417Y-93762969D01*
X115274858Y-93750553D01*
X115283481Y-93738927D01*
X115293202Y-93728202D01*
X115303927Y-93718481D01*
X115315553Y-93709858D01*
X115327969Y-93702417D01*
X115341054Y-93696228D01*
X115354683Y-93691351D01*
X115368724Y-93687834D01*
X115383042Y-93685710D01*
X115397500Y-93685000D01*
X115742500Y-93685000D01*
X115756958Y-93685710D01*
X115756958Y-93685710D01*
G37*
D14*
X115570000Y-93980000D03*
G04 #@! TD*
D10*
G04 #@! TO.C,D32*
G36*
X115756958Y-97980710D02*
X115771276Y-97982834D01*
X115785317Y-97986351D01*
X115798946Y-97991228D01*
X115812031Y-97997417D01*
X115824447Y-98004858D01*
X115836073Y-98013481D01*
X115846798Y-98023202D01*
X115856519Y-98033927D01*
X115865142Y-98045553D01*
X115872583Y-98057969D01*
X115878772Y-98071054D01*
X115883649Y-98084683D01*
X115887166Y-98098724D01*
X115889290Y-98113042D01*
X115890000Y-98127500D01*
X115890000Y-98422500D01*
X115889290Y-98436958D01*
X115887166Y-98451276D01*
X115883649Y-98465317D01*
X115878772Y-98478946D01*
X115872583Y-98492031D01*
X115865142Y-98504447D01*
X115856519Y-98516073D01*
X115846798Y-98526798D01*
X115836073Y-98536519D01*
X115824447Y-98545142D01*
X115812031Y-98552583D01*
X115798946Y-98558772D01*
X115785317Y-98563649D01*
X115771276Y-98567166D01*
X115756958Y-98569290D01*
X115742500Y-98570000D01*
X115397500Y-98570000D01*
X115383042Y-98569290D01*
X115368724Y-98567166D01*
X115354683Y-98563649D01*
X115341054Y-98558772D01*
X115327969Y-98552583D01*
X115315553Y-98545142D01*
X115303927Y-98536519D01*
X115293202Y-98526798D01*
X115283481Y-98516073D01*
X115274858Y-98504447D01*
X115267417Y-98492031D01*
X115261228Y-98478946D01*
X115256351Y-98465317D01*
X115252834Y-98451276D01*
X115250710Y-98436958D01*
X115250000Y-98422500D01*
X115250000Y-98127500D01*
X115250710Y-98113042D01*
X115252834Y-98098724D01*
X115256351Y-98084683D01*
X115261228Y-98071054D01*
X115267417Y-98057969D01*
X115274858Y-98045553D01*
X115283481Y-98033927D01*
X115293202Y-98023202D01*
X115303927Y-98013481D01*
X115315553Y-98004858D01*
X115327969Y-97997417D01*
X115341054Y-97991228D01*
X115354683Y-97986351D01*
X115368724Y-97982834D01*
X115383042Y-97980710D01*
X115397500Y-97980000D01*
X115742500Y-97980000D01*
X115756958Y-97980710D01*
X115756958Y-97980710D01*
G37*
D14*
X115570000Y-98275000D03*
D10*
G36*
X115756958Y-97010710D02*
X115771276Y-97012834D01*
X115785317Y-97016351D01*
X115798946Y-97021228D01*
X115812031Y-97027417D01*
X115824447Y-97034858D01*
X115836073Y-97043481D01*
X115846798Y-97053202D01*
X115856519Y-97063927D01*
X115865142Y-97075553D01*
X115872583Y-97087969D01*
X115878772Y-97101054D01*
X115883649Y-97114683D01*
X115887166Y-97128724D01*
X115889290Y-97143042D01*
X115890000Y-97157500D01*
X115890000Y-97452500D01*
X115889290Y-97466958D01*
X115887166Y-97481276D01*
X115883649Y-97495317D01*
X115878772Y-97508946D01*
X115872583Y-97522031D01*
X115865142Y-97534447D01*
X115856519Y-97546073D01*
X115846798Y-97556798D01*
X115836073Y-97566519D01*
X115824447Y-97575142D01*
X115812031Y-97582583D01*
X115798946Y-97588772D01*
X115785317Y-97593649D01*
X115771276Y-97597166D01*
X115756958Y-97599290D01*
X115742500Y-97600000D01*
X115397500Y-97600000D01*
X115383042Y-97599290D01*
X115368724Y-97597166D01*
X115354683Y-97593649D01*
X115341054Y-97588772D01*
X115327969Y-97582583D01*
X115315553Y-97575142D01*
X115303927Y-97566519D01*
X115293202Y-97556798D01*
X115283481Y-97546073D01*
X115274858Y-97534447D01*
X115267417Y-97522031D01*
X115261228Y-97508946D01*
X115256351Y-97495317D01*
X115252834Y-97481276D01*
X115250710Y-97466958D01*
X115250000Y-97452500D01*
X115250000Y-97157500D01*
X115250710Y-97143042D01*
X115252834Y-97128724D01*
X115256351Y-97114683D01*
X115261228Y-97101054D01*
X115267417Y-97087969D01*
X115274858Y-97075553D01*
X115283481Y-97063927D01*
X115293202Y-97053202D01*
X115303927Y-97043481D01*
X115315553Y-97034858D01*
X115327969Y-97027417D01*
X115341054Y-97021228D01*
X115354683Y-97016351D01*
X115368724Y-97012834D01*
X115383042Y-97010710D01*
X115397500Y-97010000D01*
X115742500Y-97010000D01*
X115756958Y-97010710D01*
X115756958Y-97010710D01*
G37*
D14*
X115570000Y-97305000D03*
G04 #@! TD*
D15*
G04 #@! TO.C,Q1*
X99410000Y-88265000D03*
D16*
X98710000Y-88490000D03*
X98710000Y-88040000D03*
G04 #@! TD*
D17*
G04 #@! TO.C,U18*
X107928282Y-87213123D03*
X109198282Y-87213123D03*
X110468282Y-87213123D03*
X111738282Y-87213123D03*
X113008282Y-87213123D03*
X114278282Y-87213123D03*
X115548282Y-87213123D03*
X116818282Y-87213123D03*
X118088282Y-87213123D03*
X119358282Y-87213123D03*
X120628282Y-87213123D03*
X121898282Y-87213123D03*
X123168282Y-87213123D03*
X124438282Y-87213123D03*
X124438282Y-78003123D03*
X123168282Y-78003123D03*
X121898282Y-78003123D03*
X120628282Y-78003123D03*
X119358282Y-78003123D03*
X118088282Y-78003123D03*
X116818282Y-78003123D03*
X115548282Y-78003123D03*
X114278282Y-78003123D03*
X113008282Y-78003123D03*
X111738282Y-78003123D03*
X110468282Y-78003123D03*
X109198282Y-78003123D03*
X107928282Y-78003123D03*
G04 #@! TD*
D18*
G04 #@! TO.C,Q2*
X102298500Y-86085500D03*
X103248500Y-88285500D03*
X101348500Y-88285500D03*
G04 #@! TD*
D19*
G04 #@! TO.C,D1*
X139065000Y-67945000D03*
X139065000Y-70485000D03*
G04 #@! TD*
G04 #@! TO.C,D3*
X146685000Y-67945000D03*
X146685000Y-70485000D03*
G04 #@! TD*
D20*
G04 #@! TO.C,R3*
X140970000Y-69530000D03*
X140970000Y-67630000D03*
G04 #@! TD*
D19*
G04 #@! TO.C,D2*
X142875000Y-67945000D03*
X142875000Y-70485000D03*
G04 #@! TD*
D20*
G04 #@! TO.C,R2*
X148590000Y-69530000D03*
X148590000Y-67630000D03*
G04 #@! TD*
G04 #@! TO.C,R1*
X144780000Y-69530000D03*
X144780000Y-67630000D03*
G04 #@! TD*
D21*
G04 #@! TO.C,U17*
X118973955Y-67943123D03*
X119608955Y-67943123D03*
X120243955Y-67943123D03*
X120878955Y-67943123D03*
X121513955Y-67943123D03*
X122148955Y-67943123D03*
X122783955Y-67943123D03*
X123418955Y-67943123D03*
X123418955Y-73143123D03*
X122783955Y-73143123D03*
X122148955Y-73143123D03*
X121513955Y-73143123D03*
X120878955Y-73143123D03*
X120243955Y-73143123D03*
X119608955Y-73143123D03*
X118973955Y-73143123D03*
G04 #@! TD*
D22*
G04 #@! TO.C,U16*
X101235000Y-69215000D03*
X103235000Y-68265000D03*
X103235000Y-70165000D03*
G04 #@! TD*
D10*
G04 #@! TO.C,R47*
G36*
X103415191Y-89569053D02*
X103436426Y-89572203D01*
X103457250Y-89577419D01*
X103477462Y-89584651D01*
X103496868Y-89593830D01*
X103515281Y-89604866D01*
X103532524Y-89617654D01*
X103548430Y-89632070D01*
X103562846Y-89647976D01*
X103575634Y-89665219D01*
X103586670Y-89683632D01*
X103595849Y-89703038D01*
X103603081Y-89723250D01*
X103608297Y-89744074D01*
X103611447Y-89765309D01*
X103612500Y-89786750D01*
X103612500Y-90299250D01*
X103611447Y-90320691D01*
X103608297Y-90341926D01*
X103603081Y-90362750D01*
X103595849Y-90382962D01*
X103586670Y-90402368D01*
X103575634Y-90420781D01*
X103562846Y-90438024D01*
X103548430Y-90453930D01*
X103532524Y-90468346D01*
X103515281Y-90481134D01*
X103496868Y-90492170D01*
X103477462Y-90501349D01*
X103457250Y-90508581D01*
X103436426Y-90513797D01*
X103415191Y-90516947D01*
X103393750Y-90518000D01*
X102956250Y-90518000D01*
X102934809Y-90516947D01*
X102913574Y-90513797D01*
X102892750Y-90508581D01*
X102872538Y-90501349D01*
X102853132Y-90492170D01*
X102834719Y-90481134D01*
X102817476Y-90468346D01*
X102801570Y-90453930D01*
X102787154Y-90438024D01*
X102774366Y-90420781D01*
X102763330Y-90402368D01*
X102754151Y-90382962D01*
X102746919Y-90362750D01*
X102741703Y-90341926D01*
X102738553Y-90320691D01*
X102737500Y-90299250D01*
X102737500Y-89786750D01*
X102738553Y-89765309D01*
X102741703Y-89744074D01*
X102746919Y-89723250D01*
X102754151Y-89703038D01*
X102763330Y-89683632D01*
X102774366Y-89665219D01*
X102787154Y-89647976D01*
X102801570Y-89632070D01*
X102817476Y-89617654D01*
X102834719Y-89604866D01*
X102853132Y-89593830D01*
X102872538Y-89584651D01*
X102892750Y-89577419D01*
X102913574Y-89572203D01*
X102934809Y-89569053D01*
X102956250Y-89568000D01*
X103393750Y-89568000D01*
X103415191Y-89569053D01*
X103415191Y-89569053D01*
G37*
D23*
X103175000Y-90043000D03*
D10*
G36*
X101840191Y-89569053D02*
X101861426Y-89572203D01*
X101882250Y-89577419D01*
X101902462Y-89584651D01*
X101921868Y-89593830D01*
X101940281Y-89604866D01*
X101957524Y-89617654D01*
X101973430Y-89632070D01*
X101987846Y-89647976D01*
X102000634Y-89665219D01*
X102011670Y-89683632D01*
X102020849Y-89703038D01*
X102028081Y-89723250D01*
X102033297Y-89744074D01*
X102036447Y-89765309D01*
X102037500Y-89786750D01*
X102037500Y-90299250D01*
X102036447Y-90320691D01*
X102033297Y-90341926D01*
X102028081Y-90362750D01*
X102020849Y-90382962D01*
X102011670Y-90402368D01*
X102000634Y-90420781D01*
X101987846Y-90438024D01*
X101973430Y-90453930D01*
X101957524Y-90468346D01*
X101940281Y-90481134D01*
X101921868Y-90492170D01*
X101902462Y-90501349D01*
X101882250Y-90508581D01*
X101861426Y-90513797D01*
X101840191Y-90516947D01*
X101818750Y-90518000D01*
X101381250Y-90518000D01*
X101359809Y-90516947D01*
X101338574Y-90513797D01*
X101317750Y-90508581D01*
X101297538Y-90501349D01*
X101278132Y-90492170D01*
X101259719Y-90481134D01*
X101242476Y-90468346D01*
X101226570Y-90453930D01*
X101212154Y-90438024D01*
X101199366Y-90420781D01*
X101188330Y-90402368D01*
X101179151Y-90382962D01*
X101171919Y-90362750D01*
X101166703Y-90341926D01*
X101163553Y-90320691D01*
X101162500Y-90299250D01*
X101162500Y-89786750D01*
X101163553Y-89765309D01*
X101166703Y-89744074D01*
X101171919Y-89723250D01*
X101179151Y-89703038D01*
X101188330Y-89683632D01*
X101199366Y-89665219D01*
X101212154Y-89647976D01*
X101226570Y-89632070D01*
X101242476Y-89617654D01*
X101259719Y-89604866D01*
X101278132Y-89593830D01*
X101297538Y-89584651D01*
X101317750Y-89577419D01*
X101338574Y-89572203D01*
X101359809Y-89569053D01*
X101381250Y-89568000D01*
X101818750Y-89568000D01*
X101840191Y-89569053D01*
X101840191Y-89569053D01*
G37*
D23*
X101600000Y-90043000D03*
G04 #@! TD*
D10*
G04 #@! TO.C,R46*
G36*
X99337691Y-86076053D02*
X99358926Y-86079203D01*
X99379750Y-86084419D01*
X99399962Y-86091651D01*
X99419368Y-86100830D01*
X99437781Y-86111866D01*
X99455024Y-86124654D01*
X99470930Y-86139070D01*
X99485346Y-86154976D01*
X99498134Y-86172219D01*
X99509170Y-86190632D01*
X99518349Y-86210038D01*
X99525581Y-86230250D01*
X99530797Y-86251074D01*
X99533947Y-86272309D01*
X99535000Y-86293750D01*
X99535000Y-86731250D01*
X99533947Y-86752691D01*
X99530797Y-86773926D01*
X99525581Y-86794750D01*
X99518349Y-86814962D01*
X99509170Y-86834368D01*
X99498134Y-86852781D01*
X99485346Y-86870024D01*
X99470930Y-86885930D01*
X99455024Y-86900346D01*
X99437781Y-86913134D01*
X99419368Y-86924170D01*
X99399962Y-86933349D01*
X99379750Y-86940581D01*
X99358926Y-86945797D01*
X99337691Y-86948947D01*
X99316250Y-86950000D01*
X98803750Y-86950000D01*
X98782309Y-86948947D01*
X98761074Y-86945797D01*
X98740250Y-86940581D01*
X98720038Y-86933349D01*
X98700632Y-86924170D01*
X98682219Y-86913134D01*
X98664976Y-86900346D01*
X98649070Y-86885930D01*
X98634654Y-86870024D01*
X98621866Y-86852781D01*
X98610830Y-86834368D01*
X98601651Y-86814962D01*
X98594419Y-86794750D01*
X98589203Y-86773926D01*
X98586053Y-86752691D01*
X98585000Y-86731250D01*
X98585000Y-86293750D01*
X98586053Y-86272309D01*
X98589203Y-86251074D01*
X98594419Y-86230250D01*
X98601651Y-86210038D01*
X98610830Y-86190632D01*
X98621866Y-86172219D01*
X98634654Y-86154976D01*
X98649070Y-86139070D01*
X98664976Y-86124654D01*
X98682219Y-86111866D01*
X98700632Y-86100830D01*
X98720038Y-86091651D01*
X98740250Y-86084419D01*
X98761074Y-86079203D01*
X98782309Y-86076053D01*
X98803750Y-86075000D01*
X99316250Y-86075000D01*
X99337691Y-86076053D01*
X99337691Y-86076053D01*
G37*
D23*
X99060000Y-86512500D03*
D10*
G36*
X99337691Y-84501053D02*
X99358926Y-84504203D01*
X99379750Y-84509419D01*
X99399962Y-84516651D01*
X99419368Y-84525830D01*
X99437781Y-84536866D01*
X99455024Y-84549654D01*
X99470930Y-84564070D01*
X99485346Y-84579976D01*
X99498134Y-84597219D01*
X99509170Y-84615632D01*
X99518349Y-84635038D01*
X99525581Y-84655250D01*
X99530797Y-84676074D01*
X99533947Y-84697309D01*
X99535000Y-84718750D01*
X99535000Y-85156250D01*
X99533947Y-85177691D01*
X99530797Y-85198926D01*
X99525581Y-85219750D01*
X99518349Y-85239962D01*
X99509170Y-85259368D01*
X99498134Y-85277781D01*
X99485346Y-85295024D01*
X99470930Y-85310930D01*
X99455024Y-85325346D01*
X99437781Y-85338134D01*
X99419368Y-85349170D01*
X99399962Y-85358349D01*
X99379750Y-85365581D01*
X99358926Y-85370797D01*
X99337691Y-85373947D01*
X99316250Y-85375000D01*
X98803750Y-85375000D01*
X98782309Y-85373947D01*
X98761074Y-85370797D01*
X98740250Y-85365581D01*
X98720038Y-85358349D01*
X98700632Y-85349170D01*
X98682219Y-85338134D01*
X98664976Y-85325346D01*
X98649070Y-85310930D01*
X98634654Y-85295024D01*
X98621866Y-85277781D01*
X98610830Y-85259368D01*
X98601651Y-85239962D01*
X98594419Y-85219750D01*
X98589203Y-85198926D01*
X98586053Y-85177691D01*
X98585000Y-85156250D01*
X98585000Y-84718750D01*
X98586053Y-84697309D01*
X98589203Y-84676074D01*
X98594419Y-84655250D01*
X98601651Y-84635038D01*
X98610830Y-84615632D01*
X98621866Y-84597219D01*
X98634654Y-84579976D01*
X98649070Y-84564070D01*
X98664976Y-84549654D01*
X98682219Y-84536866D01*
X98700632Y-84525830D01*
X98720038Y-84516651D01*
X98740250Y-84509419D01*
X98761074Y-84504203D01*
X98782309Y-84501053D01*
X98803750Y-84500000D01*
X99316250Y-84500000D01*
X99337691Y-84501053D01*
X99337691Y-84501053D01*
G37*
D23*
X99060000Y-84937500D03*
G04 #@! TD*
D10*
G04 #@! TO.C,R45*
G36*
X106300973Y-71166053D02*
X106322208Y-71169203D01*
X106343032Y-71174419D01*
X106363244Y-71181651D01*
X106382650Y-71190830D01*
X106401063Y-71201866D01*
X106418306Y-71214654D01*
X106434212Y-71229070D01*
X106448628Y-71244976D01*
X106461416Y-71262219D01*
X106472452Y-71280632D01*
X106481631Y-71300038D01*
X106488863Y-71320250D01*
X106494079Y-71341074D01*
X106497229Y-71362309D01*
X106498282Y-71383750D01*
X106498282Y-71821250D01*
X106497229Y-71842691D01*
X106494079Y-71863926D01*
X106488863Y-71884750D01*
X106481631Y-71904962D01*
X106472452Y-71924368D01*
X106461416Y-71942781D01*
X106448628Y-71960024D01*
X106434212Y-71975930D01*
X106418306Y-71990346D01*
X106401063Y-72003134D01*
X106382650Y-72014170D01*
X106363244Y-72023349D01*
X106343032Y-72030581D01*
X106322208Y-72035797D01*
X106300973Y-72038947D01*
X106279532Y-72040000D01*
X105767032Y-72040000D01*
X105745591Y-72038947D01*
X105724356Y-72035797D01*
X105703532Y-72030581D01*
X105683320Y-72023349D01*
X105663914Y-72014170D01*
X105645501Y-72003134D01*
X105628258Y-71990346D01*
X105612352Y-71975930D01*
X105597936Y-71960024D01*
X105585148Y-71942781D01*
X105574112Y-71924368D01*
X105564933Y-71904962D01*
X105557701Y-71884750D01*
X105552485Y-71863926D01*
X105549335Y-71842691D01*
X105548282Y-71821250D01*
X105548282Y-71383750D01*
X105549335Y-71362309D01*
X105552485Y-71341074D01*
X105557701Y-71320250D01*
X105564933Y-71300038D01*
X105574112Y-71280632D01*
X105585148Y-71262219D01*
X105597936Y-71244976D01*
X105612352Y-71229070D01*
X105628258Y-71214654D01*
X105645501Y-71201866D01*
X105663914Y-71190830D01*
X105683320Y-71181651D01*
X105703532Y-71174419D01*
X105724356Y-71169203D01*
X105745591Y-71166053D01*
X105767032Y-71165000D01*
X106279532Y-71165000D01*
X106300973Y-71166053D01*
X106300973Y-71166053D01*
G37*
D23*
X106023282Y-71602500D03*
D10*
G36*
X106300973Y-72741053D02*
X106322208Y-72744203D01*
X106343032Y-72749419D01*
X106363244Y-72756651D01*
X106382650Y-72765830D01*
X106401063Y-72776866D01*
X106418306Y-72789654D01*
X106434212Y-72804070D01*
X106448628Y-72819976D01*
X106461416Y-72837219D01*
X106472452Y-72855632D01*
X106481631Y-72875038D01*
X106488863Y-72895250D01*
X106494079Y-72916074D01*
X106497229Y-72937309D01*
X106498282Y-72958750D01*
X106498282Y-73396250D01*
X106497229Y-73417691D01*
X106494079Y-73438926D01*
X106488863Y-73459750D01*
X106481631Y-73479962D01*
X106472452Y-73499368D01*
X106461416Y-73517781D01*
X106448628Y-73535024D01*
X106434212Y-73550930D01*
X106418306Y-73565346D01*
X106401063Y-73578134D01*
X106382650Y-73589170D01*
X106363244Y-73598349D01*
X106343032Y-73605581D01*
X106322208Y-73610797D01*
X106300973Y-73613947D01*
X106279532Y-73615000D01*
X105767032Y-73615000D01*
X105745591Y-73613947D01*
X105724356Y-73610797D01*
X105703532Y-73605581D01*
X105683320Y-73598349D01*
X105663914Y-73589170D01*
X105645501Y-73578134D01*
X105628258Y-73565346D01*
X105612352Y-73550930D01*
X105597936Y-73535024D01*
X105585148Y-73517781D01*
X105574112Y-73499368D01*
X105564933Y-73479962D01*
X105557701Y-73459750D01*
X105552485Y-73438926D01*
X105549335Y-73417691D01*
X105548282Y-73396250D01*
X105548282Y-72958750D01*
X105549335Y-72937309D01*
X105552485Y-72916074D01*
X105557701Y-72895250D01*
X105564933Y-72875038D01*
X105574112Y-72855632D01*
X105585148Y-72837219D01*
X105597936Y-72819976D01*
X105612352Y-72804070D01*
X105628258Y-72789654D01*
X105645501Y-72776866D01*
X105663914Y-72765830D01*
X105683320Y-72756651D01*
X105703532Y-72749419D01*
X105724356Y-72744203D01*
X105745591Y-72741053D01*
X105767032Y-72740000D01*
X106279532Y-72740000D01*
X106300973Y-72741053D01*
X106300973Y-72741053D01*
G37*
D23*
X106023282Y-73177500D03*
G04 #@! TD*
D10*
G04 #@! TO.C,R44*
G36*
X106300973Y-69566053D02*
X106322208Y-69569203D01*
X106343032Y-69574419D01*
X106363244Y-69581651D01*
X106382650Y-69590830D01*
X106401063Y-69601866D01*
X106418306Y-69614654D01*
X106434212Y-69629070D01*
X106448628Y-69644976D01*
X106461416Y-69662219D01*
X106472452Y-69680632D01*
X106481631Y-69700038D01*
X106488863Y-69720250D01*
X106494079Y-69741074D01*
X106497229Y-69762309D01*
X106498282Y-69783750D01*
X106498282Y-70221250D01*
X106497229Y-70242691D01*
X106494079Y-70263926D01*
X106488863Y-70284750D01*
X106481631Y-70304962D01*
X106472452Y-70324368D01*
X106461416Y-70342781D01*
X106448628Y-70360024D01*
X106434212Y-70375930D01*
X106418306Y-70390346D01*
X106401063Y-70403134D01*
X106382650Y-70414170D01*
X106363244Y-70423349D01*
X106343032Y-70430581D01*
X106322208Y-70435797D01*
X106300973Y-70438947D01*
X106279532Y-70440000D01*
X105767032Y-70440000D01*
X105745591Y-70438947D01*
X105724356Y-70435797D01*
X105703532Y-70430581D01*
X105683320Y-70423349D01*
X105663914Y-70414170D01*
X105645501Y-70403134D01*
X105628258Y-70390346D01*
X105612352Y-70375930D01*
X105597936Y-70360024D01*
X105585148Y-70342781D01*
X105574112Y-70324368D01*
X105564933Y-70304962D01*
X105557701Y-70284750D01*
X105552485Y-70263926D01*
X105549335Y-70242691D01*
X105548282Y-70221250D01*
X105548282Y-69783750D01*
X105549335Y-69762309D01*
X105552485Y-69741074D01*
X105557701Y-69720250D01*
X105564933Y-69700038D01*
X105574112Y-69680632D01*
X105585148Y-69662219D01*
X105597936Y-69644976D01*
X105612352Y-69629070D01*
X105628258Y-69614654D01*
X105645501Y-69601866D01*
X105663914Y-69590830D01*
X105683320Y-69581651D01*
X105703532Y-69574419D01*
X105724356Y-69569203D01*
X105745591Y-69566053D01*
X105767032Y-69565000D01*
X106279532Y-69565000D01*
X106300973Y-69566053D01*
X106300973Y-69566053D01*
G37*
D23*
X106023282Y-70002500D03*
D10*
G36*
X106300973Y-67991053D02*
X106322208Y-67994203D01*
X106343032Y-67999419D01*
X106363244Y-68006651D01*
X106382650Y-68015830D01*
X106401063Y-68026866D01*
X106418306Y-68039654D01*
X106434212Y-68054070D01*
X106448628Y-68069976D01*
X106461416Y-68087219D01*
X106472452Y-68105632D01*
X106481631Y-68125038D01*
X106488863Y-68145250D01*
X106494079Y-68166074D01*
X106497229Y-68187309D01*
X106498282Y-68208750D01*
X106498282Y-68646250D01*
X106497229Y-68667691D01*
X106494079Y-68688926D01*
X106488863Y-68709750D01*
X106481631Y-68729962D01*
X106472452Y-68749368D01*
X106461416Y-68767781D01*
X106448628Y-68785024D01*
X106434212Y-68800930D01*
X106418306Y-68815346D01*
X106401063Y-68828134D01*
X106382650Y-68839170D01*
X106363244Y-68848349D01*
X106343032Y-68855581D01*
X106322208Y-68860797D01*
X106300973Y-68863947D01*
X106279532Y-68865000D01*
X105767032Y-68865000D01*
X105745591Y-68863947D01*
X105724356Y-68860797D01*
X105703532Y-68855581D01*
X105683320Y-68848349D01*
X105663914Y-68839170D01*
X105645501Y-68828134D01*
X105628258Y-68815346D01*
X105612352Y-68800930D01*
X105597936Y-68785024D01*
X105585148Y-68767781D01*
X105574112Y-68749368D01*
X105564933Y-68729962D01*
X105557701Y-68709750D01*
X105552485Y-68688926D01*
X105549335Y-68667691D01*
X105548282Y-68646250D01*
X105548282Y-68208750D01*
X105549335Y-68187309D01*
X105552485Y-68166074D01*
X105557701Y-68145250D01*
X105564933Y-68125038D01*
X105574112Y-68105632D01*
X105585148Y-68087219D01*
X105597936Y-68069976D01*
X105612352Y-68054070D01*
X105628258Y-68039654D01*
X105645501Y-68026866D01*
X105663914Y-68015830D01*
X105683320Y-68006651D01*
X105703532Y-67999419D01*
X105724356Y-67994203D01*
X105745591Y-67991053D01*
X105767032Y-67990000D01*
X106279532Y-67990000D01*
X106300973Y-67991053D01*
X106300973Y-67991053D01*
G37*
D23*
X106023282Y-68427500D03*
G04 #@! TD*
D10*
G04 #@! TO.C,R43*
G36*
X106300973Y-86711053D02*
X106322208Y-86714203D01*
X106343032Y-86719419D01*
X106363244Y-86726651D01*
X106382650Y-86735830D01*
X106401063Y-86746866D01*
X106418306Y-86759654D01*
X106434212Y-86774070D01*
X106448628Y-86789976D01*
X106461416Y-86807219D01*
X106472452Y-86825632D01*
X106481631Y-86845038D01*
X106488863Y-86865250D01*
X106494079Y-86886074D01*
X106497229Y-86907309D01*
X106498282Y-86928750D01*
X106498282Y-87366250D01*
X106497229Y-87387691D01*
X106494079Y-87408926D01*
X106488863Y-87429750D01*
X106481631Y-87449962D01*
X106472452Y-87469368D01*
X106461416Y-87487781D01*
X106448628Y-87505024D01*
X106434212Y-87520930D01*
X106418306Y-87535346D01*
X106401063Y-87548134D01*
X106382650Y-87559170D01*
X106363244Y-87568349D01*
X106343032Y-87575581D01*
X106322208Y-87580797D01*
X106300973Y-87583947D01*
X106279532Y-87585000D01*
X105767032Y-87585000D01*
X105745591Y-87583947D01*
X105724356Y-87580797D01*
X105703532Y-87575581D01*
X105683320Y-87568349D01*
X105663914Y-87559170D01*
X105645501Y-87548134D01*
X105628258Y-87535346D01*
X105612352Y-87520930D01*
X105597936Y-87505024D01*
X105585148Y-87487781D01*
X105574112Y-87469368D01*
X105564933Y-87449962D01*
X105557701Y-87429750D01*
X105552485Y-87408926D01*
X105549335Y-87387691D01*
X105548282Y-87366250D01*
X105548282Y-86928750D01*
X105549335Y-86907309D01*
X105552485Y-86886074D01*
X105557701Y-86865250D01*
X105564933Y-86845038D01*
X105574112Y-86825632D01*
X105585148Y-86807219D01*
X105597936Y-86789976D01*
X105612352Y-86774070D01*
X105628258Y-86759654D01*
X105645501Y-86746866D01*
X105663914Y-86735830D01*
X105683320Y-86726651D01*
X105703532Y-86719419D01*
X105724356Y-86714203D01*
X105745591Y-86711053D01*
X105767032Y-86710000D01*
X106279532Y-86710000D01*
X106300973Y-86711053D01*
X106300973Y-86711053D01*
G37*
D23*
X106023282Y-87147500D03*
D10*
G36*
X106300973Y-85136053D02*
X106322208Y-85139203D01*
X106343032Y-85144419D01*
X106363244Y-85151651D01*
X106382650Y-85160830D01*
X106401063Y-85171866D01*
X106418306Y-85184654D01*
X106434212Y-85199070D01*
X106448628Y-85214976D01*
X106461416Y-85232219D01*
X106472452Y-85250632D01*
X106481631Y-85270038D01*
X106488863Y-85290250D01*
X106494079Y-85311074D01*
X106497229Y-85332309D01*
X106498282Y-85353750D01*
X106498282Y-85791250D01*
X106497229Y-85812691D01*
X106494079Y-85833926D01*
X106488863Y-85854750D01*
X106481631Y-85874962D01*
X106472452Y-85894368D01*
X106461416Y-85912781D01*
X106448628Y-85930024D01*
X106434212Y-85945930D01*
X106418306Y-85960346D01*
X106401063Y-85973134D01*
X106382650Y-85984170D01*
X106363244Y-85993349D01*
X106343032Y-86000581D01*
X106322208Y-86005797D01*
X106300973Y-86008947D01*
X106279532Y-86010000D01*
X105767032Y-86010000D01*
X105745591Y-86008947D01*
X105724356Y-86005797D01*
X105703532Y-86000581D01*
X105683320Y-85993349D01*
X105663914Y-85984170D01*
X105645501Y-85973134D01*
X105628258Y-85960346D01*
X105612352Y-85945930D01*
X105597936Y-85930024D01*
X105585148Y-85912781D01*
X105574112Y-85894368D01*
X105564933Y-85874962D01*
X105557701Y-85854750D01*
X105552485Y-85833926D01*
X105549335Y-85812691D01*
X105548282Y-85791250D01*
X105548282Y-85353750D01*
X105549335Y-85332309D01*
X105552485Y-85311074D01*
X105557701Y-85290250D01*
X105564933Y-85270038D01*
X105574112Y-85250632D01*
X105585148Y-85232219D01*
X105597936Y-85214976D01*
X105612352Y-85199070D01*
X105628258Y-85184654D01*
X105645501Y-85171866D01*
X105663914Y-85160830D01*
X105683320Y-85151651D01*
X105703532Y-85144419D01*
X105724356Y-85139203D01*
X105745591Y-85136053D01*
X105767032Y-85135000D01*
X106279532Y-85135000D01*
X106300973Y-85136053D01*
X106300973Y-85136053D01*
G37*
D23*
X106023282Y-85572500D03*
G04 #@! TD*
D10*
G04 #@! TO.C,R42*
G36*
X126452691Y-72551053D02*
X126473926Y-72554203D01*
X126494750Y-72559419D01*
X126514962Y-72566651D01*
X126534368Y-72575830D01*
X126552781Y-72586866D01*
X126570024Y-72599654D01*
X126585930Y-72614070D01*
X126600346Y-72629976D01*
X126613134Y-72647219D01*
X126624170Y-72665632D01*
X126633349Y-72685038D01*
X126640581Y-72705250D01*
X126645797Y-72726074D01*
X126648947Y-72747309D01*
X126650000Y-72768750D01*
X126650000Y-73281250D01*
X126648947Y-73302691D01*
X126645797Y-73323926D01*
X126640581Y-73344750D01*
X126633349Y-73364962D01*
X126624170Y-73384368D01*
X126613134Y-73402781D01*
X126600346Y-73420024D01*
X126585930Y-73435930D01*
X126570024Y-73450346D01*
X126552781Y-73463134D01*
X126534368Y-73474170D01*
X126514962Y-73483349D01*
X126494750Y-73490581D01*
X126473926Y-73495797D01*
X126452691Y-73498947D01*
X126431250Y-73500000D01*
X125993750Y-73500000D01*
X125972309Y-73498947D01*
X125951074Y-73495797D01*
X125930250Y-73490581D01*
X125910038Y-73483349D01*
X125890632Y-73474170D01*
X125872219Y-73463134D01*
X125854976Y-73450346D01*
X125839070Y-73435930D01*
X125824654Y-73420024D01*
X125811866Y-73402781D01*
X125800830Y-73384368D01*
X125791651Y-73364962D01*
X125784419Y-73344750D01*
X125779203Y-73323926D01*
X125776053Y-73302691D01*
X125775000Y-73281250D01*
X125775000Y-72768750D01*
X125776053Y-72747309D01*
X125779203Y-72726074D01*
X125784419Y-72705250D01*
X125791651Y-72685038D01*
X125800830Y-72665632D01*
X125811866Y-72647219D01*
X125824654Y-72629976D01*
X125839070Y-72614070D01*
X125854976Y-72599654D01*
X125872219Y-72586866D01*
X125890632Y-72575830D01*
X125910038Y-72566651D01*
X125930250Y-72559419D01*
X125951074Y-72554203D01*
X125972309Y-72551053D01*
X125993750Y-72550000D01*
X126431250Y-72550000D01*
X126452691Y-72551053D01*
X126452691Y-72551053D01*
G37*
D23*
X126212500Y-73025000D03*
D10*
G36*
X128027691Y-72551053D02*
X128048926Y-72554203D01*
X128069750Y-72559419D01*
X128089962Y-72566651D01*
X128109368Y-72575830D01*
X128127781Y-72586866D01*
X128145024Y-72599654D01*
X128160930Y-72614070D01*
X128175346Y-72629976D01*
X128188134Y-72647219D01*
X128199170Y-72665632D01*
X128208349Y-72685038D01*
X128215581Y-72705250D01*
X128220797Y-72726074D01*
X128223947Y-72747309D01*
X128225000Y-72768750D01*
X128225000Y-73281250D01*
X128223947Y-73302691D01*
X128220797Y-73323926D01*
X128215581Y-73344750D01*
X128208349Y-73364962D01*
X128199170Y-73384368D01*
X128188134Y-73402781D01*
X128175346Y-73420024D01*
X128160930Y-73435930D01*
X128145024Y-73450346D01*
X128127781Y-73463134D01*
X128109368Y-73474170D01*
X128089962Y-73483349D01*
X128069750Y-73490581D01*
X128048926Y-73495797D01*
X128027691Y-73498947D01*
X128006250Y-73500000D01*
X127568750Y-73500000D01*
X127547309Y-73498947D01*
X127526074Y-73495797D01*
X127505250Y-73490581D01*
X127485038Y-73483349D01*
X127465632Y-73474170D01*
X127447219Y-73463134D01*
X127429976Y-73450346D01*
X127414070Y-73435930D01*
X127399654Y-73420024D01*
X127386866Y-73402781D01*
X127375830Y-73384368D01*
X127366651Y-73364962D01*
X127359419Y-73344750D01*
X127354203Y-73323926D01*
X127351053Y-73302691D01*
X127350000Y-73281250D01*
X127350000Y-72768750D01*
X127351053Y-72747309D01*
X127354203Y-72726074D01*
X127359419Y-72705250D01*
X127366651Y-72685038D01*
X127375830Y-72665632D01*
X127386866Y-72647219D01*
X127399654Y-72629976D01*
X127414070Y-72614070D01*
X127429976Y-72599654D01*
X127447219Y-72586866D01*
X127465632Y-72575830D01*
X127485038Y-72566651D01*
X127505250Y-72559419D01*
X127526074Y-72554203D01*
X127547309Y-72551053D01*
X127568750Y-72550000D01*
X128006250Y-72550000D01*
X128027691Y-72551053D01*
X128027691Y-72551053D01*
G37*
D23*
X127787500Y-73025000D03*
G04 #@! TD*
D10*
G04 #@! TO.C,R41*
G36*
X126452691Y-67471053D02*
X126473926Y-67474203D01*
X126494750Y-67479419D01*
X126514962Y-67486651D01*
X126534368Y-67495830D01*
X126552781Y-67506866D01*
X126570024Y-67519654D01*
X126585930Y-67534070D01*
X126600346Y-67549976D01*
X126613134Y-67567219D01*
X126624170Y-67585632D01*
X126633349Y-67605038D01*
X126640581Y-67625250D01*
X126645797Y-67646074D01*
X126648947Y-67667309D01*
X126650000Y-67688750D01*
X126650000Y-68201250D01*
X126648947Y-68222691D01*
X126645797Y-68243926D01*
X126640581Y-68264750D01*
X126633349Y-68284962D01*
X126624170Y-68304368D01*
X126613134Y-68322781D01*
X126600346Y-68340024D01*
X126585930Y-68355930D01*
X126570024Y-68370346D01*
X126552781Y-68383134D01*
X126534368Y-68394170D01*
X126514962Y-68403349D01*
X126494750Y-68410581D01*
X126473926Y-68415797D01*
X126452691Y-68418947D01*
X126431250Y-68420000D01*
X125993750Y-68420000D01*
X125972309Y-68418947D01*
X125951074Y-68415797D01*
X125930250Y-68410581D01*
X125910038Y-68403349D01*
X125890632Y-68394170D01*
X125872219Y-68383134D01*
X125854976Y-68370346D01*
X125839070Y-68355930D01*
X125824654Y-68340024D01*
X125811866Y-68322781D01*
X125800830Y-68304368D01*
X125791651Y-68284962D01*
X125784419Y-68264750D01*
X125779203Y-68243926D01*
X125776053Y-68222691D01*
X125775000Y-68201250D01*
X125775000Y-67688750D01*
X125776053Y-67667309D01*
X125779203Y-67646074D01*
X125784419Y-67625250D01*
X125791651Y-67605038D01*
X125800830Y-67585632D01*
X125811866Y-67567219D01*
X125824654Y-67549976D01*
X125839070Y-67534070D01*
X125854976Y-67519654D01*
X125872219Y-67506866D01*
X125890632Y-67495830D01*
X125910038Y-67486651D01*
X125930250Y-67479419D01*
X125951074Y-67474203D01*
X125972309Y-67471053D01*
X125993750Y-67470000D01*
X126431250Y-67470000D01*
X126452691Y-67471053D01*
X126452691Y-67471053D01*
G37*
D23*
X126212500Y-67945000D03*
D10*
G36*
X128027691Y-67471053D02*
X128048926Y-67474203D01*
X128069750Y-67479419D01*
X128089962Y-67486651D01*
X128109368Y-67495830D01*
X128127781Y-67506866D01*
X128145024Y-67519654D01*
X128160930Y-67534070D01*
X128175346Y-67549976D01*
X128188134Y-67567219D01*
X128199170Y-67585632D01*
X128208349Y-67605038D01*
X128215581Y-67625250D01*
X128220797Y-67646074D01*
X128223947Y-67667309D01*
X128225000Y-67688750D01*
X128225000Y-68201250D01*
X128223947Y-68222691D01*
X128220797Y-68243926D01*
X128215581Y-68264750D01*
X128208349Y-68284962D01*
X128199170Y-68304368D01*
X128188134Y-68322781D01*
X128175346Y-68340024D01*
X128160930Y-68355930D01*
X128145024Y-68370346D01*
X128127781Y-68383134D01*
X128109368Y-68394170D01*
X128089962Y-68403349D01*
X128069750Y-68410581D01*
X128048926Y-68415797D01*
X128027691Y-68418947D01*
X128006250Y-68420000D01*
X127568750Y-68420000D01*
X127547309Y-68418947D01*
X127526074Y-68415797D01*
X127505250Y-68410581D01*
X127485038Y-68403349D01*
X127465632Y-68394170D01*
X127447219Y-68383134D01*
X127429976Y-68370346D01*
X127414070Y-68355930D01*
X127399654Y-68340024D01*
X127386866Y-68322781D01*
X127375830Y-68304368D01*
X127366651Y-68284962D01*
X127359419Y-68264750D01*
X127354203Y-68243926D01*
X127351053Y-68222691D01*
X127350000Y-68201250D01*
X127350000Y-67688750D01*
X127351053Y-67667309D01*
X127354203Y-67646074D01*
X127359419Y-67625250D01*
X127366651Y-67605038D01*
X127375830Y-67585632D01*
X127386866Y-67567219D01*
X127399654Y-67549976D01*
X127414070Y-67534070D01*
X127429976Y-67519654D01*
X127447219Y-67506866D01*
X127465632Y-67495830D01*
X127485038Y-67486651D01*
X127505250Y-67479419D01*
X127526074Y-67474203D01*
X127547309Y-67471053D01*
X127568750Y-67470000D01*
X128006250Y-67470000D01*
X128027691Y-67471053D01*
X128027691Y-67471053D01*
G37*
D23*
X127787500Y-67945000D03*
G04 #@! TD*
D24*
G04 #@! TO.C,R40*
X145735000Y-100330000D03*
X147635000Y-100330000D03*
G04 #@! TD*
G04 #@! TO.C,R36*
X159705000Y-100330000D03*
X161605000Y-100330000D03*
G04 #@! TD*
G04 #@! TO.C,R32*
X173675000Y-100330000D03*
X175575000Y-100330000D03*
G04 #@! TD*
G04 #@! TO.C,R28*
X187645000Y-100330000D03*
X189545000Y-100330000D03*
G04 #@! TD*
G04 #@! TO.C,R24*
X201615000Y-100330000D03*
X203515000Y-100330000D03*
G04 #@! TD*
G04 #@! TO.C,R20*
X200340000Y-57785000D03*
X198440000Y-57785000D03*
G04 #@! TD*
G04 #@! TO.C,R16*
X186370000Y-57785000D03*
X184470000Y-57785000D03*
G04 #@! TD*
G04 #@! TO.C,R12*
X172400000Y-57785000D03*
X170500000Y-57785000D03*
G04 #@! TD*
G04 #@! TO.C,R8*
X158430000Y-57785000D03*
X156530000Y-57785000D03*
G04 #@! TD*
D10*
G04 #@! TO.C,L2*
G36*
X102715142Y-76681174D02*
X102738803Y-76684684D01*
X102762007Y-76690496D01*
X102784529Y-76698554D01*
X102806153Y-76708782D01*
X102826670Y-76721079D01*
X102845883Y-76735329D01*
X102863607Y-76751393D01*
X102879671Y-76769117D01*
X102893921Y-76788330D01*
X102906218Y-76808847D01*
X102916446Y-76830471D01*
X102924504Y-76852993D01*
X102930316Y-76876197D01*
X102933826Y-76899858D01*
X102935000Y-76923750D01*
X102935000Y-77411250D01*
X102933826Y-77435142D01*
X102930316Y-77458803D01*
X102924504Y-77482007D01*
X102916446Y-77504529D01*
X102906218Y-77526153D01*
X102893921Y-77546670D01*
X102879671Y-77565883D01*
X102863607Y-77583607D01*
X102845883Y-77599671D01*
X102826670Y-77613921D01*
X102806153Y-77626218D01*
X102784529Y-77636446D01*
X102762007Y-77644504D01*
X102738803Y-77650316D01*
X102715142Y-77653826D01*
X102691250Y-77655000D01*
X101778750Y-77655000D01*
X101754858Y-77653826D01*
X101731197Y-77650316D01*
X101707993Y-77644504D01*
X101685471Y-77636446D01*
X101663847Y-77626218D01*
X101643330Y-77613921D01*
X101624117Y-77599671D01*
X101606393Y-77583607D01*
X101590329Y-77565883D01*
X101576079Y-77546670D01*
X101563782Y-77526153D01*
X101553554Y-77504529D01*
X101545496Y-77482007D01*
X101539684Y-77458803D01*
X101536174Y-77435142D01*
X101535000Y-77411250D01*
X101535000Y-76923750D01*
X101536174Y-76899858D01*
X101539684Y-76876197D01*
X101545496Y-76852993D01*
X101553554Y-76830471D01*
X101563782Y-76808847D01*
X101576079Y-76788330D01*
X101590329Y-76769117D01*
X101606393Y-76751393D01*
X101624117Y-76735329D01*
X101643330Y-76721079D01*
X101663847Y-76708782D01*
X101685471Y-76698554D01*
X101707993Y-76690496D01*
X101731197Y-76684684D01*
X101754858Y-76681174D01*
X101778750Y-76680000D01*
X102691250Y-76680000D01*
X102715142Y-76681174D01*
X102715142Y-76681174D01*
G37*
D25*
X102235000Y-77167500D03*
D10*
G36*
X102715142Y-78556174D02*
X102738803Y-78559684D01*
X102762007Y-78565496D01*
X102784529Y-78573554D01*
X102806153Y-78583782D01*
X102826670Y-78596079D01*
X102845883Y-78610329D01*
X102863607Y-78626393D01*
X102879671Y-78644117D01*
X102893921Y-78663330D01*
X102906218Y-78683847D01*
X102916446Y-78705471D01*
X102924504Y-78727993D01*
X102930316Y-78751197D01*
X102933826Y-78774858D01*
X102935000Y-78798750D01*
X102935000Y-79286250D01*
X102933826Y-79310142D01*
X102930316Y-79333803D01*
X102924504Y-79357007D01*
X102916446Y-79379529D01*
X102906218Y-79401153D01*
X102893921Y-79421670D01*
X102879671Y-79440883D01*
X102863607Y-79458607D01*
X102845883Y-79474671D01*
X102826670Y-79488921D01*
X102806153Y-79501218D01*
X102784529Y-79511446D01*
X102762007Y-79519504D01*
X102738803Y-79525316D01*
X102715142Y-79528826D01*
X102691250Y-79530000D01*
X101778750Y-79530000D01*
X101754858Y-79528826D01*
X101731197Y-79525316D01*
X101707993Y-79519504D01*
X101685471Y-79511446D01*
X101663847Y-79501218D01*
X101643330Y-79488921D01*
X101624117Y-79474671D01*
X101606393Y-79458607D01*
X101590329Y-79440883D01*
X101576079Y-79421670D01*
X101563782Y-79401153D01*
X101553554Y-79379529D01*
X101545496Y-79357007D01*
X101539684Y-79333803D01*
X101536174Y-79310142D01*
X101535000Y-79286250D01*
X101535000Y-78798750D01*
X101536174Y-78774858D01*
X101539684Y-78751197D01*
X101545496Y-78727993D01*
X101553554Y-78705471D01*
X101563782Y-78683847D01*
X101576079Y-78663330D01*
X101590329Y-78644117D01*
X101606393Y-78626393D01*
X101624117Y-78610329D01*
X101643330Y-78596079D01*
X101663847Y-78583782D01*
X101685471Y-78573554D01*
X101707993Y-78565496D01*
X101731197Y-78559684D01*
X101754858Y-78556174D01*
X101778750Y-78555000D01*
X102691250Y-78555000D01*
X102715142Y-78556174D01*
X102715142Y-78556174D01*
G37*
D25*
X102235000Y-79042500D03*
G04 #@! TD*
D10*
G04 #@! TO.C,L1*
G36*
X121220142Y-64071174D02*
X121243803Y-64074684D01*
X121267007Y-64080496D01*
X121289529Y-64088554D01*
X121311153Y-64098782D01*
X121331670Y-64111079D01*
X121350883Y-64125329D01*
X121368607Y-64141393D01*
X121384671Y-64159117D01*
X121398921Y-64178330D01*
X121411218Y-64198847D01*
X121421446Y-64220471D01*
X121429504Y-64242993D01*
X121435316Y-64266197D01*
X121438826Y-64289858D01*
X121440000Y-64313750D01*
X121440000Y-65226250D01*
X121438826Y-65250142D01*
X121435316Y-65273803D01*
X121429504Y-65297007D01*
X121421446Y-65319529D01*
X121411218Y-65341153D01*
X121398921Y-65361670D01*
X121384671Y-65380883D01*
X121368607Y-65398607D01*
X121350883Y-65414671D01*
X121331670Y-65428921D01*
X121311153Y-65441218D01*
X121289529Y-65451446D01*
X121267007Y-65459504D01*
X121243803Y-65465316D01*
X121220142Y-65468826D01*
X121196250Y-65470000D01*
X120708750Y-65470000D01*
X120684858Y-65468826D01*
X120661197Y-65465316D01*
X120637993Y-65459504D01*
X120615471Y-65451446D01*
X120593847Y-65441218D01*
X120573330Y-65428921D01*
X120554117Y-65414671D01*
X120536393Y-65398607D01*
X120520329Y-65380883D01*
X120506079Y-65361670D01*
X120493782Y-65341153D01*
X120483554Y-65319529D01*
X120475496Y-65297007D01*
X120469684Y-65273803D01*
X120466174Y-65250142D01*
X120465000Y-65226250D01*
X120465000Y-64313750D01*
X120466174Y-64289858D01*
X120469684Y-64266197D01*
X120475496Y-64242993D01*
X120483554Y-64220471D01*
X120493782Y-64198847D01*
X120506079Y-64178330D01*
X120520329Y-64159117D01*
X120536393Y-64141393D01*
X120554117Y-64125329D01*
X120573330Y-64111079D01*
X120593847Y-64098782D01*
X120615471Y-64088554D01*
X120637993Y-64080496D01*
X120661197Y-64074684D01*
X120684858Y-64071174D01*
X120708750Y-64070000D01*
X121196250Y-64070000D01*
X121220142Y-64071174D01*
X121220142Y-64071174D01*
G37*
D25*
X120952500Y-64770000D03*
D10*
G36*
X119345142Y-64071174D02*
X119368803Y-64074684D01*
X119392007Y-64080496D01*
X119414529Y-64088554D01*
X119436153Y-64098782D01*
X119456670Y-64111079D01*
X119475883Y-64125329D01*
X119493607Y-64141393D01*
X119509671Y-64159117D01*
X119523921Y-64178330D01*
X119536218Y-64198847D01*
X119546446Y-64220471D01*
X119554504Y-64242993D01*
X119560316Y-64266197D01*
X119563826Y-64289858D01*
X119565000Y-64313750D01*
X119565000Y-65226250D01*
X119563826Y-65250142D01*
X119560316Y-65273803D01*
X119554504Y-65297007D01*
X119546446Y-65319529D01*
X119536218Y-65341153D01*
X119523921Y-65361670D01*
X119509671Y-65380883D01*
X119493607Y-65398607D01*
X119475883Y-65414671D01*
X119456670Y-65428921D01*
X119436153Y-65441218D01*
X119414529Y-65451446D01*
X119392007Y-65459504D01*
X119368803Y-65465316D01*
X119345142Y-65468826D01*
X119321250Y-65470000D01*
X118833750Y-65470000D01*
X118809858Y-65468826D01*
X118786197Y-65465316D01*
X118762993Y-65459504D01*
X118740471Y-65451446D01*
X118718847Y-65441218D01*
X118698330Y-65428921D01*
X118679117Y-65414671D01*
X118661393Y-65398607D01*
X118645329Y-65380883D01*
X118631079Y-65361670D01*
X118618782Y-65341153D01*
X118608554Y-65319529D01*
X118600496Y-65297007D01*
X118594684Y-65273803D01*
X118591174Y-65250142D01*
X118590000Y-65226250D01*
X118590000Y-64313750D01*
X118591174Y-64289858D01*
X118594684Y-64266197D01*
X118600496Y-64242993D01*
X118608554Y-64220471D01*
X118618782Y-64198847D01*
X118631079Y-64178330D01*
X118645329Y-64159117D01*
X118661393Y-64141393D01*
X118679117Y-64125329D01*
X118698330Y-64111079D01*
X118718847Y-64098782D01*
X118740471Y-64088554D01*
X118762993Y-64080496D01*
X118786197Y-64074684D01*
X118809858Y-64071174D01*
X118833750Y-64070000D01*
X119321250Y-64070000D01*
X119345142Y-64071174D01*
X119345142Y-64071174D01*
G37*
D25*
X119077500Y-64770000D03*
G04 #@! TD*
D10*
G04 #@! TO.C,REF_C44*
G36*
X110708473Y-52924176D02*
X110729708Y-52927326D01*
X110750532Y-52932542D01*
X110770744Y-52939774D01*
X110790150Y-52948953D01*
X110808563Y-52959989D01*
X110825806Y-52972777D01*
X110841712Y-52987193D01*
X110856128Y-53003099D01*
X110868916Y-53020342D01*
X110879952Y-53038755D01*
X110889131Y-53058161D01*
X110896363Y-53078373D01*
X110901579Y-53099197D01*
X110904729Y-53120432D01*
X110905782Y-53141873D01*
X110905782Y-53654373D01*
X110904729Y-53675814D01*
X110901579Y-53697049D01*
X110896363Y-53717873D01*
X110889131Y-53738085D01*
X110879952Y-53757491D01*
X110868916Y-53775904D01*
X110856128Y-53793147D01*
X110841712Y-53809053D01*
X110825806Y-53823469D01*
X110808563Y-53836257D01*
X110790150Y-53847293D01*
X110770744Y-53856472D01*
X110750532Y-53863704D01*
X110729708Y-53868920D01*
X110708473Y-53872070D01*
X110687032Y-53873123D01*
X110249532Y-53873123D01*
X110228091Y-53872070D01*
X110206856Y-53868920D01*
X110186032Y-53863704D01*
X110165820Y-53856472D01*
X110146414Y-53847293D01*
X110128001Y-53836257D01*
X110110758Y-53823469D01*
X110094852Y-53809053D01*
X110080436Y-53793147D01*
X110067648Y-53775904D01*
X110056612Y-53757491D01*
X110047433Y-53738085D01*
X110040201Y-53717873D01*
X110034985Y-53697049D01*
X110031835Y-53675814D01*
X110030782Y-53654373D01*
X110030782Y-53141873D01*
X110031835Y-53120432D01*
X110034985Y-53099197D01*
X110040201Y-53078373D01*
X110047433Y-53058161D01*
X110056612Y-53038755D01*
X110067648Y-53020342D01*
X110080436Y-53003099D01*
X110094852Y-52987193D01*
X110110758Y-52972777D01*
X110128001Y-52959989D01*
X110146414Y-52948953D01*
X110165820Y-52939774D01*
X110186032Y-52932542D01*
X110206856Y-52927326D01*
X110228091Y-52924176D01*
X110249532Y-52923123D01*
X110687032Y-52923123D01*
X110708473Y-52924176D01*
X110708473Y-52924176D01*
G37*
D23*
X110468282Y-53398123D03*
D10*
G36*
X109133473Y-52924176D02*
X109154708Y-52927326D01*
X109175532Y-52932542D01*
X109195744Y-52939774D01*
X109215150Y-52948953D01*
X109233563Y-52959989D01*
X109250806Y-52972777D01*
X109266712Y-52987193D01*
X109281128Y-53003099D01*
X109293916Y-53020342D01*
X109304952Y-53038755D01*
X109314131Y-53058161D01*
X109321363Y-53078373D01*
X109326579Y-53099197D01*
X109329729Y-53120432D01*
X109330782Y-53141873D01*
X109330782Y-53654373D01*
X109329729Y-53675814D01*
X109326579Y-53697049D01*
X109321363Y-53717873D01*
X109314131Y-53738085D01*
X109304952Y-53757491D01*
X109293916Y-53775904D01*
X109281128Y-53793147D01*
X109266712Y-53809053D01*
X109250806Y-53823469D01*
X109233563Y-53836257D01*
X109215150Y-53847293D01*
X109195744Y-53856472D01*
X109175532Y-53863704D01*
X109154708Y-53868920D01*
X109133473Y-53872070D01*
X109112032Y-53873123D01*
X108674532Y-53873123D01*
X108653091Y-53872070D01*
X108631856Y-53868920D01*
X108611032Y-53863704D01*
X108590820Y-53856472D01*
X108571414Y-53847293D01*
X108553001Y-53836257D01*
X108535758Y-53823469D01*
X108519852Y-53809053D01*
X108505436Y-53793147D01*
X108492648Y-53775904D01*
X108481612Y-53757491D01*
X108472433Y-53738085D01*
X108465201Y-53717873D01*
X108459985Y-53697049D01*
X108456835Y-53675814D01*
X108455782Y-53654373D01*
X108455782Y-53141873D01*
X108456835Y-53120432D01*
X108459985Y-53099197D01*
X108465201Y-53078373D01*
X108472433Y-53058161D01*
X108481612Y-53038755D01*
X108492648Y-53020342D01*
X108505436Y-53003099D01*
X108519852Y-52987193D01*
X108535758Y-52972777D01*
X108553001Y-52959989D01*
X108571414Y-52948953D01*
X108590820Y-52939774D01*
X108611032Y-52932542D01*
X108631856Y-52927326D01*
X108653091Y-52924176D01*
X108674532Y-52923123D01*
X109112032Y-52923123D01*
X109133473Y-52924176D01*
X109133473Y-52924176D01*
G37*
D23*
X108893282Y-53398123D03*
G04 #@! TD*
D10*
G04 #@! TO.C,C43*
G36*
X121042691Y-56676053D02*
X121063926Y-56679203D01*
X121084750Y-56684419D01*
X121104962Y-56691651D01*
X121124368Y-56700830D01*
X121142781Y-56711866D01*
X121160024Y-56724654D01*
X121175930Y-56739070D01*
X121190346Y-56754976D01*
X121203134Y-56772219D01*
X121214170Y-56790632D01*
X121223349Y-56810038D01*
X121230581Y-56830250D01*
X121235797Y-56851074D01*
X121238947Y-56872309D01*
X121240000Y-56893750D01*
X121240000Y-57406250D01*
X121238947Y-57427691D01*
X121235797Y-57448926D01*
X121230581Y-57469750D01*
X121223349Y-57489962D01*
X121214170Y-57509368D01*
X121203134Y-57527781D01*
X121190346Y-57545024D01*
X121175930Y-57560930D01*
X121160024Y-57575346D01*
X121142781Y-57588134D01*
X121124368Y-57599170D01*
X121104962Y-57608349D01*
X121084750Y-57615581D01*
X121063926Y-57620797D01*
X121042691Y-57623947D01*
X121021250Y-57625000D01*
X120583750Y-57625000D01*
X120562309Y-57623947D01*
X120541074Y-57620797D01*
X120520250Y-57615581D01*
X120500038Y-57608349D01*
X120480632Y-57599170D01*
X120462219Y-57588134D01*
X120444976Y-57575346D01*
X120429070Y-57560930D01*
X120414654Y-57545024D01*
X120401866Y-57527781D01*
X120390830Y-57509368D01*
X120381651Y-57489962D01*
X120374419Y-57469750D01*
X120369203Y-57448926D01*
X120366053Y-57427691D01*
X120365000Y-57406250D01*
X120365000Y-56893750D01*
X120366053Y-56872309D01*
X120369203Y-56851074D01*
X120374419Y-56830250D01*
X120381651Y-56810038D01*
X120390830Y-56790632D01*
X120401866Y-56772219D01*
X120414654Y-56754976D01*
X120429070Y-56739070D01*
X120444976Y-56724654D01*
X120462219Y-56711866D01*
X120480632Y-56700830D01*
X120500038Y-56691651D01*
X120520250Y-56684419D01*
X120541074Y-56679203D01*
X120562309Y-56676053D01*
X120583750Y-56675000D01*
X121021250Y-56675000D01*
X121042691Y-56676053D01*
X121042691Y-56676053D01*
G37*
D23*
X120802500Y-57150000D03*
D10*
G36*
X119467691Y-56676053D02*
X119488926Y-56679203D01*
X119509750Y-56684419D01*
X119529962Y-56691651D01*
X119549368Y-56700830D01*
X119567781Y-56711866D01*
X119585024Y-56724654D01*
X119600930Y-56739070D01*
X119615346Y-56754976D01*
X119628134Y-56772219D01*
X119639170Y-56790632D01*
X119648349Y-56810038D01*
X119655581Y-56830250D01*
X119660797Y-56851074D01*
X119663947Y-56872309D01*
X119665000Y-56893750D01*
X119665000Y-57406250D01*
X119663947Y-57427691D01*
X119660797Y-57448926D01*
X119655581Y-57469750D01*
X119648349Y-57489962D01*
X119639170Y-57509368D01*
X119628134Y-57527781D01*
X119615346Y-57545024D01*
X119600930Y-57560930D01*
X119585024Y-57575346D01*
X119567781Y-57588134D01*
X119549368Y-57599170D01*
X119529962Y-57608349D01*
X119509750Y-57615581D01*
X119488926Y-57620797D01*
X119467691Y-57623947D01*
X119446250Y-57625000D01*
X119008750Y-57625000D01*
X118987309Y-57623947D01*
X118966074Y-57620797D01*
X118945250Y-57615581D01*
X118925038Y-57608349D01*
X118905632Y-57599170D01*
X118887219Y-57588134D01*
X118869976Y-57575346D01*
X118854070Y-57560930D01*
X118839654Y-57545024D01*
X118826866Y-57527781D01*
X118815830Y-57509368D01*
X118806651Y-57489962D01*
X118799419Y-57469750D01*
X118794203Y-57448926D01*
X118791053Y-57427691D01*
X118790000Y-57406250D01*
X118790000Y-56893750D01*
X118791053Y-56872309D01*
X118794203Y-56851074D01*
X118799419Y-56830250D01*
X118806651Y-56810038D01*
X118815830Y-56790632D01*
X118826866Y-56772219D01*
X118839654Y-56754976D01*
X118854070Y-56739070D01*
X118869976Y-56724654D01*
X118887219Y-56711866D01*
X118905632Y-56700830D01*
X118925038Y-56691651D01*
X118945250Y-56684419D01*
X118966074Y-56679203D01*
X118987309Y-56676053D01*
X119008750Y-56675000D01*
X119446250Y-56675000D01*
X119467691Y-56676053D01*
X119467691Y-56676053D01*
G37*
D23*
X119227500Y-57150000D03*
G04 #@! TD*
D10*
G04 #@! TO.C,C42*
G36*
X121042691Y-59216053D02*
X121063926Y-59219203D01*
X121084750Y-59224419D01*
X121104962Y-59231651D01*
X121124368Y-59240830D01*
X121142781Y-59251866D01*
X121160024Y-59264654D01*
X121175930Y-59279070D01*
X121190346Y-59294976D01*
X121203134Y-59312219D01*
X121214170Y-59330632D01*
X121223349Y-59350038D01*
X121230581Y-59370250D01*
X121235797Y-59391074D01*
X121238947Y-59412309D01*
X121240000Y-59433750D01*
X121240000Y-59946250D01*
X121238947Y-59967691D01*
X121235797Y-59988926D01*
X121230581Y-60009750D01*
X121223349Y-60029962D01*
X121214170Y-60049368D01*
X121203134Y-60067781D01*
X121190346Y-60085024D01*
X121175930Y-60100930D01*
X121160024Y-60115346D01*
X121142781Y-60128134D01*
X121124368Y-60139170D01*
X121104962Y-60148349D01*
X121084750Y-60155581D01*
X121063926Y-60160797D01*
X121042691Y-60163947D01*
X121021250Y-60165000D01*
X120583750Y-60165000D01*
X120562309Y-60163947D01*
X120541074Y-60160797D01*
X120520250Y-60155581D01*
X120500038Y-60148349D01*
X120480632Y-60139170D01*
X120462219Y-60128134D01*
X120444976Y-60115346D01*
X120429070Y-60100930D01*
X120414654Y-60085024D01*
X120401866Y-60067781D01*
X120390830Y-60049368D01*
X120381651Y-60029962D01*
X120374419Y-60009750D01*
X120369203Y-59988926D01*
X120366053Y-59967691D01*
X120365000Y-59946250D01*
X120365000Y-59433750D01*
X120366053Y-59412309D01*
X120369203Y-59391074D01*
X120374419Y-59370250D01*
X120381651Y-59350038D01*
X120390830Y-59330632D01*
X120401866Y-59312219D01*
X120414654Y-59294976D01*
X120429070Y-59279070D01*
X120444976Y-59264654D01*
X120462219Y-59251866D01*
X120480632Y-59240830D01*
X120500038Y-59231651D01*
X120520250Y-59224419D01*
X120541074Y-59219203D01*
X120562309Y-59216053D01*
X120583750Y-59215000D01*
X121021250Y-59215000D01*
X121042691Y-59216053D01*
X121042691Y-59216053D01*
G37*
D23*
X120802500Y-59690000D03*
D10*
G36*
X119467691Y-59216053D02*
X119488926Y-59219203D01*
X119509750Y-59224419D01*
X119529962Y-59231651D01*
X119549368Y-59240830D01*
X119567781Y-59251866D01*
X119585024Y-59264654D01*
X119600930Y-59279070D01*
X119615346Y-59294976D01*
X119628134Y-59312219D01*
X119639170Y-59330632D01*
X119648349Y-59350038D01*
X119655581Y-59370250D01*
X119660797Y-59391074D01*
X119663947Y-59412309D01*
X119665000Y-59433750D01*
X119665000Y-59946250D01*
X119663947Y-59967691D01*
X119660797Y-59988926D01*
X119655581Y-60009750D01*
X119648349Y-60029962D01*
X119639170Y-60049368D01*
X119628134Y-60067781D01*
X119615346Y-60085024D01*
X119600930Y-60100930D01*
X119585024Y-60115346D01*
X119567781Y-60128134D01*
X119549368Y-60139170D01*
X119529962Y-60148349D01*
X119509750Y-60155581D01*
X119488926Y-60160797D01*
X119467691Y-60163947D01*
X119446250Y-60165000D01*
X119008750Y-60165000D01*
X118987309Y-60163947D01*
X118966074Y-60160797D01*
X118945250Y-60155581D01*
X118925038Y-60148349D01*
X118905632Y-60139170D01*
X118887219Y-60128134D01*
X118869976Y-60115346D01*
X118854070Y-60100930D01*
X118839654Y-60085024D01*
X118826866Y-60067781D01*
X118815830Y-60049368D01*
X118806651Y-60029962D01*
X118799419Y-60009750D01*
X118794203Y-59988926D01*
X118791053Y-59967691D01*
X118790000Y-59946250D01*
X118790000Y-59433750D01*
X118791053Y-59412309D01*
X118794203Y-59391074D01*
X118799419Y-59370250D01*
X118806651Y-59350038D01*
X118815830Y-59330632D01*
X118826866Y-59312219D01*
X118839654Y-59294976D01*
X118854070Y-59279070D01*
X118869976Y-59264654D01*
X118887219Y-59251866D01*
X118905632Y-59240830D01*
X118925038Y-59231651D01*
X118945250Y-59224419D01*
X118966074Y-59219203D01*
X118987309Y-59216053D01*
X119008750Y-59215000D01*
X119446250Y-59215000D01*
X119467691Y-59216053D01*
X119467691Y-59216053D01*
G37*
D23*
X119227500Y-59690000D03*
G04 #@! TD*
D10*
G04 #@! TO.C,C41*
G36*
X121042691Y-61756053D02*
X121063926Y-61759203D01*
X121084750Y-61764419D01*
X121104962Y-61771651D01*
X121124368Y-61780830D01*
X121142781Y-61791866D01*
X121160024Y-61804654D01*
X121175930Y-61819070D01*
X121190346Y-61834976D01*
X121203134Y-61852219D01*
X121214170Y-61870632D01*
X121223349Y-61890038D01*
X121230581Y-61910250D01*
X121235797Y-61931074D01*
X121238947Y-61952309D01*
X121240000Y-61973750D01*
X121240000Y-62486250D01*
X121238947Y-62507691D01*
X121235797Y-62528926D01*
X121230581Y-62549750D01*
X121223349Y-62569962D01*
X121214170Y-62589368D01*
X121203134Y-62607781D01*
X121190346Y-62625024D01*
X121175930Y-62640930D01*
X121160024Y-62655346D01*
X121142781Y-62668134D01*
X121124368Y-62679170D01*
X121104962Y-62688349D01*
X121084750Y-62695581D01*
X121063926Y-62700797D01*
X121042691Y-62703947D01*
X121021250Y-62705000D01*
X120583750Y-62705000D01*
X120562309Y-62703947D01*
X120541074Y-62700797D01*
X120520250Y-62695581D01*
X120500038Y-62688349D01*
X120480632Y-62679170D01*
X120462219Y-62668134D01*
X120444976Y-62655346D01*
X120429070Y-62640930D01*
X120414654Y-62625024D01*
X120401866Y-62607781D01*
X120390830Y-62589368D01*
X120381651Y-62569962D01*
X120374419Y-62549750D01*
X120369203Y-62528926D01*
X120366053Y-62507691D01*
X120365000Y-62486250D01*
X120365000Y-61973750D01*
X120366053Y-61952309D01*
X120369203Y-61931074D01*
X120374419Y-61910250D01*
X120381651Y-61890038D01*
X120390830Y-61870632D01*
X120401866Y-61852219D01*
X120414654Y-61834976D01*
X120429070Y-61819070D01*
X120444976Y-61804654D01*
X120462219Y-61791866D01*
X120480632Y-61780830D01*
X120500038Y-61771651D01*
X120520250Y-61764419D01*
X120541074Y-61759203D01*
X120562309Y-61756053D01*
X120583750Y-61755000D01*
X121021250Y-61755000D01*
X121042691Y-61756053D01*
X121042691Y-61756053D01*
G37*
D23*
X120802500Y-62230000D03*
D10*
G36*
X119467691Y-61756053D02*
X119488926Y-61759203D01*
X119509750Y-61764419D01*
X119529962Y-61771651D01*
X119549368Y-61780830D01*
X119567781Y-61791866D01*
X119585024Y-61804654D01*
X119600930Y-61819070D01*
X119615346Y-61834976D01*
X119628134Y-61852219D01*
X119639170Y-61870632D01*
X119648349Y-61890038D01*
X119655581Y-61910250D01*
X119660797Y-61931074D01*
X119663947Y-61952309D01*
X119665000Y-61973750D01*
X119665000Y-62486250D01*
X119663947Y-62507691D01*
X119660797Y-62528926D01*
X119655581Y-62549750D01*
X119648349Y-62569962D01*
X119639170Y-62589368D01*
X119628134Y-62607781D01*
X119615346Y-62625024D01*
X119600930Y-62640930D01*
X119585024Y-62655346D01*
X119567781Y-62668134D01*
X119549368Y-62679170D01*
X119529962Y-62688349D01*
X119509750Y-62695581D01*
X119488926Y-62700797D01*
X119467691Y-62703947D01*
X119446250Y-62705000D01*
X119008750Y-62705000D01*
X118987309Y-62703947D01*
X118966074Y-62700797D01*
X118945250Y-62695581D01*
X118925038Y-62688349D01*
X118905632Y-62679170D01*
X118887219Y-62668134D01*
X118869976Y-62655346D01*
X118854070Y-62640930D01*
X118839654Y-62625024D01*
X118826866Y-62607781D01*
X118815830Y-62589368D01*
X118806651Y-62569962D01*
X118799419Y-62549750D01*
X118794203Y-62528926D01*
X118791053Y-62507691D01*
X118790000Y-62486250D01*
X118790000Y-61973750D01*
X118791053Y-61952309D01*
X118794203Y-61931074D01*
X118799419Y-61910250D01*
X118806651Y-61890038D01*
X118815830Y-61870632D01*
X118826866Y-61852219D01*
X118839654Y-61834976D01*
X118854070Y-61819070D01*
X118869976Y-61804654D01*
X118887219Y-61791866D01*
X118905632Y-61780830D01*
X118925038Y-61771651D01*
X118945250Y-61764419D01*
X118966074Y-61759203D01*
X118987309Y-61756053D01*
X119008750Y-61755000D01*
X119446250Y-61755000D01*
X119467691Y-61756053D01*
X119467691Y-61756053D01*
G37*
D23*
X119227500Y-62230000D03*
G04 #@! TD*
D10*
G04 #@! TO.C,C40*
G36*
X103262691Y-58581053D02*
X103283926Y-58584203D01*
X103304750Y-58589419D01*
X103324962Y-58596651D01*
X103344368Y-58605830D01*
X103362781Y-58616866D01*
X103380024Y-58629654D01*
X103395930Y-58644070D01*
X103410346Y-58659976D01*
X103423134Y-58677219D01*
X103434170Y-58695632D01*
X103443349Y-58715038D01*
X103450581Y-58735250D01*
X103455797Y-58756074D01*
X103458947Y-58777309D01*
X103460000Y-58798750D01*
X103460000Y-59311250D01*
X103458947Y-59332691D01*
X103455797Y-59353926D01*
X103450581Y-59374750D01*
X103443349Y-59394962D01*
X103434170Y-59414368D01*
X103423134Y-59432781D01*
X103410346Y-59450024D01*
X103395930Y-59465930D01*
X103380024Y-59480346D01*
X103362781Y-59493134D01*
X103344368Y-59504170D01*
X103324962Y-59513349D01*
X103304750Y-59520581D01*
X103283926Y-59525797D01*
X103262691Y-59528947D01*
X103241250Y-59530000D01*
X102803750Y-59530000D01*
X102782309Y-59528947D01*
X102761074Y-59525797D01*
X102740250Y-59520581D01*
X102720038Y-59513349D01*
X102700632Y-59504170D01*
X102682219Y-59493134D01*
X102664976Y-59480346D01*
X102649070Y-59465930D01*
X102634654Y-59450024D01*
X102621866Y-59432781D01*
X102610830Y-59414368D01*
X102601651Y-59394962D01*
X102594419Y-59374750D01*
X102589203Y-59353926D01*
X102586053Y-59332691D01*
X102585000Y-59311250D01*
X102585000Y-58798750D01*
X102586053Y-58777309D01*
X102589203Y-58756074D01*
X102594419Y-58735250D01*
X102601651Y-58715038D01*
X102610830Y-58695632D01*
X102621866Y-58677219D01*
X102634654Y-58659976D01*
X102649070Y-58644070D01*
X102664976Y-58629654D01*
X102682219Y-58616866D01*
X102700632Y-58605830D01*
X102720038Y-58596651D01*
X102740250Y-58589419D01*
X102761074Y-58584203D01*
X102782309Y-58581053D01*
X102803750Y-58580000D01*
X103241250Y-58580000D01*
X103262691Y-58581053D01*
X103262691Y-58581053D01*
G37*
D23*
X103022500Y-59055000D03*
D10*
G36*
X104837691Y-58581053D02*
X104858926Y-58584203D01*
X104879750Y-58589419D01*
X104899962Y-58596651D01*
X104919368Y-58605830D01*
X104937781Y-58616866D01*
X104955024Y-58629654D01*
X104970930Y-58644070D01*
X104985346Y-58659976D01*
X104998134Y-58677219D01*
X105009170Y-58695632D01*
X105018349Y-58715038D01*
X105025581Y-58735250D01*
X105030797Y-58756074D01*
X105033947Y-58777309D01*
X105035000Y-58798750D01*
X105035000Y-59311250D01*
X105033947Y-59332691D01*
X105030797Y-59353926D01*
X105025581Y-59374750D01*
X105018349Y-59394962D01*
X105009170Y-59414368D01*
X104998134Y-59432781D01*
X104985346Y-59450024D01*
X104970930Y-59465930D01*
X104955024Y-59480346D01*
X104937781Y-59493134D01*
X104919368Y-59504170D01*
X104899962Y-59513349D01*
X104879750Y-59520581D01*
X104858926Y-59525797D01*
X104837691Y-59528947D01*
X104816250Y-59530000D01*
X104378750Y-59530000D01*
X104357309Y-59528947D01*
X104336074Y-59525797D01*
X104315250Y-59520581D01*
X104295038Y-59513349D01*
X104275632Y-59504170D01*
X104257219Y-59493134D01*
X104239976Y-59480346D01*
X104224070Y-59465930D01*
X104209654Y-59450024D01*
X104196866Y-59432781D01*
X104185830Y-59414368D01*
X104176651Y-59394962D01*
X104169419Y-59374750D01*
X104164203Y-59353926D01*
X104161053Y-59332691D01*
X104160000Y-59311250D01*
X104160000Y-58798750D01*
X104161053Y-58777309D01*
X104164203Y-58756074D01*
X104169419Y-58735250D01*
X104176651Y-58715038D01*
X104185830Y-58695632D01*
X104196866Y-58677219D01*
X104209654Y-58659976D01*
X104224070Y-58644070D01*
X104239976Y-58629654D01*
X104257219Y-58616866D01*
X104275632Y-58605830D01*
X104295038Y-58596651D01*
X104315250Y-58589419D01*
X104336074Y-58584203D01*
X104357309Y-58581053D01*
X104378750Y-58580000D01*
X104816250Y-58580000D01*
X104837691Y-58581053D01*
X104837691Y-58581053D01*
G37*
D23*
X104597500Y-59055000D03*
G04 #@! TD*
D10*
G04 #@! TO.C,C39*
G36*
X103262691Y-60486053D02*
X103283926Y-60489203D01*
X103304750Y-60494419D01*
X103324962Y-60501651D01*
X103344368Y-60510830D01*
X103362781Y-60521866D01*
X103380024Y-60534654D01*
X103395930Y-60549070D01*
X103410346Y-60564976D01*
X103423134Y-60582219D01*
X103434170Y-60600632D01*
X103443349Y-60620038D01*
X103450581Y-60640250D01*
X103455797Y-60661074D01*
X103458947Y-60682309D01*
X103460000Y-60703750D01*
X103460000Y-61216250D01*
X103458947Y-61237691D01*
X103455797Y-61258926D01*
X103450581Y-61279750D01*
X103443349Y-61299962D01*
X103434170Y-61319368D01*
X103423134Y-61337781D01*
X103410346Y-61355024D01*
X103395930Y-61370930D01*
X103380024Y-61385346D01*
X103362781Y-61398134D01*
X103344368Y-61409170D01*
X103324962Y-61418349D01*
X103304750Y-61425581D01*
X103283926Y-61430797D01*
X103262691Y-61433947D01*
X103241250Y-61435000D01*
X102803750Y-61435000D01*
X102782309Y-61433947D01*
X102761074Y-61430797D01*
X102740250Y-61425581D01*
X102720038Y-61418349D01*
X102700632Y-61409170D01*
X102682219Y-61398134D01*
X102664976Y-61385346D01*
X102649070Y-61370930D01*
X102634654Y-61355024D01*
X102621866Y-61337781D01*
X102610830Y-61319368D01*
X102601651Y-61299962D01*
X102594419Y-61279750D01*
X102589203Y-61258926D01*
X102586053Y-61237691D01*
X102585000Y-61216250D01*
X102585000Y-60703750D01*
X102586053Y-60682309D01*
X102589203Y-60661074D01*
X102594419Y-60640250D01*
X102601651Y-60620038D01*
X102610830Y-60600632D01*
X102621866Y-60582219D01*
X102634654Y-60564976D01*
X102649070Y-60549070D01*
X102664976Y-60534654D01*
X102682219Y-60521866D01*
X102700632Y-60510830D01*
X102720038Y-60501651D01*
X102740250Y-60494419D01*
X102761074Y-60489203D01*
X102782309Y-60486053D01*
X102803750Y-60485000D01*
X103241250Y-60485000D01*
X103262691Y-60486053D01*
X103262691Y-60486053D01*
G37*
D23*
X103022500Y-60960000D03*
D10*
G36*
X101687691Y-60486053D02*
X101708926Y-60489203D01*
X101729750Y-60494419D01*
X101749962Y-60501651D01*
X101769368Y-60510830D01*
X101787781Y-60521866D01*
X101805024Y-60534654D01*
X101820930Y-60549070D01*
X101835346Y-60564976D01*
X101848134Y-60582219D01*
X101859170Y-60600632D01*
X101868349Y-60620038D01*
X101875581Y-60640250D01*
X101880797Y-60661074D01*
X101883947Y-60682309D01*
X101885000Y-60703750D01*
X101885000Y-61216250D01*
X101883947Y-61237691D01*
X101880797Y-61258926D01*
X101875581Y-61279750D01*
X101868349Y-61299962D01*
X101859170Y-61319368D01*
X101848134Y-61337781D01*
X101835346Y-61355024D01*
X101820930Y-61370930D01*
X101805024Y-61385346D01*
X101787781Y-61398134D01*
X101769368Y-61409170D01*
X101749962Y-61418349D01*
X101729750Y-61425581D01*
X101708926Y-61430797D01*
X101687691Y-61433947D01*
X101666250Y-61435000D01*
X101228750Y-61435000D01*
X101207309Y-61433947D01*
X101186074Y-61430797D01*
X101165250Y-61425581D01*
X101145038Y-61418349D01*
X101125632Y-61409170D01*
X101107219Y-61398134D01*
X101089976Y-61385346D01*
X101074070Y-61370930D01*
X101059654Y-61355024D01*
X101046866Y-61337781D01*
X101035830Y-61319368D01*
X101026651Y-61299962D01*
X101019419Y-61279750D01*
X101014203Y-61258926D01*
X101011053Y-61237691D01*
X101010000Y-61216250D01*
X101010000Y-60703750D01*
X101011053Y-60682309D01*
X101014203Y-60661074D01*
X101019419Y-60640250D01*
X101026651Y-60620038D01*
X101035830Y-60600632D01*
X101046866Y-60582219D01*
X101059654Y-60564976D01*
X101074070Y-60549070D01*
X101089976Y-60534654D01*
X101107219Y-60521866D01*
X101125632Y-60510830D01*
X101145038Y-60501651D01*
X101165250Y-60494419D01*
X101186074Y-60489203D01*
X101207309Y-60486053D01*
X101228750Y-60485000D01*
X101666250Y-60485000D01*
X101687691Y-60486053D01*
X101687691Y-60486053D01*
G37*
D23*
X101447500Y-60960000D03*
G04 #@! TD*
D10*
G04 #@! TO.C,C38*
G36*
X103262691Y-62391053D02*
X103283926Y-62394203D01*
X103304750Y-62399419D01*
X103324962Y-62406651D01*
X103344368Y-62415830D01*
X103362781Y-62426866D01*
X103380024Y-62439654D01*
X103395930Y-62454070D01*
X103410346Y-62469976D01*
X103423134Y-62487219D01*
X103434170Y-62505632D01*
X103443349Y-62525038D01*
X103450581Y-62545250D01*
X103455797Y-62566074D01*
X103458947Y-62587309D01*
X103460000Y-62608750D01*
X103460000Y-63121250D01*
X103458947Y-63142691D01*
X103455797Y-63163926D01*
X103450581Y-63184750D01*
X103443349Y-63204962D01*
X103434170Y-63224368D01*
X103423134Y-63242781D01*
X103410346Y-63260024D01*
X103395930Y-63275930D01*
X103380024Y-63290346D01*
X103362781Y-63303134D01*
X103344368Y-63314170D01*
X103324962Y-63323349D01*
X103304750Y-63330581D01*
X103283926Y-63335797D01*
X103262691Y-63338947D01*
X103241250Y-63340000D01*
X102803750Y-63340000D01*
X102782309Y-63338947D01*
X102761074Y-63335797D01*
X102740250Y-63330581D01*
X102720038Y-63323349D01*
X102700632Y-63314170D01*
X102682219Y-63303134D01*
X102664976Y-63290346D01*
X102649070Y-63275930D01*
X102634654Y-63260024D01*
X102621866Y-63242781D01*
X102610830Y-63224368D01*
X102601651Y-63204962D01*
X102594419Y-63184750D01*
X102589203Y-63163926D01*
X102586053Y-63142691D01*
X102585000Y-63121250D01*
X102585000Y-62608750D01*
X102586053Y-62587309D01*
X102589203Y-62566074D01*
X102594419Y-62545250D01*
X102601651Y-62525038D01*
X102610830Y-62505632D01*
X102621866Y-62487219D01*
X102634654Y-62469976D01*
X102649070Y-62454070D01*
X102664976Y-62439654D01*
X102682219Y-62426866D01*
X102700632Y-62415830D01*
X102720038Y-62406651D01*
X102740250Y-62399419D01*
X102761074Y-62394203D01*
X102782309Y-62391053D01*
X102803750Y-62390000D01*
X103241250Y-62390000D01*
X103262691Y-62391053D01*
X103262691Y-62391053D01*
G37*
D23*
X103022500Y-62865000D03*
D10*
G36*
X101687691Y-62391053D02*
X101708926Y-62394203D01*
X101729750Y-62399419D01*
X101749962Y-62406651D01*
X101769368Y-62415830D01*
X101787781Y-62426866D01*
X101805024Y-62439654D01*
X101820930Y-62454070D01*
X101835346Y-62469976D01*
X101848134Y-62487219D01*
X101859170Y-62505632D01*
X101868349Y-62525038D01*
X101875581Y-62545250D01*
X101880797Y-62566074D01*
X101883947Y-62587309D01*
X101885000Y-62608750D01*
X101885000Y-63121250D01*
X101883947Y-63142691D01*
X101880797Y-63163926D01*
X101875581Y-63184750D01*
X101868349Y-63204962D01*
X101859170Y-63224368D01*
X101848134Y-63242781D01*
X101835346Y-63260024D01*
X101820930Y-63275930D01*
X101805024Y-63290346D01*
X101787781Y-63303134D01*
X101769368Y-63314170D01*
X101749962Y-63323349D01*
X101729750Y-63330581D01*
X101708926Y-63335797D01*
X101687691Y-63338947D01*
X101666250Y-63340000D01*
X101228750Y-63340000D01*
X101207309Y-63338947D01*
X101186074Y-63335797D01*
X101165250Y-63330581D01*
X101145038Y-63323349D01*
X101125632Y-63314170D01*
X101107219Y-63303134D01*
X101089976Y-63290346D01*
X101074070Y-63275930D01*
X101059654Y-63260024D01*
X101046866Y-63242781D01*
X101035830Y-63224368D01*
X101026651Y-63204962D01*
X101019419Y-63184750D01*
X101014203Y-63163926D01*
X101011053Y-63142691D01*
X101010000Y-63121250D01*
X101010000Y-62608750D01*
X101011053Y-62587309D01*
X101014203Y-62566074D01*
X101019419Y-62545250D01*
X101026651Y-62525038D01*
X101035830Y-62505632D01*
X101046866Y-62487219D01*
X101059654Y-62469976D01*
X101074070Y-62454070D01*
X101089976Y-62439654D01*
X101107219Y-62426866D01*
X101125632Y-62415830D01*
X101145038Y-62406651D01*
X101165250Y-62399419D01*
X101186074Y-62394203D01*
X101207309Y-62391053D01*
X101228750Y-62390000D01*
X101666250Y-62390000D01*
X101687691Y-62391053D01*
X101687691Y-62391053D01*
G37*
D23*
X101447500Y-62865000D03*
G04 #@! TD*
D10*
G04 #@! TO.C,C37*
G36*
X103440142Y-64706174D02*
X103463803Y-64709684D01*
X103487007Y-64715496D01*
X103509529Y-64723554D01*
X103531153Y-64733782D01*
X103551670Y-64746079D01*
X103570883Y-64760329D01*
X103588607Y-64776393D01*
X103604671Y-64794117D01*
X103618921Y-64813330D01*
X103631218Y-64833847D01*
X103641446Y-64855471D01*
X103649504Y-64877993D01*
X103655316Y-64901197D01*
X103658826Y-64924858D01*
X103660000Y-64948750D01*
X103660000Y-65861250D01*
X103658826Y-65885142D01*
X103655316Y-65908803D01*
X103649504Y-65932007D01*
X103641446Y-65954529D01*
X103631218Y-65976153D01*
X103618921Y-65996670D01*
X103604671Y-66015883D01*
X103588607Y-66033607D01*
X103570883Y-66049671D01*
X103551670Y-66063921D01*
X103531153Y-66076218D01*
X103509529Y-66086446D01*
X103487007Y-66094504D01*
X103463803Y-66100316D01*
X103440142Y-66103826D01*
X103416250Y-66105000D01*
X102928750Y-66105000D01*
X102904858Y-66103826D01*
X102881197Y-66100316D01*
X102857993Y-66094504D01*
X102835471Y-66086446D01*
X102813847Y-66076218D01*
X102793330Y-66063921D01*
X102774117Y-66049671D01*
X102756393Y-66033607D01*
X102740329Y-66015883D01*
X102726079Y-65996670D01*
X102713782Y-65976153D01*
X102703554Y-65954529D01*
X102695496Y-65932007D01*
X102689684Y-65908803D01*
X102686174Y-65885142D01*
X102685000Y-65861250D01*
X102685000Y-64948750D01*
X102686174Y-64924858D01*
X102689684Y-64901197D01*
X102695496Y-64877993D01*
X102703554Y-64855471D01*
X102713782Y-64833847D01*
X102726079Y-64813330D01*
X102740329Y-64794117D01*
X102756393Y-64776393D01*
X102774117Y-64760329D01*
X102793330Y-64746079D01*
X102813847Y-64733782D01*
X102835471Y-64723554D01*
X102857993Y-64715496D01*
X102881197Y-64709684D01*
X102904858Y-64706174D01*
X102928750Y-64705000D01*
X103416250Y-64705000D01*
X103440142Y-64706174D01*
X103440142Y-64706174D01*
G37*
D25*
X103172500Y-65405000D03*
D10*
G36*
X101565142Y-64706174D02*
X101588803Y-64709684D01*
X101612007Y-64715496D01*
X101634529Y-64723554D01*
X101656153Y-64733782D01*
X101676670Y-64746079D01*
X101695883Y-64760329D01*
X101713607Y-64776393D01*
X101729671Y-64794117D01*
X101743921Y-64813330D01*
X101756218Y-64833847D01*
X101766446Y-64855471D01*
X101774504Y-64877993D01*
X101780316Y-64901197D01*
X101783826Y-64924858D01*
X101785000Y-64948750D01*
X101785000Y-65861250D01*
X101783826Y-65885142D01*
X101780316Y-65908803D01*
X101774504Y-65932007D01*
X101766446Y-65954529D01*
X101756218Y-65976153D01*
X101743921Y-65996670D01*
X101729671Y-66015883D01*
X101713607Y-66033607D01*
X101695883Y-66049671D01*
X101676670Y-66063921D01*
X101656153Y-66076218D01*
X101634529Y-66086446D01*
X101612007Y-66094504D01*
X101588803Y-66100316D01*
X101565142Y-66103826D01*
X101541250Y-66105000D01*
X101053750Y-66105000D01*
X101029858Y-66103826D01*
X101006197Y-66100316D01*
X100982993Y-66094504D01*
X100960471Y-66086446D01*
X100938847Y-66076218D01*
X100918330Y-66063921D01*
X100899117Y-66049671D01*
X100881393Y-66033607D01*
X100865329Y-66015883D01*
X100851079Y-65996670D01*
X100838782Y-65976153D01*
X100828554Y-65954529D01*
X100820496Y-65932007D01*
X100814684Y-65908803D01*
X100811174Y-65885142D01*
X100810000Y-65861250D01*
X100810000Y-64948750D01*
X100811174Y-64924858D01*
X100814684Y-64901197D01*
X100820496Y-64877993D01*
X100828554Y-64855471D01*
X100838782Y-64833847D01*
X100851079Y-64813330D01*
X100865329Y-64794117D01*
X100881393Y-64776393D01*
X100899117Y-64760329D01*
X100918330Y-64746079D01*
X100938847Y-64733782D01*
X100960471Y-64723554D01*
X100982993Y-64715496D01*
X101006197Y-64709684D01*
X101029858Y-64706174D01*
X101053750Y-64705000D01*
X101541250Y-64705000D01*
X101565142Y-64706174D01*
X101565142Y-64706174D01*
G37*
D25*
X101297500Y-65405000D03*
G04 #@! TD*
D10*
G04 #@! TO.C,C36*
G36*
X103262691Y-72551053D02*
X103283926Y-72554203D01*
X103304750Y-72559419D01*
X103324962Y-72566651D01*
X103344368Y-72575830D01*
X103362781Y-72586866D01*
X103380024Y-72599654D01*
X103395930Y-72614070D01*
X103410346Y-72629976D01*
X103423134Y-72647219D01*
X103434170Y-72665632D01*
X103443349Y-72685038D01*
X103450581Y-72705250D01*
X103455797Y-72726074D01*
X103458947Y-72747309D01*
X103460000Y-72768750D01*
X103460000Y-73281250D01*
X103458947Y-73302691D01*
X103455797Y-73323926D01*
X103450581Y-73344750D01*
X103443349Y-73364962D01*
X103434170Y-73384368D01*
X103423134Y-73402781D01*
X103410346Y-73420024D01*
X103395930Y-73435930D01*
X103380024Y-73450346D01*
X103362781Y-73463134D01*
X103344368Y-73474170D01*
X103324962Y-73483349D01*
X103304750Y-73490581D01*
X103283926Y-73495797D01*
X103262691Y-73498947D01*
X103241250Y-73500000D01*
X102803750Y-73500000D01*
X102782309Y-73498947D01*
X102761074Y-73495797D01*
X102740250Y-73490581D01*
X102720038Y-73483349D01*
X102700632Y-73474170D01*
X102682219Y-73463134D01*
X102664976Y-73450346D01*
X102649070Y-73435930D01*
X102634654Y-73420024D01*
X102621866Y-73402781D01*
X102610830Y-73384368D01*
X102601651Y-73364962D01*
X102594419Y-73344750D01*
X102589203Y-73323926D01*
X102586053Y-73302691D01*
X102585000Y-73281250D01*
X102585000Y-72768750D01*
X102586053Y-72747309D01*
X102589203Y-72726074D01*
X102594419Y-72705250D01*
X102601651Y-72685038D01*
X102610830Y-72665632D01*
X102621866Y-72647219D01*
X102634654Y-72629976D01*
X102649070Y-72614070D01*
X102664976Y-72599654D01*
X102682219Y-72586866D01*
X102700632Y-72575830D01*
X102720038Y-72566651D01*
X102740250Y-72559419D01*
X102761074Y-72554203D01*
X102782309Y-72551053D01*
X102803750Y-72550000D01*
X103241250Y-72550000D01*
X103262691Y-72551053D01*
X103262691Y-72551053D01*
G37*
D23*
X103022500Y-73025000D03*
D10*
G36*
X101687691Y-72551053D02*
X101708926Y-72554203D01*
X101729750Y-72559419D01*
X101749962Y-72566651D01*
X101769368Y-72575830D01*
X101787781Y-72586866D01*
X101805024Y-72599654D01*
X101820930Y-72614070D01*
X101835346Y-72629976D01*
X101848134Y-72647219D01*
X101859170Y-72665632D01*
X101868349Y-72685038D01*
X101875581Y-72705250D01*
X101880797Y-72726074D01*
X101883947Y-72747309D01*
X101885000Y-72768750D01*
X101885000Y-73281250D01*
X101883947Y-73302691D01*
X101880797Y-73323926D01*
X101875581Y-73344750D01*
X101868349Y-73364962D01*
X101859170Y-73384368D01*
X101848134Y-73402781D01*
X101835346Y-73420024D01*
X101820930Y-73435930D01*
X101805024Y-73450346D01*
X101787781Y-73463134D01*
X101769368Y-73474170D01*
X101749962Y-73483349D01*
X101729750Y-73490581D01*
X101708926Y-73495797D01*
X101687691Y-73498947D01*
X101666250Y-73500000D01*
X101228750Y-73500000D01*
X101207309Y-73498947D01*
X101186074Y-73495797D01*
X101165250Y-73490581D01*
X101145038Y-73483349D01*
X101125632Y-73474170D01*
X101107219Y-73463134D01*
X101089976Y-73450346D01*
X101074070Y-73435930D01*
X101059654Y-73420024D01*
X101046866Y-73402781D01*
X101035830Y-73384368D01*
X101026651Y-73364962D01*
X101019419Y-73344750D01*
X101014203Y-73323926D01*
X101011053Y-73302691D01*
X101010000Y-73281250D01*
X101010000Y-72768750D01*
X101011053Y-72747309D01*
X101014203Y-72726074D01*
X101019419Y-72705250D01*
X101026651Y-72685038D01*
X101035830Y-72665632D01*
X101046866Y-72647219D01*
X101059654Y-72629976D01*
X101074070Y-72614070D01*
X101089976Y-72599654D01*
X101107219Y-72586866D01*
X101125632Y-72575830D01*
X101145038Y-72566651D01*
X101165250Y-72559419D01*
X101186074Y-72554203D01*
X101207309Y-72551053D01*
X101228750Y-72550000D01*
X101666250Y-72550000D01*
X101687691Y-72551053D01*
X101687691Y-72551053D01*
G37*
D23*
X101447500Y-73025000D03*
G04 #@! TD*
D10*
G04 #@! TO.C,C35*
G36*
X103262691Y-74456053D02*
X103283926Y-74459203D01*
X103304750Y-74464419D01*
X103324962Y-74471651D01*
X103344368Y-74480830D01*
X103362781Y-74491866D01*
X103380024Y-74504654D01*
X103395930Y-74519070D01*
X103410346Y-74534976D01*
X103423134Y-74552219D01*
X103434170Y-74570632D01*
X103443349Y-74590038D01*
X103450581Y-74610250D01*
X103455797Y-74631074D01*
X103458947Y-74652309D01*
X103460000Y-74673750D01*
X103460000Y-75186250D01*
X103458947Y-75207691D01*
X103455797Y-75228926D01*
X103450581Y-75249750D01*
X103443349Y-75269962D01*
X103434170Y-75289368D01*
X103423134Y-75307781D01*
X103410346Y-75325024D01*
X103395930Y-75340930D01*
X103380024Y-75355346D01*
X103362781Y-75368134D01*
X103344368Y-75379170D01*
X103324962Y-75388349D01*
X103304750Y-75395581D01*
X103283926Y-75400797D01*
X103262691Y-75403947D01*
X103241250Y-75405000D01*
X102803750Y-75405000D01*
X102782309Y-75403947D01*
X102761074Y-75400797D01*
X102740250Y-75395581D01*
X102720038Y-75388349D01*
X102700632Y-75379170D01*
X102682219Y-75368134D01*
X102664976Y-75355346D01*
X102649070Y-75340930D01*
X102634654Y-75325024D01*
X102621866Y-75307781D01*
X102610830Y-75289368D01*
X102601651Y-75269962D01*
X102594419Y-75249750D01*
X102589203Y-75228926D01*
X102586053Y-75207691D01*
X102585000Y-75186250D01*
X102585000Y-74673750D01*
X102586053Y-74652309D01*
X102589203Y-74631074D01*
X102594419Y-74610250D01*
X102601651Y-74590038D01*
X102610830Y-74570632D01*
X102621866Y-74552219D01*
X102634654Y-74534976D01*
X102649070Y-74519070D01*
X102664976Y-74504654D01*
X102682219Y-74491866D01*
X102700632Y-74480830D01*
X102720038Y-74471651D01*
X102740250Y-74464419D01*
X102761074Y-74459203D01*
X102782309Y-74456053D01*
X102803750Y-74455000D01*
X103241250Y-74455000D01*
X103262691Y-74456053D01*
X103262691Y-74456053D01*
G37*
D23*
X103022500Y-74930000D03*
D10*
G36*
X101687691Y-74456053D02*
X101708926Y-74459203D01*
X101729750Y-74464419D01*
X101749962Y-74471651D01*
X101769368Y-74480830D01*
X101787781Y-74491866D01*
X101805024Y-74504654D01*
X101820930Y-74519070D01*
X101835346Y-74534976D01*
X101848134Y-74552219D01*
X101859170Y-74570632D01*
X101868349Y-74590038D01*
X101875581Y-74610250D01*
X101880797Y-74631074D01*
X101883947Y-74652309D01*
X101885000Y-74673750D01*
X101885000Y-75186250D01*
X101883947Y-75207691D01*
X101880797Y-75228926D01*
X101875581Y-75249750D01*
X101868349Y-75269962D01*
X101859170Y-75289368D01*
X101848134Y-75307781D01*
X101835346Y-75325024D01*
X101820930Y-75340930D01*
X101805024Y-75355346D01*
X101787781Y-75368134D01*
X101769368Y-75379170D01*
X101749962Y-75388349D01*
X101729750Y-75395581D01*
X101708926Y-75400797D01*
X101687691Y-75403947D01*
X101666250Y-75405000D01*
X101228750Y-75405000D01*
X101207309Y-75403947D01*
X101186074Y-75400797D01*
X101165250Y-75395581D01*
X101145038Y-75388349D01*
X101125632Y-75379170D01*
X101107219Y-75368134D01*
X101089976Y-75355346D01*
X101074070Y-75340930D01*
X101059654Y-75325024D01*
X101046866Y-75307781D01*
X101035830Y-75289368D01*
X101026651Y-75269962D01*
X101019419Y-75249750D01*
X101014203Y-75228926D01*
X101011053Y-75207691D01*
X101010000Y-75186250D01*
X101010000Y-74673750D01*
X101011053Y-74652309D01*
X101014203Y-74631074D01*
X101019419Y-74610250D01*
X101026651Y-74590038D01*
X101035830Y-74570632D01*
X101046866Y-74552219D01*
X101059654Y-74534976D01*
X101074070Y-74519070D01*
X101089976Y-74504654D01*
X101107219Y-74491866D01*
X101125632Y-74480830D01*
X101145038Y-74471651D01*
X101165250Y-74464419D01*
X101186074Y-74459203D01*
X101207309Y-74456053D01*
X101228750Y-74455000D01*
X101666250Y-74455000D01*
X101687691Y-74456053D01*
X101687691Y-74456053D01*
G37*
D23*
X101447500Y-74930000D03*
G04 #@! TD*
D10*
G04 #@! TO.C,C34*
G36*
X103262691Y-80806053D02*
X103283926Y-80809203D01*
X103304750Y-80814419D01*
X103324962Y-80821651D01*
X103344368Y-80830830D01*
X103362781Y-80841866D01*
X103380024Y-80854654D01*
X103395930Y-80869070D01*
X103410346Y-80884976D01*
X103423134Y-80902219D01*
X103434170Y-80920632D01*
X103443349Y-80940038D01*
X103450581Y-80960250D01*
X103455797Y-80981074D01*
X103458947Y-81002309D01*
X103460000Y-81023750D01*
X103460000Y-81536250D01*
X103458947Y-81557691D01*
X103455797Y-81578926D01*
X103450581Y-81599750D01*
X103443349Y-81619962D01*
X103434170Y-81639368D01*
X103423134Y-81657781D01*
X103410346Y-81675024D01*
X103395930Y-81690930D01*
X103380024Y-81705346D01*
X103362781Y-81718134D01*
X103344368Y-81729170D01*
X103324962Y-81738349D01*
X103304750Y-81745581D01*
X103283926Y-81750797D01*
X103262691Y-81753947D01*
X103241250Y-81755000D01*
X102803750Y-81755000D01*
X102782309Y-81753947D01*
X102761074Y-81750797D01*
X102740250Y-81745581D01*
X102720038Y-81738349D01*
X102700632Y-81729170D01*
X102682219Y-81718134D01*
X102664976Y-81705346D01*
X102649070Y-81690930D01*
X102634654Y-81675024D01*
X102621866Y-81657781D01*
X102610830Y-81639368D01*
X102601651Y-81619962D01*
X102594419Y-81599750D01*
X102589203Y-81578926D01*
X102586053Y-81557691D01*
X102585000Y-81536250D01*
X102585000Y-81023750D01*
X102586053Y-81002309D01*
X102589203Y-80981074D01*
X102594419Y-80960250D01*
X102601651Y-80940038D01*
X102610830Y-80920632D01*
X102621866Y-80902219D01*
X102634654Y-80884976D01*
X102649070Y-80869070D01*
X102664976Y-80854654D01*
X102682219Y-80841866D01*
X102700632Y-80830830D01*
X102720038Y-80821651D01*
X102740250Y-80814419D01*
X102761074Y-80809203D01*
X102782309Y-80806053D01*
X102803750Y-80805000D01*
X103241250Y-80805000D01*
X103262691Y-80806053D01*
X103262691Y-80806053D01*
G37*
D23*
X103022500Y-81280000D03*
D10*
G36*
X101687691Y-80806053D02*
X101708926Y-80809203D01*
X101729750Y-80814419D01*
X101749962Y-80821651D01*
X101769368Y-80830830D01*
X101787781Y-80841866D01*
X101805024Y-80854654D01*
X101820930Y-80869070D01*
X101835346Y-80884976D01*
X101848134Y-80902219D01*
X101859170Y-80920632D01*
X101868349Y-80940038D01*
X101875581Y-80960250D01*
X101880797Y-80981074D01*
X101883947Y-81002309D01*
X101885000Y-81023750D01*
X101885000Y-81536250D01*
X101883947Y-81557691D01*
X101880797Y-81578926D01*
X101875581Y-81599750D01*
X101868349Y-81619962D01*
X101859170Y-81639368D01*
X101848134Y-81657781D01*
X101835346Y-81675024D01*
X101820930Y-81690930D01*
X101805024Y-81705346D01*
X101787781Y-81718134D01*
X101769368Y-81729170D01*
X101749962Y-81738349D01*
X101729750Y-81745581D01*
X101708926Y-81750797D01*
X101687691Y-81753947D01*
X101666250Y-81755000D01*
X101228750Y-81755000D01*
X101207309Y-81753947D01*
X101186074Y-81750797D01*
X101165250Y-81745581D01*
X101145038Y-81738349D01*
X101125632Y-81729170D01*
X101107219Y-81718134D01*
X101089976Y-81705346D01*
X101074070Y-81690930D01*
X101059654Y-81675024D01*
X101046866Y-81657781D01*
X101035830Y-81639368D01*
X101026651Y-81619962D01*
X101019419Y-81599750D01*
X101014203Y-81578926D01*
X101011053Y-81557691D01*
X101010000Y-81536250D01*
X101010000Y-81023750D01*
X101011053Y-81002309D01*
X101014203Y-80981074D01*
X101019419Y-80960250D01*
X101026651Y-80940038D01*
X101035830Y-80920632D01*
X101046866Y-80902219D01*
X101059654Y-80884976D01*
X101074070Y-80869070D01*
X101089976Y-80854654D01*
X101107219Y-80841866D01*
X101125632Y-80830830D01*
X101145038Y-80821651D01*
X101165250Y-80814419D01*
X101186074Y-80809203D01*
X101207309Y-80806053D01*
X101228750Y-80805000D01*
X101666250Y-80805000D01*
X101687691Y-80806053D01*
X101687691Y-80806053D01*
G37*
D23*
X101447500Y-81280000D03*
G04 #@! TD*
D10*
G04 #@! TO.C,C33*
G36*
X103262691Y-82711053D02*
X103283926Y-82714203D01*
X103304750Y-82719419D01*
X103324962Y-82726651D01*
X103344368Y-82735830D01*
X103362781Y-82746866D01*
X103380024Y-82759654D01*
X103395930Y-82774070D01*
X103410346Y-82789976D01*
X103423134Y-82807219D01*
X103434170Y-82825632D01*
X103443349Y-82845038D01*
X103450581Y-82865250D01*
X103455797Y-82886074D01*
X103458947Y-82907309D01*
X103460000Y-82928750D01*
X103460000Y-83441250D01*
X103458947Y-83462691D01*
X103455797Y-83483926D01*
X103450581Y-83504750D01*
X103443349Y-83524962D01*
X103434170Y-83544368D01*
X103423134Y-83562781D01*
X103410346Y-83580024D01*
X103395930Y-83595930D01*
X103380024Y-83610346D01*
X103362781Y-83623134D01*
X103344368Y-83634170D01*
X103324962Y-83643349D01*
X103304750Y-83650581D01*
X103283926Y-83655797D01*
X103262691Y-83658947D01*
X103241250Y-83660000D01*
X102803750Y-83660000D01*
X102782309Y-83658947D01*
X102761074Y-83655797D01*
X102740250Y-83650581D01*
X102720038Y-83643349D01*
X102700632Y-83634170D01*
X102682219Y-83623134D01*
X102664976Y-83610346D01*
X102649070Y-83595930D01*
X102634654Y-83580024D01*
X102621866Y-83562781D01*
X102610830Y-83544368D01*
X102601651Y-83524962D01*
X102594419Y-83504750D01*
X102589203Y-83483926D01*
X102586053Y-83462691D01*
X102585000Y-83441250D01*
X102585000Y-82928750D01*
X102586053Y-82907309D01*
X102589203Y-82886074D01*
X102594419Y-82865250D01*
X102601651Y-82845038D01*
X102610830Y-82825632D01*
X102621866Y-82807219D01*
X102634654Y-82789976D01*
X102649070Y-82774070D01*
X102664976Y-82759654D01*
X102682219Y-82746866D01*
X102700632Y-82735830D01*
X102720038Y-82726651D01*
X102740250Y-82719419D01*
X102761074Y-82714203D01*
X102782309Y-82711053D01*
X102803750Y-82710000D01*
X103241250Y-82710000D01*
X103262691Y-82711053D01*
X103262691Y-82711053D01*
G37*
D23*
X103022500Y-83185000D03*
D10*
G36*
X101687691Y-82711053D02*
X101708926Y-82714203D01*
X101729750Y-82719419D01*
X101749962Y-82726651D01*
X101769368Y-82735830D01*
X101787781Y-82746866D01*
X101805024Y-82759654D01*
X101820930Y-82774070D01*
X101835346Y-82789976D01*
X101848134Y-82807219D01*
X101859170Y-82825632D01*
X101868349Y-82845038D01*
X101875581Y-82865250D01*
X101880797Y-82886074D01*
X101883947Y-82907309D01*
X101885000Y-82928750D01*
X101885000Y-83441250D01*
X101883947Y-83462691D01*
X101880797Y-83483926D01*
X101875581Y-83504750D01*
X101868349Y-83524962D01*
X101859170Y-83544368D01*
X101848134Y-83562781D01*
X101835346Y-83580024D01*
X101820930Y-83595930D01*
X101805024Y-83610346D01*
X101787781Y-83623134D01*
X101769368Y-83634170D01*
X101749962Y-83643349D01*
X101729750Y-83650581D01*
X101708926Y-83655797D01*
X101687691Y-83658947D01*
X101666250Y-83660000D01*
X101228750Y-83660000D01*
X101207309Y-83658947D01*
X101186074Y-83655797D01*
X101165250Y-83650581D01*
X101145038Y-83643349D01*
X101125632Y-83634170D01*
X101107219Y-83623134D01*
X101089976Y-83610346D01*
X101074070Y-83595930D01*
X101059654Y-83580024D01*
X101046866Y-83562781D01*
X101035830Y-83544368D01*
X101026651Y-83524962D01*
X101019419Y-83504750D01*
X101014203Y-83483926D01*
X101011053Y-83462691D01*
X101010000Y-83441250D01*
X101010000Y-82928750D01*
X101011053Y-82907309D01*
X101014203Y-82886074D01*
X101019419Y-82865250D01*
X101026651Y-82845038D01*
X101035830Y-82825632D01*
X101046866Y-82807219D01*
X101059654Y-82789976D01*
X101074070Y-82774070D01*
X101089976Y-82759654D01*
X101107219Y-82746866D01*
X101125632Y-82735830D01*
X101145038Y-82726651D01*
X101165250Y-82719419D01*
X101186074Y-82714203D01*
X101207309Y-82711053D01*
X101228750Y-82710000D01*
X101666250Y-82710000D01*
X101687691Y-82711053D01*
X101687691Y-82711053D01*
G37*
D23*
X101447500Y-83185000D03*
G04 #@! TD*
D24*
G04 #@! TO.C,C32*
X151445000Y-100330000D03*
X149545000Y-100330000D03*
G04 #@! TD*
G04 #@! TO.C,C29*
X165415000Y-100330000D03*
X163515000Y-100330000D03*
G04 #@! TD*
G04 #@! TO.C,C26*
X179385000Y-100330000D03*
X177485000Y-100330000D03*
G04 #@! TD*
G04 #@! TO.C,C23*
X193355000Y-100330000D03*
X191455000Y-100330000D03*
G04 #@! TD*
G04 #@! TO.C,C20*
X207325000Y-100330000D03*
X205425000Y-100330000D03*
G04 #@! TD*
G04 #@! TO.C,C17*
X194630000Y-57785000D03*
X196530000Y-57785000D03*
G04 #@! TD*
G04 #@! TO.C,C14*
X180660000Y-57785000D03*
X182560000Y-57785000D03*
G04 #@! TD*
G04 #@! TO.C,C11*
X166690000Y-57785000D03*
X168590000Y-57785000D03*
G04 #@! TD*
G04 #@! TO.C,C8*
X152720000Y-57785000D03*
X154620000Y-57785000D03*
G04 #@! TD*
D20*
G04 #@! TO.C,C1*
X119034684Y-96001814D03*
X119034684Y-94101814D03*
G04 #@! TD*
G04 #@! TO.C,C2*
X126019684Y-96001814D03*
X126019684Y-94101814D03*
G04 #@! TD*
G04 #@! TO.C,C3*
X150495000Y-60010000D03*
X150495000Y-61910000D03*
G04 #@! TD*
G04 #@! TO.C,C4*
X148590000Y-58105000D03*
X148590000Y-60005000D03*
G04 #@! TD*
D24*
G04 #@! TO.C,C5*
X138750000Y-57785000D03*
X140650000Y-57785000D03*
G04 #@! TD*
D20*
G04 #@! TO.C,C6*
X164465000Y-60010000D03*
X164465000Y-61910000D03*
G04 #@! TD*
G04 #@! TO.C,C7*
X162560000Y-58105000D03*
X162560000Y-60005000D03*
G04 #@! TD*
G04 #@! TO.C,C9*
X178435000Y-60010000D03*
X178435000Y-61910000D03*
G04 #@! TD*
G04 #@! TO.C,C10*
X176530000Y-58105000D03*
X176530000Y-60005000D03*
G04 #@! TD*
G04 #@! TO.C,C12*
X192405000Y-60010000D03*
X192405000Y-61910000D03*
G04 #@! TD*
G04 #@! TO.C,C13*
X190500000Y-58105000D03*
X190500000Y-60005000D03*
G04 #@! TD*
G04 #@! TO.C,C15*
X206375000Y-60010000D03*
X206375000Y-61910000D03*
G04 #@! TD*
G04 #@! TO.C,C16*
X204470000Y-58105000D03*
X204470000Y-60005000D03*
G04 #@! TD*
G04 #@! TO.C,C18*
X195580000Y-98105000D03*
X195580000Y-96205000D03*
G04 #@! TD*
G04 #@! TO.C,C19*
X197485000Y-100010000D03*
X197485000Y-98110000D03*
G04 #@! TD*
G04 #@! TO.C,C21*
X181610000Y-98105000D03*
X181610000Y-96205000D03*
G04 #@! TD*
G04 #@! TO.C,C22*
X183515000Y-100010000D03*
X183515000Y-98110000D03*
G04 #@! TD*
G04 #@! TO.C,C24*
X167640000Y-98105000D03*
X167640000Y-96205000D03*
G04 #@! TD*
G04 #@! TO.C,C25*
X169545000Y-100010000D03*
X169545000Y-98110000D03*
G04 #@! TD*
G04 #@! TO.C,C27*
X153670000Y-98105000D03*
X153670000Y-96205000D03*
G04 #@! TD*
G04 #@! TO.C,C28*
X155575000Y-100010000D03*
X155575000Y-98110000D03*
G04 #@! TD*
G04 #@! TO.C,C30*
X139700000Y-98105000D03*
X139700000Y-96205000D03*
G04 #@! TD*
G04 #@! TO.C,C31*
X141605000Y-100010000D03*
X141605000Y-98110000D03*
G04 #@! TD*
D19*
G04 #@! TO.C,D4*
X153035000Y-67945000D03*
X153035000Y-70485000D03*
G04 #@! TD*
G04 #@! TO.C,D5*
X156845000Y-67945000D03*
X156845000Y-70485000D03*
G04 #@! TD*
G04 #@! TO.C,D6*
X160655000Y-67945000D03*
X160655000Y-70485000D03*
G04 #@! TD*
G04 #@! TO.C,D7*
X167005000Y-67945000D03*
X167005000Y-70485000D03*
G04 #@! TD*
G04 #@! TO.C,D8*
X170815000Y-67945000D03*
X170815000Y-70485000D03*
G04 #@! TD*
G04 #@! TO.C,D9*
X174625000Y-67945000D03*
X174625000Y-70485000D03*
G04 #@! TD*
G04 #@! TO.C,D10*
X180975000Y-67945000D03*
X180975000Y-70485000D03*
G04 #@! TD*
G04 #@! TO.C,D11*
X184785000Y-67945000D03*
X184785000Y-70485000D03*
G04 #@! TD*
G04 #@! TO.C,D12*
X188595000Y-67945000D03*
X188595000Y-70485000D03*
G04 #@! TD*
G04 #@! TO.C,D13*
X194945000Y-67945000D03*
X194945000Y-70485000D03*
G04 #@! TD*
G04 #@! TO.C,D14*
X198755000Y-67945000D03*
X198755000Y-70485000D03*
G04 #@! TD*
G04 #@! TO.C,D15*
X202565000Y-67945000D03*
X202565000Y-70485000D03*
G04 #@! TD*
G04 #@! TO.C,D16*
X207010000Y-90170000D03*
X207010000Y-87630000D03*
G04 #@! TD*
G04 #@! TO.C,D17*
X203200000Y-90170000D03*
X203200000Y-87630000D03*
G04 #@! TD*
G04 #@! TO.C,D18*
X199390000Y-90170000D03*
X199390000Y-87630000D03*
G04 #@! TD*
G04 #@! TO.C,D19*
X193040000Y-90170000D03*
X193040000Y-87630000D03*
G04 #@! TD*
G04 #@! TO.C,D20*
X189230000Y-90170000D03*
X189230000Y-87630000D03*
G04 #@! TD*
G04 #@! TO.C,D21*
X185420000Y-90170000D03*
X185420000Y-87630000D03*
G04 #@! TD*
G04 #@! TO.C,D22*
X179070000Y-90170000D03*
X179070000Y-87630000D03*
G04 #@! TD*
G04 #@! TO.C,D23*
X175260000Y-90170000D03*
X175260000Y-87630000D03*
G04 #@! TD*
G04 #@! TO.C,D24*
X171450000Y-90170000D03*
X171450000Y-87630000D03*
G04 #@! TD*
G04 #@! TO.C,D25*
X165100000Y-90170000D03*
X165100000Y-87630000D03*
G04 #@! TD*
G04 #@! TO.C,D26*
X161290000Y-90170000D03*
X161290000Y-87630000D03*
G04 #@! TD*
G04 #@! TO.C,D27*
X157480000Y-90170000D03*
X157480000Y-87630000D03*
G04 #@! TD*
G04 #@! TO.C,D28*
X151130000Y-90170000D03*
X151130000Y-87630000D03*
G04 #@! TD*
G04 #@! TO.C,D29*
X147320000Y-90170000D03*
X147320000Y-87630000D03*
G04 #@! TD*
G04 #@! TO.C,D30*
X143510000Y-90170000D03*
X143510000Y-87630000D03*
G04 #@! TD*
D20*
G04 #@! TO.C,FB1*
X146685000Y-61910000D03*
X146685000Y-60010000D03*
G04 #@! TD*
G04 #@! TO.C,FB2*
X160655000Y-61910000D03*
X160655000Y-60010000D03*
G04 #@! TD*
G04 #@! TO.C,FB3*
X174625000Y-61910000D03*
X174625000Y-60010000D03*
G04 #@! TD*
G04 #@! TO.C,FB4*
X188595000Y-61910000D03*
X188595000Y-60010000D03*
G04 #@! TD*
G04 #@! TO.C,FB5*
X202565000Y-61910000D03*
X202565000Y-60010000D03*
G04 #@! TD*
G04 #@! TO.C,FB6*
X199390000Y-96205000D03*
X199390000Y-98105000D03*
G04 #@! TD*
G04 #@! TO.C,FB7*
X185420000Y-96205000D03*
X185420000Y-98105000D03*
G04 #@! TD*
G04 #@! TO.C,FB8*
X171450000Y-96205000D03*
X171450000Y-98105000D03*
G04 #@! TD*
G04 #@! TO.C,FB9*
X157480000Y-96205000D03*
X157480000Y-98105000D03*
G04 #@! TD*
G04 #@! TO.C,FB10*
X143510000Y-96205000D03*
X143510000Y-98105000D03*
G04 #@! TD*
D24*
G04 #@! TO.C,R4*
X144460000Y-57785000D03*
X142560000Y-57785000D03*
G04 #@! TD*
D20*
G04 #@! TO.C,R5*
X158750000Y-69530000D03*
X158750000Y-67630000D03*
G04 #@! TD*
G04 #@! TO.C,R6*
X162560000Y-69530000D03*
X162560000Y-67630000D03*
G04 #@! TD*
G04 #@! TO.C,R7*
X154940000Y-69530000D03*
X154940000Y-67630000D03*
G04 #@! TD*
G04 #@! TO.C,R9*
X172720000Y-69530000D03*
X172720000Y-67630000D03*
G04 #@! TD*
G04 #@! TO.C,R10*
X176530000Y-69530000D03*
X176530000Y-67630000D03*
G04 #@! TD*
G04 #@! TO.C,R11*
X168910000Y-69530000D03*
X168910000Y-67630000D03*
G04 #@! TD*
G04 #@! TO.C,R13*
X186690000Y-69530000D03*
X186690000Y-67630000D03*
G04 #@! TD*
G04 #@! TO.C,R14*
X190500000Y-69530000D03*
X190500000Y-67630000D03*
G04 #@! TD*
G04 #@! TO.C,R15*
X182880000Y-69530000D03*
X182880000Y-67630000D03*
G04 #@! TD*
G04 #@! TO.C,R17*
X200660000Y-69530000D03*
X200660000Y-67630000D03*
G04 #@! TD*
G04 #@! TO.C,R18*
X204470000Y-69530000D03*
X204470000Y-67630000D03*
G04 #@! TD*
G04 #@! TO.C,R19*
X196850000Y-69530000D03*
X196850000Y-67630000D03*
G04 #@! TD*
G04 #@! TO.C,R21*
X201295000Y-88585000D03*
X201295000Y-90485000D03*
G04 #@! TD*
G04 #@! TO.C,R22*
X197485000Y-88585000D03*
X197485000Y-90485000D03*
G04 #@! TD*
G04 #@! TO.C,R23*
X205105000Y-88585000D03*
X205105000Y-90485000D03*
G04 #@! TD*
G04 #@! TO.C,R25*
X187325000Y-88585000D03*
X187325000Y-90485000D03*
G04 #@! TD*
G04 #@! TO.C,R26*
X183515000Y-88585000D03*
X183515000Y-90485000D03*
G04 #@! TD*
G04 #@! TO.C,R27*
X191135000Y-88585000D03*
X191135000Y-90485000D03*
G04 #@! TD*
G04 #@! TO.C,R29*
X173355000Y-88585000D03*
X173355000Y-90485000D03*
G04 #@! TD*
G04 #@! TO.C,R30*
X169545000Y-88585000D03*
X169545000Y-90485000D03*
G04 #@! TD*
G04 #@! TO.C,R31*
X177165000Y-88585000D03*
X177165000Y-90485000D03*
G04 #@! TD*
G04 #@! TO.C,R33*
X159385000Y-88585000D03*
X159385000Y-90485000D03*
G04 #@! TD*
G04 #@! TO.C,R34*
X155575000Y-88585000D03*
X155575000Y-90485000D03*
G04 #@! TD*
G04 #@! TO.C,R35*
X163195000Y-88585000D03*
X163195000Y-90485000D03*
G04 #@! TD*
G04 #@! TO.C,R37*
X145415000Y-88585000D03*
X145415000Y-90485000D03*
G04 #@! TD*
G04 #@! TO.C,R38*
X141605000Y-88585000D03*
X141605000Y-90485000D03*
G04 #@! TD*
G04 #@! TO.C,R39*
X149225000Y-88585000D03*
X149225000Y-90485000D03*
G04 #@! TD*
D26*
G04 #@! TO.C,U5*
X121544584Y-94101814D03*
X121544584Y-95051814D03*
X121544584Y-96001814D03*
X124144784Y-96001814D03*
X124144784Y-94101814D03*
G04 #@! TD*
D27*
G04 #@! TO.C,U6*
X143540000Y-64570000D03*
X142890000Y-64570000D03*
X142240000Y-64570000D03*
X141590000Y-64570000D03*
X140940000Y-64570000D03*
D28*
X139900000Y-63530000D03*
X139900000Y-62880000D03*
X139900000Y-62230000D03*
X139900000Y-61580000D03*
X139900000Y-60930000D03*
D27*
X140940000Y-59890000D03*
X141590000Y-59890000D03*
X142240000Y-59890000D03*
X142890000Y-59890000D03*
X143540000Y-59890000D03*
D28*
X144580000Y-60930000D03*
X144580000Y-61580000D03*
X144580000Y-62230000D03*
X144580000Y-62880000D03*
X144580000Y-63530000D03*
G04 #@! TD*
D27*
G04 #@! TO.C,U7*
X157510000Y-64570000D03*
X156860000Y-64570000D03*
X156210000Y-64570000D03*
X155560000Y-64570000D03*
X154910000Y-64570000D03*
D28*
X153870000Y-63530000D03*
X153870000Y-62880000D03*
X153870000Y-62230000D03*
X153870000Y-61580000D03*
X153870000Y-60930000D03*
D27*
X154910000Y-59890000D03*
X155560000Y-59890000D03*
X156210000Y-59890000D03*
X156860000Y-59890000D03*
X157510000Y-59890000D03*
D28*
X158550000Y-60930000D03*
X158550000Y-61580000D03*
X158550000Y-62230000D03*
X158550000Y-62880000D03*
X158550000Y-63530000D03*
G04 #@! TD*
D27*
G04 #@! TO.C,U8*
X171480000Y-64570000D03*
X170830000Y-64570000D03*
X170180000Y-64570000D03*
X169530000Y-64570000D03*
X168880000Y-64570000D03*
D28*
X167840000Y-63530000D03*
X167840000Y-62880000D03*
X167840000Y-62230000D03*
X167840000Y-61580000D03*
X167840000Y-60930000D03*
D27*
X168880000Y-59890000D03*
X169530000Y-59890000D03*
X170180000Y-59890000D03*
X170830000Y-59890000D03*
X171480000Y-59890000D03*
D28*
X172520000Y-60930000D03*
X172520000Y-61580000D03*
X172520000Y-62230000D03*
X172520000Y-62880000D03*
X172520000Y-63530000D03*
G04 #@! TD*
D27*
G04 #@! TO.C,U9*
X185450000Y-64570000D03*
X184800000Y-64570000D03*
X184150000Y-64570000D03*
X183500000Y-64570000D03*
X182850000Y-64570000D03*
D28*
X181810000Y-63530000D03*
X181810000Y-62880000D03*
X181810000Y-62230000D03*
X181810000Y-61580000D03*
X181810000Y-60930000D03*
D27*
X182850000Y-59890000D03*
X183500000Y-59890000D03*
X184150000Y-59890000D03*
X184800000Y-59890000D03*
X185450000Y-59890000D03*
D28*
X186490000Y-60930000D03*
X186490000Y-61580000D03*
X186490000Y-62230000D03*
X186490000Y-62880000D03*
X186490000Y-63530000D03*
G04 #@! TD*
D27*
G04 #@! TO.C,U10*
X199420000Y-64570000D03*
X198770000Y-64570000D03*
X198120000Y-64570000D03*
X197470000Y-64570000D03*
X196820000Y-64570000D03*
D28*
X195780000Y-63530000D03*
X195780000Y-62880000D03*
X195780000Y-62230000D03*
X195780000Y-61580000D03*
X195780000Y-60930000D03*
D27*
X196820000Y-59890000D03*
X197470000Y-59890000D03*
X198120000Y-59890000D03*
X198770000Y-59890000D03*
X199420000Y-59890000D03*
D28*
X200460000Y-60930000D03*
X200460000Y-61580000D03*
X200460000Y-62230000D03*
X200460000Y-62880000D03*
X200460000Y-63530000D03*
G04 #@! TD*
G04 #@! TO.C,U11*
X201495000Y-94585000D03*
X201495000Y-95235000D03*
X201495000Y-95885000D03*
X201495000Y-96535000D03*
X201495000Y-97185000D03*
D27*
X202535000Y-98225000D03*
X203185000Y-98225000D03*
X203835000Y-98225000D03*
X204485000Y-98225000D03*
X205135000Y-98225000D03*
D28*
X206175000Y-97185000D03*
X206175000Y-96535000D03*
X206175000Y-95885000D03*
X206175000Y-95235000D03*
X206175000Y-94585000D03*
D27*
X205135000Y-93545000D03*
X204485000Y-93545000D03*
X203835000Y-93545000D03*
X203185000Y-93545000D03*
X202535000Y-93545000D03*
G04 #@! TD*
G04 #@! TO.C,U12*
X188565000Y-93545000D03*
X189215000Y-93545000D03*
X189865000Y-93545000D03*
X190515000Y-93545000D03*
X191165000Y-93545000D03*
D28*
X192205000Y-94585000D03*
X192205000Y-95235000D03*
X192205000Y-95885000D03*
X192205000Y-96535000D03*
X192205000Y-97185000D03*
D27*
X191165000Y-98225000D03*
X190515000Y-98225000D03*
X189865000Y-98225000D03*
X189215000Y-98225000D03*
X188565000Y-98225000D03*
D28*
X187525000Y-97185000D03*
X187525000Y-96535000D03*
X187525000Y-95885000D03*
X187525000Y-95235000D03*
X187525000Y-94585000D03*
G04 #@! TD*
D27*
G04 #@! TO.C,U13*
X174595000Y-93545000D03*
X175245000Y-93545000D03*
X175895000Y-93545000D03*
X176545000Y-93545000D03*
X177195000Y-93545000D03*
D28*
X178235000Y-94585000D03*
X178235000Y-95235000D03*
X178235000Y-95885000D03*
X178235000Y-96535000D03*
X178235000Y-97185000D03*
D27*
X177195000Y-98225000D03*
X176545000Y-98225000D03*
X175895000Y-98225000D03*
X175245000Y-98225000D03*
X174595000Y-98225000D03*
D28*
X173555000Y-97185000D03*
X173555000Y-96535000D03*
X173555000Y-95885000D03*
X173555000Y-95235000D03*
X173555000Y-94585000D03*
G04 #@! TD*
D27*
G04 #@! TO.C,U14*
X160625000Y-93545000D03*
X161275000Y-93545000D03*
X161925000Y-93545000D03*
X162575000Y-93545000D03*
X163225000Y-93545000D03*
D28*
X164265000Y-94585000D03*
X164265000Y-95235000D03*
X164265000Y-95885000D03*
X164265000Y-96535000D03*
X164265000Y-97185000D03*
D27*
X163225000Y-98225000D03*
X162575000Y-98225000D03*
X161925000Y-98225000D03*
X161275000Y-98225000D03*
X160625000Y-98225000D03*
D28*
X159585000Y-97185000D03*
X159585000Y-96535000D03*
X159585000Y-95885000D03*
X159585000Y-95235000D03*
X159585000Y-94585000D03*
G04 #@! TD*
D27*
G04 #@! TO.C,U15*
X146655000Y-93545000D03*
X147305000Y-93545000D03*
X147955000Y-93545000D03*
X148605000Y-93545000D03*
X149255000Y-93545000D03*
D28*
X150295000Y-94585000D03*
X150295000Y-95235000D03*
X150295000Y-95885000D03*
X150295000Y-96535000D03*
X150295000Y-97185000D03*
D27*
X149255000Y-98225000D03*
X148605000Y-98225000D03*
X147955000Y-98225000D03*
X147305000Y-98225000D03*
X146655000Y-98225000D03*
D28*
X145615000Y-97185000D03*
X145615000Y-96535000D03*
X145615000Y-95885000D03*
X145615000Y-95235000D03*
X145615000Y-94585000D03*
G04 #@! TD*
M02*
